<svg width="592" height="330" viewBox="0 0 592 330" fill="none" xmlns="http://www.w3.org/2000/svg">
<g clip-path="url(#clip0_39_260)">
<path d="M119.41 303.74C119.41 303.74 104.987 325.353 102.584 324.145C100.18 322.937 70.0108 302.674 74.4202 300.671C78.8296 298.667 94.7177 302.816 94.7177 302.816L106.595 288.607L119.41 303.74Z" fill="white"/>
<path d="M102.669 324.87C105.514 324.87 113.593 313.744 120.008 304.138C120.1 304.015 120.15 303.865 120.15 303.712C120.15 303.558 120.1 303.408 120.008 303.285L107.206 288.081C107.141 288.001 107.059 287.936 106.965 287.892C106.872 287.847 106.769 287.824 106.666 287.824C106.562 287.824 106.46 287.847 106.367 287.892C106.273 287.936 106.191 288.001 106.125 288.081L94.5328 302.006C91.8587 301.339 78.4028 298.113 74.1925 300.031C73.9447 300.139 73.7327 300.315 73.5816 300.539C73.4304 300.763 73.3463 301.026 73.3391 301.296C73.2537 306.014 101.047 324.145 102.342 324.784C102.444 324.833 102.555 324.862 102.669 324.87ZM118.529 303.797C112.17 313.275 104.433 323.392 102.882 323.491C101.958 322.994 94.7319 318.276 87.6768 313.047C74.7757 303.513 74.733 301.509 74.7615 301.31C78.2179 299.761 90.2514 302.362 94.6039 303.498C94.7352 303.533 94.8739 303.529 95.0027 303.486C95.1316 303.443 95.2451 303.363 95.3293 303.257L106.708 289.644L118.529 303.797Z" fill="#231F20"/>
<path d="M169.066 298.937C169.066 298.937 175.879 324.415 174.016 326.546C172.153 328.678 128.087 330.809 129.694 328.422C131.302 326.035 152.026 312.678 152.026 312.678L150.049 300.742L169.066 298.937Z" fill="white"/>
<path d="M139.281 330.127C152.211 330.127 173.134 328.635 174.542 327.015C176.505 324.77 171.385 304.82 169.763 298.752C169.715 298.594 169.614 298.457 169.477 298.364C169.34 298.27 169.175 298.227 169.009 298.241L149.978 300.031C149.782 300.06 149.604 300.161 149.48 300.315C149.422 300.391 149.38 300.479 149.358 300.572C149.336 300.665 149.334 300.761 149.352 300.855L151.244 312.337C147.83 314.539 130.662 325.68 129.097 327.967C129.03 328.066 128.982 328.177 128.958 328.295C128.934 328.412 128.933 328.532 128.955 328.65C128.978 328.767 129.023 328.879 129.089 328.979C129.155 329.079 129.24 329.165 129.339 329.232C130.107 329.886 134.033 330.127 139.281 330.127ZM168.54 299.733C171.712 311.726 174.4 324.728 173.476 326.12C171.214 327.868 135.839 329.658 130.69 328.38C133.193 325.964 144.715 318.248 152.41 313.303C152.528 313.23 152.622 313.124 152.677 312.997C152.733 312.87 152.749 312.729 152.723 312.593L150.874 301.41L168.54 299.733Z" fill="#231F20"/>
<path d="M194.868 211.377H249.033V324.159H194.868V211.377Z" fill="white"/>
<path d="M194.854 324.856H249.005C249.193 324.856 249.374 324.781 249.508 324.647C249.641 324.514 249.716 324.334 249.716 324.145V211.377C249.716 211.189 249.641 211.008 249.508 210.875C249.374 210.742 249.193 210.667 249.005 210.667H194.826C194.637 210.667 194.456 210.742 194.323 210.875C194.189 211.008 194.115 211.189 194.115 211.377V324.145C194.114 324.241 194.134 324.336 194.171 324.424C194.209 324.512 194.264 324.591 194.333 324.658C194.402 324.724 194.484 324.776 194.573 324.81C194.663 324.844 194.758 324.859 194.854 324.856ZM248.322 323.435H195.565V212.088H248.322V323.435Z" fill="#231F20"/>
<path d="M264.125 182.759H318.289V324.145H264.125V182.759Z" fill="white"/>
<path d="M264.125 324.855H318.289C318.478 324.855 318.659 324.781 318.792 324.647C318.926 324.514 319.001 324.333 319.001 324.145V182.759C319.001 182.57 318.926 182.39 318.792 182.256C318.659 182.123 318.478 182.048 318.289 182.048H264.125C263.936 182.048 263.755 182.123 263.622 182.256C263.488 182.39 263.414 182.57 263.414 182.759V324.145C263.414 324.333 263.488 324.514 263.622 324.647C263.755 324.781 263.936 324.855 264.125 324.855ZM317.578 323.434H264.836V183.469H317.578V323.434Z" fill="#231F20"/>
<path d="M330.038 127.782H384.203V324.145H330.038V127.782Z" fill="white"/>
<path d="M330.081 324.856H384.132C384.321 324.856 384.502 324.781 384.635 324.647C384.768 324.514 384.843 324.333 384.843 324.145V127.796C384.843 127.608 384.768 127.427 384.635 127.294C384.502 127.16 384.321 127.085 384.132 127.085H330.081C329.892 127.085 329.712 127.16 329.578 127.294C329.445 127.427 329.37 127.608 329.37 127.796V324.145C329.37 324.333 329.445 324.514 329.578 324.647C329.712 324.781 329.892 324.856 330.081 324.856ZM383.535 323.435H330.792V128.492H383.492L383.535 323.435Z" fill="#231F20"/>
<path d="M396.326 95.8693H451.621V324.183H396.326V95.8693Z" fill="white"/>
<path d="M397.035 324.183H450.912C451.1 324.183 451.281 324.096 451.413 323.941C451.546 323.787 451.621 323.577 451.621 323.358V95.2405C451.621 95.0216 451.546 94.8116 451.413 94.6568C451.281 94.502 451.1 94.415 450.912 94.415H397.035C396.847 94.415 396.667 94.502 396.534 94.6568C396.401 94.8116 396.326 95.0216 396.326 95.2405V323.358C396.326 323.577 396.401 323.787 396.534 323.941C396.667 324.096 396.847 324.183 397.035 324.183ZM450.317 322.532H397.744V96.0494H450.274L450.317 322.532Z" fill="#231F20"/>
<path d="M396.326 95.8693H451.621V324.183H396.326V95.8693Z" fill="white"/>
<path d="M397.035 324.183H450.912C451.1 324.183 451.281 324.096 451.413 323.941C451.546 323.787 451.621 323.577 451.621 323.358V95.2404C451.621 95.0214 451.546 94.8115 451.413 94.6567C451.281 94.5019 451.1 94.4149 450.912 94.4149H397.035C396.847 94.4149 396.667 94.5019 396.534 94.6567C396.401 94.8115 396.326 95.0214 396.326 95.2404V323.358C396.326 323.577 396.401 323.787 396.534 323.941C396.667 324.096 396.847 324.183 397.035 324.183ZM450.317 322.532H397.744V96.0493H450.274L450.317 322.532Z" fill="#231F20"/>
<path d="M463.573 71.4843H518.515V324.281H463.573V71.4843Z" fill="white"/>
<path d="M464.277 324.281H517.81C517.997 324.281 518.176 324.185 518.308 324.013C518.44 323.842 518.515 323.61 518.515 323.368V71.2526C518.515 71.0107 518.44 70.7786 518.308 70.6075C518.176 70.4364 517.997 70.3403 517.81 70.3403H464.277C464.09 70.3403 463.911 70.4364 463.779 70.6075C463.647 70.7786 463.573 71.0107 463.573 71.2526V323.368C463.573 323.61 463.647 323.842 463.779 324.013C463.911 324.185 464.09 324.281 464.277 324.281ZM517.219 322.456H464.981V72.1466H517.176L517.219 322.456Z" fill="#231F20"/>
<path d="M529.961 53.5988H584.639V324.745H529.961V53.5988Z" fill="white"/>
<path d="M530.662 324.745H583.938C584.124 324.745 584.303 324.642 584.434 324.459C584.566 324.276 584.639 324.027 584.639 323.767V53.5257C584.639 53.2664 584.566 53.0176 584.434 52.8343C584.303 52.6509 584.124 52.5479 583.938 52.5479H530.662C530.476 52.5479 530.298 52.6509 530.166 52.8343C530.035 53.0176 529.961 53.2664 529.961 53.5257V323.767C529.961 324.027 530.035 324.276 530.166 324.459C530.298 324.642 530.476 324.745 530.662 324.745ZM583.35 322.79H531.363V54.484H583.307L583.35 322.79Z" fill="#231F20"/>
<path d="M179.236 185.43L95.7845 293.907L120.349 310.546L232.932 185.43H179.236Z" fill="#231F20"/>
<path d="M120.349 311.257C120.449 311.256 120.547 311.234 120.638 311.192C120.729 311.15 120.81 311.09 120.876 311.015L233.472 185.899C233.562 185.798 233.621 185.673 233.641 185.539C233.662 185.406 233.642 185.269 233.586 185.146C233.529 185.02 233.437 184.913 233.321 184.837C233.205 184.762 233.07 184.721 232.932 184.72H179.236C179.129 184.719 179.024 184.743 178.927 184.79C178.831 184.837 178.747 184.905 178.682 184.99L95.2155 293.466C95.0984 293.626 95.0474 293.824 95.0733 294.02C95.089 294.116 95.125 294.208 95.179 294.289C95.2329 294.37 95.3036 294.438 95.3862 294.489L119.951 311.1C120.063 311.195 120.203 311.25 120.349 311.257ZM231.296 186.141L120.235 309.679L96.8086 293.736L179.592 186.141H231.296Z" fill="#231F20"/>
<path d="M257.838 187.363C257.838 187.363 250.456 208.919 242.405 217.729C234.354 226.539 167.459 251.335 167.459 251.335L173.547 304.863L142.624 308.145C142.624 308.145 121.487 249.729 128.656 240.123C135.825 230.518 214 179.022 214 179.022L257.838 187.363Z" fill="#231F20"/>
<path d="M142.624 308.856L173.618 305.573C173.806 305.553 173.979 305.461 174.101 305.317C174.159 305.243 174.201 305.159 174.225 305.069C174.249 304.978 174.256 304.884 174.244 304.792L168.227 251.804C174.955 249.289 235.079 226.724 242.931 218.198C250.982 209.388 258.208 188.471 258.577 187.59C258.62 187.499 258.641 187.4 258.641 187.299C258.641 187.198 258.62 187.099 258.577 187.008C258.525 186.919 258.456 186.841 258.373 186.78C258.289 186.719 258.194 186.675 258.094 186.652L214.227 178.326C214.05 178.294 213.868 178.33 213.715 178.425C210.387 180.542 135.213 230.106 128.101 239.711C124.986 243.875 126.394 256.763 132.283 277.921C136.55 293.552 141.913 308.245 141.97 308.387C142.018 308.522 142.107 308.639 142.224 308.722C142.341 308.806 142.48 308.853 142.624 308.856ZM172.75 304.237L143.108 307.378C142.126 304.635 137.503 291.477 133.634 277.537C126.522 251.704 127.276 243.164 129.225 240.592C136.052 231.47 209.32 182.986 214.128 179.818L256.885 187.946C255.462 191.867 248.877 209.629 241.879 217.288C234.027 225.814 167.914 250.468 167.203 250.71C167.053 250.766 166.927 250.871 166.845 251.007C166.762 251.144 166.728 251.304 166.748 251.463L172.75 304.237Z" fill="#231F20"/>
<path d="M175.467 108.67C175.467 108.67 161.414 139.931 159.28 140.144L150.604 126.673C150.604 126.673 149.807 117.48 147.403 113.743C144.999 110.005 142.325 111.071 142.325 111.071C142.325 111.071 139.95 106.581 137.02 106.055C134.09 105.529 124.944 111.185 130.306 114.68C135.668 118.176 152.979 168.166 159.394 168.791C179.777 170.752 194.257 114.439 194.115 114.268L175.467 108.67Z" fill="white"/>
<path d="M160.475 169.544C168.312 169.544 176.121 161.672 183.518 146.098C189.207 134.119 195.508 114.666 194.627 113.771C194.544 113.688 194.441 113.629 194.328 113.6L175.666 107.917C175.501 107.872 175.326 107.887 175.171 107.956C175.015 108.026 174.889 108.148 174.813 108.3C168.767 121.743 161.627 136.407 159.451 139.036L151.301 126.361C151.172 125.025 150.305 116.883 148.001 113.288C145.995 110.162 143.733 110.034 142.681 110.19C141.941 108.954 139.836 105.771 137.148 105.288C134.73 104.847 129.41 107.746 128.215 110.744C127.873 111.563 127.86 112.481 128.178 113.309C128.496 114.137 129.12 114.811 129.922 115.192C132.098 116.613 137.034 127.654 141.728 138.34C149.949 156.883 155.61 169.061 159.351 169.416C159.723 169.48 160.098 169.523 160.475 169.544ZM193.29 114.766C190.796 124.294 187.542 133.607 183.56 142.617C178.098 154.766 169.507 169.061 159.479 168.08C156.293 167.768 148.626 150.475 143.022 137.828C137.774 125.963 133.222 115.718 130.704 114.084C129.097 113.032 129.282 112.023 129.538 111.341C130.519 108.854 135.227 106.439 136.892 106.751C139.025 107.135 141.088 110.247 141.699 111.398C141.782 111.554 141.918 111.675 142.083 111.738C142.248 111.8 142.43 111.801 142.595 111.739C142.667 111.739 144.772 110.972 146.863 114.126C149.138 117.664 149.949 126.645 149.949 126.73C149.956 126.848 149.996 126.961 150.063 127.057L158.683 140.585C158.755 140.697 158.858 140.786 158.978 140.844C159.099 140.902 159.233 140.925 159.365 140.911C161.542 140.641 170.517 121.43 175.865 109.65L193.29 114.766Z" fill="#231F20"/>
<path d="M238.977 26.2537C239.935 27.1194 240.842 28.0398 241.694 29.0104C244.823 32.5344 246.572 37.0389 248.251 41.4296C250.797 48.094 252.333 61.0816 256.501 66.4102C261.081 72.2504 271.379 69.7211 275.404 76.6128C277.979 81.0178 275.874 86.7301 277.268 91.6324C279.814 100.499 291.833 102.517 297.352 109.92C301.761 115.817 301.192 124.13 299.158 131.149C297.736 136.023 295.659 140.869 292.046 144.364C280.212 155.647 257.482 146.325 249.374 134.816C245.321 129.004 243.031 121.316 236.701 118.133C232.107 115.831 226.659 116.613 221.524 116.428C215.855 116.231 210.301 114.775 205.266 112.165C200.003 109.423 194.911 103.753 196.974 98.1972C198.268 94.7443 202.037 92.5134 202.663 88.8615C203.63 83.8597 198.481 80.151 194.883 76.5417C185.481 67.0639 185.58 49.8702 195.096 40.506C192.956 37.5922 191.892 34.0274 192.087 30.4184C192.281 26.8095 193.722 23.3794 196.163 20.712C197.254 19.4796 198.683 18.595 200.273 18.1684C201.873 17.9368 203.5 17.9897 205.081 18.3247C218.281 20.0583 228.75 17.0459 238.977 26.2537Z" fill="white"/>
<path d="M278.164 150.176C283.449 150.35 288.591 148.435 292.473 144.848C295.73 141.75 298.077 137.444 299.841 131.306C301.605 125.167 302.814 116.016 297.921 109.465C295.503 106.211 291.89 103.981 288.391 101.821C283.739 98.9788 279.344 96.2363 277.95 91.405C277.48 89.313 277.317 87.1638 277.467 85.0249C277.467 82.0266 277.595 78.9147 276.044 76.2291C273.768 72.3356 269.672 71.2699 265.732 70.2326C262.318 69.3374 259.089 68.499 257.084 65.9697C254.509 62.6873 252.902 56.1224 251.494 50.3391C250.809 47.2442 249.954 44.1893 248.934 41.1881C247.312 36.9252 245.491 32.2218 242.248 28.5557C241.356 27.5544 240.406 26.6055 239.403 25.7137C231.822 18.8931 224.255 18.6089 215.507 18.2963C212.207 18.1684 208.808 18.0405 205.181 17.5574L204.64 17.4721C203.15 17.1947 201.621 17.1947 200.131 17.4721C198.401 17.9266 196.846 18.8864 195.665 20.2288C193.193 22.9522 191.71 26.4262 191.452 30.0931C191.194 33.7601 192.177 37.4072 194.243 40.4492C189.71 45.479 187.219 52.0177 187.259 58.7854C187.298 65.553 189.865 72.0623 194.456 77.039C195.039 77.6358 195.665 78.2327 196.305 78.8295C199.491 81.8277 202.763 84.9254 201.995 88.7762C201.472 90.5975 200.493 92.2554 199.15 93.5933C197.969 94.8981 197.008 96.3858 196.305 97.9983C194.2 103.682 199.05 109.764 204.925 112.847C210.056 115.516 215.715 117.015 221.496 117.238C222.747 117.238 223.999 117.238 225.265 117.238C229.091 117.238 233.045 117.238 236.388 118.844C240.655 120.961 242.945 125.181 245.406 129.629C246.459 131.533 247.554 133.508 248.791 135.313C254.097 142.887 265.234 149.11 275.262 150.119C276.258 150.134 277.225 150.176 278.164 150.176ZM238.493 26.7795C239.437 27.6258 240.33 28.5273 241.167 29.4793C244.24 32.9465 245.946 37.3941 247.582 41.6854C248.595 44.623 249.435 47.6168 250.1 50.6517C251.622 56.8897 253.186 63.3267 255.946 66.8365C258.25 69.7779 261.863 70.73 265.362 71.6394C269.188 72.6341 272.816 73.5861 274.793 76.9822C276.215 79.3126 276.101 82.0835 276.044 85.0249C275.889 87.3032 276.071 89.5919 276.585 91.8171C278.121 97.1883 282.971 100.172 287.651 103.057C291.022 105.146 294.521 107.32 296.783 110.332C301.32 116.428 300.211 124.954 298.475 130.951C296.74 136.947 294.564 140.897 291.492 143.853C286.499 148.613 279.984 149.082 275.404 148.613C265.746 147.661 255.05 141.679 249.958 134.403C248.763 132.684 247.682 130.752 246.643 128.876C244.183 124.428 241.637 119.81 237.028 117.508C233.373 115.689 229.248 115.718 225.265 115.76C224.013 115.76 222.776 115.76 221.552 115.76C215.984 115.53 210.534 114.074 205.593 111.497C200.259 108.656 195.807 103.313 197.642 98.4104C198.297 96.9459 199.186 95.5974 200.273 94.4175C201.8 92.9022 202.908 91.0173 203.488 88.9467C204.356 84.3712 200.643 80.8472 197.329 77.7353C196.703 77.1527 196.077 76.5701 195.508 75.9875C191.109 71.2023 188.685 64.9319 188.722 58.4351C188.759 51.9382 191.254 45.6957 195.708 40.9607C195.822 40.8311 195.884 40.6644 195.884 40.4918C195.884 40.3192 195.822 40.1525 195.708 40.0229C193.685 37.2509 192.682 33.8663 192.868 30.441C193.055 27.0157 194.42 23.7598 196.732 21.2235C197.724 20.0861 199.03 19.2657 200.487 18.8647C201.814 18.6577 203.168 18.6914 204.484 18.9642L205.038 19.0494C208.722 19.5468 212.15 19.6746 215.493 19.8025C224.027 20.1009 231.296 20.3709 238.493 26.9074V26.7795Z" fill="#231F20"/>
<path d="M192.948 85.5079C192.948 85.5079 175.481 103.639 170.617 114.894C178.979 115.731 187.217 117.528 195.167 120.251L192.948 85.5079Z" fill="#33BC84"/>
<path d="M219.789 74.737C219.789 74.737 236.004 68.1153 256.117 84.968C265.078 92.5701 266.955 100.798 270.753 109.323C267.908 137.885 257.838 187.349 257.838 187.349L179.236 185.416C179.236 185.416 184.656 98.8082 190.943 88.1225C197.23 77.4369 219.789 74.737 219.789 74.737Z" fill="#33BC84"/>
<path d="M230.442 78.3605C229.219 80.7477 215.735 132.215 215.735 132.215L208.466 84.4138L230.442 78.3605Z" fill="#231F20"/>
<path d="M215.735 132.926C215.893 132.926 216.047 132.873 216.171 132.775C216.295 132.677 216.382 132.54 216.418 132.386C220.173 118.091 230.101 80.5773 231.068 78.6732C231.133 78.5516 231.16 78.4133 231.145 78.2763C231.13 78.1393 231.073 78.0102 230.983 77.9058C230.895 77.7995 230.779 77.7204 230.648 77.6776C230.517 77.6348 230.377 77.6302 230.243 77.6643L208.267 83.746C208.1 83.7897 207.955 83.8939 207.861 84.0383C207.766 84.1827 207.728 84.357 207.755 84.5275L215.038 132.329C215.058 132.49 215.135 132.638 215.255 132.748C215.375 132.857 215.53 132.92 215.692 132.926H215.735ZM229.319 79.3979C227.029 86.5879 218.679 118.204 215.92 128.705L209.263 84.9254L229.319 79.3979Z" fill="#231F20"/>
<path d="M198.439 36.8541C198.439 36.8541 194.769 48.4918 197.102 57.1313C197.692 59.5456 198.973 61.7359 200.79 63.4342C202.606 65.1326 204.878 66.2655 207.329 66.6944L207.926 82.1261C207.926 82.1261 208.168 90.0267 217.797 88.421C220.588 87.957 223.213 86.7896 225.426 85.0292C227.639 83.2687 229.365 80.9735 230.442 78.3605V49.9412C230.442 49.9412 219.22 44.0584 219.774 33.8274C219.76 33.8132 206.959 40.6338 198.439 36.8541Z" fill="white"/>
<path d="M215.365 89.3445C216.218 89.3407 217.069 89.2694 217.911 89.1314C220.834 88.6578 223.585 87.4384 225.897 85.5912C228.21 83.7441 230.006 81.3318 231.111 78.5878C231.125 78.5126 231.125 78.4356 231.111 78.3604V49.9411C231.113 49.8112 231.078 49.6833 231.01 49.5725C230.942 49.4618 230.844 49.3727 230.727 49.3159C230.627 49.3159 219.917 43.5184 220.443 33.87C220.449 33.7442 220.422 33.6191 220.364 33.507C220.307 33.3948 220.221 33.2996 220.116 33.2306C220.008 33.1682 219.885 33.1354 219.76 33.1354C219.635 33.1354 219.513 33.1682 219.405 33.2306C219.277 33.2306 206.802 39.8381 198.695 36.2288C198.603 36.1882 198.503 36.1676 198.403 36.1681C198.303 36.1687 198.203 36.1905 198.112 36.2321C198.021 36.2737 197.939 36.3342 197.873 36.4096C197.807 36.4849 197.757 36.5734 197.727 36.6693C197.571 37.1524 194.015 48.6054 196.39 57.3444C197.007 59.783 198.287 62.0034 200.09 63.7592C201.893 65.515 204.147 66.7375 206.603 67.2911L207.186 82.1686C207.327 84.2776 208.299 86.2449 209.889 87.6394C211.454 88.8393 213.395 89.4437 215.365 89.3445ZM229.731 78.2183C228.682 80.6797 227.032 82.8393 224.933 84.4998C222.833 86.1604 220.351 87.2691 217.712 87.7246C214.739 88.222 212.435 87.8241 210.856 86.531C209.58 85.3911 208.795 83.8025 208.666 82.0976L208.04 66.6943C208.034 66.5247 207.968 66.3627 207.853 66.2376C207.738 66.1124 207.583 66.0325 207.414 66.0122C205.095 65.6053 202.947 64.5262 201.238 62.9092C199.528 61.2923 198.332 59.2088 197.799 56.9181C195.878 49.8132 198.168 40.4633 198.908 37.7919C206.233 40.4917 215.863 36.4846 219.049 34.9499C219.305 43.8452 227.783 49.1596 229.731 50.3248V78.2183Z" fill="#231F20"/>
<path d="M224.995 48.1366C224.995 48.1366 229.361 37.2378 234.951 43.7884C240.541 50.3391 233.031 57.9981 228.252 57.586" fill="white"/>
<path d="M228.707 58.3249C231.552 58.3249 235.051 55.9661 236.701 52.7547C237.52 51.2582 237.849 49.5423 237.639 47.8494C237.43 46.1564 236.694 44.5719 235.535 43.3195C235.002 42.5387 234.27 41.9147 233.415 41.5124C232.559 41.11 231.612 40.9441 230.67 41.0317C226.858 41.6712 224.44 47.625 224.34 47.8666C224.291 47.9547 224.261 48.0523 224.252 48.153C224.243 48.2537 224.256 48.3551 224.29 48.4504C224.323 48.5457 224.377 48.6328 224.447 48.7058C224.516 48.7788 224.601 48.8361 224.695 48.8738C224.789 48.9115 224.89 48.9288 224.991 48.9245C225.092 48.9202 225.191 48.8944 225.281 48.8488C225.371 48.8032 225.451 48.7389 225.514 48.6602C225.578 48.5815 225.624 48.4902 225.649 48.3923C226.261 46.8861 228.394 42.8506 230.898 42.4385C231.597 42.399 232.294 42.5451 232.919 42.8621C233.544 43.1791 234.073 43.6555 234.454 44.2431C235.431 45.2788 236.054 46.5978 236.233 48.01C236.412 49.4222 236.138 50.8547 235.449 52.1011C233.956 54.943 230.77 57.1171 228.337 56.8755C228.244 56.8677 228.15 56.8785 228.061 56.9072C227.971 56.9359 227.889 56.9819 227.817 57.0427C227.746 57.1034 227.687 57.1777 227.645 57.2612C227.602 57.3447 227.576 57.4357 227.569 57.5291C227.559 57.6218 227.568 57.7154 227.595 57.8045C227.623 57.8936 227.667 57.9764 227.727 58.048C227.787 58.1195 227.86 58.1784 227.943 58.221C228.026 58.2637 228.116 58.2894 228.209 58.2965L228.707 58.3249Z" fill="#231F20"/>
<path d="M204.811 57.3871C205.944 57.3603 207.068 57.1836 208.154 56.8613C208.333 56.8025 208.483 56.6761 208.57 56.5089C208.658 56.3417 208.677 56.147 208.623 55.9661C208.564 55.7868 208.438 55.6374 208.27 55.5499C208.103 55.4623 207.908 55.4434 207.727 55.4972C206.303 55.9918 204.766 56.0609 203.303 55.6961C203.118 55.0709 205.024 51.3622 207.457 47.8382C207.511 47.763 207.549 47.6777 207.57 47.5873C207.591 47.497 207.593 47.4034 207.578 47.3121C207.562 47.2208 207.528 47.1335 207.478 47.0555C207.428 46.9775 207.362 46.9102 207.286 46.8577C207.209 46.8032 207.123 46.7643 207.031 46.7434C206.94 46.7224 206.845 46.7198 206.752 46.7357C206.66 46.7515 206.571 46.7855 206.492 46.8358C206.413 46.886 206.344 46.9514 206.29 47.0282C205.152 48.6623 201.483 54.1331 202.023 56.1508C202.066 56.3331 202.15 56.5033 202.268 56.6485C202.386 56.7937 202.536 56.9102 202.706 56.9892C203.37 57.2729 204.089 57.4086 204.811 57.3871Z" fill="#231F20"/>
<path d="M208.666 62.0336C209.593 62.0305 210.516 61.9063 211.411 61.6641C214.08 60.9095 216.382 59.2065 217.883 56.8755C217.934 56.7065 217.921 56.5244 217.845 56.3648C217.77 56.2051 217.637 56.0792 217.474 56.0118C217.31 55.9444 217.128 55.9402 216.961 56C216.795 56.0599 216.657 56.1795 216.574 56.3355C215.181 58.3174 213.13 59.7421 210.785 60.3569C207.812 61.0958 204.697 60.2574 201.525 57.856C201.45 57.8 201.365 57.7592 201.275 57.7361C201.185 57.7129 201.09 57.7078 200.998 57.721C200.905 57.7342 200.816 57.7655 200.736 57.813C200.656 57.8605 200.586 57.9234 200.53 57.998C200.473 58.0727 200.433 58.1576 200.41 58.248C200.386 58.3384 200.381 58.4325 200.394 58.5248C200.408 58.6172 200.439 58.706 200.487 58.7863C200.534 58.8666 200.597 58.9367 200.672 58.9927C202.927 60.86 205.738 61.9291 208.666 62.0336Z" fill="#231F20"/>
<path d="M207.329 66.6944C207.329 66.6944 215.621 67.4049 220.315 66.0123C220.315 66.0123 215.607 78.3747 207.755 78.6163L207.329 66.6944Z" fill="#231F20"/>
<path d="M207.755 79.3268C215.991 79.071 220.756 66.7939 220.955 66.2681C220.997 66.1431 221.006 66.0095 220.981 65.88C220.956 65.7506 220.898 65.6298 220.813 65.5292C220.722 65.433 220.606 65.3635 220.478 65.3285C220.35 65.2934 220.215 65.294 220.087 65.3303C215.578 66.6802 207.442 65.9839 207.357 65.9839C207.256 65.9773 207.154 65.9916 207.059 66.0258C206.963 66.06 206.876 66.1135 206.802 66.1829C206.728 66.251 206.671 66.335 206.634 66.4285C206.597 66.522 206.581 66.6226 206.589 66.7228L207.016 78.6447C207.019 78.7381 207.041 78.8297 207.08 78.9145C207.12 78.9994 207.175 79.0756 207.244 79.139C207.313 79.2023 207.393 79.2515 207.481 79.2837C207.569 79.316 207.662 79.3306 207.755 79.3268ZM219.134 67.0354C217.712 70.0052 213.943 77.1101 208.481 77.849L208.111 67.4617C211.79 67.7443 215.489 67.6012 219.134 67.0354Z" fill="#231F20"/>
<path d="M212.178 47.7193C211.51 47.709 210.984 46.7464 211.002 45.5694C211.02 44.3924 211.576 43.4466 212.244 43.4569C212.912 43.4673 213.438 44.4299 213.42 45.6069C213.401 46.7839 212.845 47.7297 212.178 47.7193Z" fill="#231F20"/>
<path d="M200.987 47.5459C200.32 47.5355 199.793 46.5729 199.812 45.3959C199.83 44.2189 200.386 43.2731 201.054 43.2835C201.721 43.2938 202.248 44.2564 202.229 45.4334C202.211 46.6105 201.655 47.5562 200.987 47.5459Z" fill="#231F20"/>
<path d="M270.753 109.323C270.753 109.323 287.111 162.837 275.603 175.299C267.624 183.953 247.156 174.574 238.251 171.15C194.243 154.283 178.667 140.485 182.181 141.139C181.1 137.53 192.137 142.56 193.987 143.256C194.726 140.3 189.321 135.1 186.277 134.929C183.233 134.759 179.734 135.995 179.265 132.982C179.009 131.263 180.687 129.515 182.181 128.72C183.674 127.924 196.561 127.171 199.249 129.615C201.013 131.192 201.909 133.537 203.517 135.213C205.305 136.773 207.418 137.913 209.704 138.553C218.418 141.679 227.247 144.492 236.189 146.993C240.456 148.215 250.726 150.574 250.726 150.574L245.591 118.972" fill="white"/>
<path d="M265.704 179.618C269.871 179.618 273.569 178.581 276.13 175.796C287.765 163.178 272.104 111.327 271.436 109.139C271.38 108.957 271.255 108.804 271.087 108.714C270.919 108.623 270.723 108.602 270.54 108.655C270.36 108.714 270.211 108.841 270.123 109.008C270.035 109.175 270.016 109.37 270.07 109.551C270.227 110.076 286.172 162.808 275.077 174.83C268.193 182.304 250.74 175.356 241.366 171.633L238.522 170.496C201.682 156.386 184.997 144.464 182.678 141.622C182.763 141.532 182.824 141.423 182.856 141.304C182.888 141.185 182.891 141.06 182.863 140.94C182.846 140.846 182.846 140.75 182.863 140.656C183.034 140.514 184.286 139.902 193.204 143.696L193.759 143.924C193.853 143.966 193.955 143.988 194.058 143.988C194.161 143.988 194.262 143.966 194.356 143.924C194.446 143.874 194.525 143.807 194.589 143.727C194.652 143.646 194.699 143.554 194.726 143.455C194.811 142.649 194.728 141.834 194.483 141.062C194.238 140.289 193.837 139.575 193.304 138.965C191.682 136.776 188.709 134.375 186.377 134.247C185.576 134.204 184.774 134.204 183.973 134.247C181.356 134.403 180.26 134.318 180.033 132.826C179.805 131.334 181.156 129.984 182.565 129.316C183.973 128.648 196.39 127.895 198.908 130.126C199.768 130.97 200.51 131.926 201.113 132.968C202.007 134.558 203.231 135.938 204.703 137.017C206.175 138.095 207.861 138.846 209.647 139.22C218.338 142.332 227.27 145.174 236.189 147.746C240.456 148.94 250.655 151.299 250.754 151.327C250.867 151.354 250.984 151.352 251.096 151.323C251.208 151.293 251.31 151.236 251.394 151.157C251.48 151.076 251.544 150.975 251.582 150.864C251.619 150.752 251.628 150.633 251.608 150.517L246.473 118.915C246.459 118.823 246.427 118.735 246.378 118.655C246.33 118.576 246.266 118.507 246.19 118.453C246.115 118.398 246.029 118.36 245.938 118.339C245.848 118.318 245.754 118.316 245.662 118.332C245.477 118.364 245.311 118.466 245.2 118.617C245.088 118.768 245.04 118.956 245.065 119.142L250.043 149.707C247.326 149.068 240.015 147.334 236.573 146.368C227.683 143.881 218.793 141.039 210.116 137.942C208.481 137.614 206.936 136.937 205.588 135.956C204.239 134.974 203.12 133.713 202.307 132.258C201.627 131.121 200.8 130.08 199.847 129.16C196.789 126.446 183.731 127.242 181.925 128.151C180.118 129.061 178.312 131.121 178.625 133.153C179.08 135.995 181.711 135.881 184.044 135.753C184.797 135.704 185.552 135.704 186.306 135.753C187.899 135.839 190.573 137.7 192.166 139.902C192.727 140.611 193.134 141.429 193.361 142.304C186.448 139.462 183.134 138.638 181.981 139.704C181.704 139.952 181.536 140.299 181.512 140.67C181.333 140.786 181.202 140.963 181.142 141.167C180.459 143.569 199.022 156.94 238.038 171.931L240.883 173.039C247.696 175.668 257.539 179.618 265.704 179.618Z" fill="#231F20"/>
<path d="M245.719 119.711H245.847C245.939 119.695 246.027 119.662 246.106 119.612C246.185 119.561 246.253 119.496 246.306 119.419C246.36 119.342 246.397 119.255 246.415 119.164C246.434 119.072 246.434 118.978 246.416 118.886L243.102 100.414C243.067 100.229 242.961 100.064 242.807 99.9556C242.653 99.8468 242.463 99.8022 242.277 99.8313C242.092 99.8659 241.929 99.9719 241.822 100.126C241.716 100.281 241.675 100.471 241.708 100.655L245.022 119.128C245.049 119.292 245.134 119.442 245.262 119.548C245.39 119.655 245.552 119.713 245.719 119.711Z" fill="#231F20"/>
<path d="M145.398 124.187C145.558 124.185 145.713 124.13 145.839 124.03C145.985 123.913 146.079 123.743 146.101 123.556C146.122 123.37 146.069 123.183 145.952 123.036C143.933 120.549 145.398 114.979 145.412 114.922C145.458 114.752 145.438 114.572 145.356 114.416C145.274 114.261 145.137 114.142 144.971 114.084C144.806 114.024 144.625 114.027 144.462 114.092C144.299 114.158 144.166 114.281 144.089 114.439C144.089 114.439 142.667 117.48 140.391 117.707C140.064 117.181 141.273 114.226 142.937 111.441C143.032 111.278 143.06 111.084 143.015 110.901C142.97 110.718 142.855 110.56 142.695 110.46C142.53 110.366 142.336 110.34 142.152 110.388C141.969 110.436 141.811 110.554 141.714 110.716C140.618 112.549 138.172 116.982 139.153 118.517C139.308 118.743 139.524 118.919 139.776 119.025C140.029 119.131 140.306 119.162 140.576 119.114C141.718 118.956 142.775 118.421 143.577 117.593C143.227 119.79 143.692 122.039 144.886 123.917C144.946 123.996 145.023 124.062 145.111 124.109C145.2 124.155 145.298 124.182 145.398 124.187Z" fill="#231F20"/>
<path d="M137.902 143.895C140.482 143.966 143.045 143.46 145.405 142.415C147.765 141.37 149.861 139.813 151.542 137.856C153.213 135.787 154.402 133.372 155.022 130.786C155.642 128.2 155.678 125.509 155.127 122.908C153.05 111.54 142.041 102.162 130.59 102.162C128.009 102.092 125.445 102.6 123.085 103.647C120.725 104.694 118.629 106.255 116.95 108.215C115.281 110.286 114.095 112.701 113.477 115.287C112.86 117.873 112.826 120.563 113.379 123.164C115.442 134.588 126.451 143.895 137.902 143.895ZM130.576 103.639C141.372 103.639 151.756 112.421 153.719 123.22C154.232 125.615 154.206 128.095 153.643 130.478C153.079 132.862 151.993 135.091 150.461 137.004C148.911 138.8 146.979 140.228 144.806 141.184C142.633 142.14 140.275 142.6 137.902 142.531C127.106 142.531 116.736 133.75 114.773 122.965C114.255 120.57 114.278 118.09 114.842 115.705C115.405 113.32 116.495 111.092 118.031 109.181C119.579 107.385 121.508 105.955 123.678 104.997C125.848 104.038 128.204 103.574 130.576 103.639Z" fill="#D1D3D4"/>
<path d="M117.803 152.265H205.223C206.327 152.263 207.413 151.989 208.385 151.468C209.357 150.946 210.186 150.194 210.798 149.276C211.41 148.359 211.786 147.305 211.892 146.208C211.999 145.111 211.834 144.004 211.411 142.986L192.92 98.8082C192.413 97.5865 191.554 96.5427 190.452 95.809C189.351 95.0754 188.056 94.685 186.732 94.6874H99.3689C98.2642 94.686 97.1763 94.9576 96.2021 95.4779C95.2278 95.9982 94.3975 96.7512 93.785 97.6696C93.1726 98.5881 92.797 99.6437 92.6917 100.742C92.5864 101.841 92.7547 102.948 93.1816 103.966L111.673 148.144C112.176 149.357 113.026 150.395 114.116 151.128C115.207 151.861 116.489 152.256 117.803 152.265ZM186.789 96.1084C187.833 96.1077 188.854 96.4165 189.723 96.9957C190.591 97.575 191.268 98.3986 191.668 99.3624L210.159 143.526C210.494 144.329 210.625 145.202 210.541 146.067C210.457 146.933 210.161 147.764 209.678 148.488C209.196 149.212 208.542 149.806 207.775 150.217C207.008 150.628 206.151 150.843 205.28 150.844H117.86C116.816 150.845 115.795 150.536 114.926 149.957C114.058 149.377 113.381 148.554 112.981 147.59L94.4902 103.426C94.1555 102.624 94.0243 101.751 94.1082 100.885C94.1921 100.02 94.4884 99.188 94.9709 98.4642C95.4535 97.7404 96.1073 97.1467 96.8745 96.7358C97.6417 96.3248 98.4985 96.1093 99.3689 96.1084H186.789Z" fill="#231F20"/>
<path d="M161.385 104.805H185.395C185.584 104.805 185.765 104.73 185.898 104.597C186.032 104.463 186.106 104.283 186.106 104.094C186.103 103.907 186.027 103.728 185.894 103.596C185.762 103.463 185.583 103.387 185.395 103.384H161.385C161.198 103.387 161.019 103.463 160.886 103.596C160.754 103.728 160.678 103.907 160.674 104.094C160.674 104.283 160.749 104.463 160.882 104.597C161.016 104.73 161.197 104.805 161.385 104.805Z" fill="#231F20"/>
<path d="M164.6 110.048H188.596C188.784 110.048 188.965 109.973 189.099 109.84C189.232 109.707 189.307 109.526 189.307 109.338C189.307 109.149 189.232 108.968 189.099 108.835C188.965 108.702 188.784 108.627 188.596 108.627H164.6C164.411 108.627 164.23 108.702 164.097 108.835C163.964 108.968 163.889 109.149 163.889 109.338C163.889 109.526 163.964 109.707 164.097 109.84C164.23 109.973 164.411 110.048 164.6 110.048Z" fill="#231F20"/>
<path d="M137.987 294.617C138.12 294.616 138.25 294.578 138.363 294.508C138.476 294.438 138.567 294.338 138.627 294.22C138.741 293.992 138.741 293.992 128.002 252.159C127.955 251.971 127.834 251.809 127.668 251.709C127.501 251.609 127.301 251.579 127.113 251.626C126.924 251.673 126.762 251.793 126.662 251.96C126.562 252.126 126.532 252.326 126.579 252.514C126.579 252.514 137.19 293.808 137.247 294.077C137.287 294.217 137.365 294.342 137.474 294.437C137.582 294.533 137.716 294.596 137.859 294.617H137.987Z" fill="white"/>
<path d="M152.282 220.443C152.418 220.44 152.551 220.401 152.666 220.329L192.962 193.913C193.041 193.863 193.109 193.798 193.162 193.721C193.215 193.644 193.251 193.557 193.27 193.465C193.288 193.374 193.288 193.28 193.27 193.188C193.251 193.097 193.214 193.01 193.162 192.933C193.057 192.777 192.896 192.669 192.712 192.632C192.528 192.594 192.337 192.631 192.18 192.734L151.898 219.136C151.741 219.242 151.632 219.406 151.595 219.592C151.558 219.778 151.595 219.971 151.699 220.13C151.765 220.224 151.852 220.301 151.953 220.355C152.055 220.41 152.167 220.44 152.282 220.443Z" fill="white"/>
<path d="M120.036 196.741C120.036 209.012 115.157 220.78 106.471 229.457C97.7861 238.133 86.0061 243.008 73.7231 243.008C61.4401 243.008 49.6602 238.133 40.9748 229.457C32.2894 220.78 27.41 209.012 27.41 196.741H73.7231V150.531C85.9951 150.535 97.7643 155.403 106.447 164.067C115.13 172.73 120.017 184.482 120.036 196.741Z" fill="#33BC84"/>
<path d="M66.2415 143.64V189.906H19.9283C19.9283 177.636 24.8077 165.868 33.4931 157.191C42.1785 148.514 53.9584 143.64 66.2415 143.64Z" fill="#105157"/>
<path d="M45.4176 124.329H73.0689C73.1639 124.343 73.2608 124.336 73.353 124.309C73.4452 124.282 73.5305 124.236 73.6032 124.173C73.6758 124.111 73.7342 124.033 73.7741 123.946C73.8141 123.859 73.8347 123.764 73.8347 123.668C73.8347 123.572 73.8141 123.477 73.7741 123.39C73.7342 123.303 73.6758 123.225 73.6032 123.163C73.5305 123.1 73.4452 123.054 73.353 123.027C73.2608 123 73.1639 122.993 73.0689 123.007H45.4176C45.2588 123.031 45.1138 123.11 45.0089 123.231C44.904 123.353 44.8463 123.508 44.8463 123.668C44.8463 123.828 44.904 123.983 45.0089 124.105C45.1138 124.226 45.2588 124.305 45.4176 124.329Z" fill="#FDFCFB"/>
<path d="M35.0056 124.329H40.2543C40.4131 124.305 40.5581 124.226 40.663 124.105C40.7679 123.983 40.8256 123.828 40.8256 123.668C40.8256 123.508 40.7679 123.353 40.663 123.231C40.5581 123.11 40.4131 123.031 40.2543 123.007H35.0056C34.9106 122.993 34.8138 123 34.7216 123.027C34.6294 123.054 34.5441 123.1 34.4714 123.163C34.3987 123.225 34.3405 123.303 34.3005 123.39C34.2606 123.477 34.2399 123.572 34.2399 123.668C34.2399 123.764 34.2606 123.859 34.3005 123.946C34.3405 124.033 34.3987 124.111 34.4714 124.173C34.5441 124.236 34.6294 124.282 34.7216 124.309C34.8138 124.336 34.9106 124.343 35.0056 124.329Z" fill="#FDFCFB"/>
<path d="M32.5306 112.62H73.3107C73.4694 112.597 73.6145 112.517 73.7194 112.396C73.8242 112.274 73.8819 112.12 73.8819 111.959C73.8819 111.799 73.8242 111.644 73.7194 111.523C73.6145 111.401 73.4694 111.322 73.3107 111.298H32.5306C32.3719 111.322 32.2268 111.401 32.1219 111.523C32.0171 111.644 31.9594 111.799 31.9594 111.959C31.9594 112.12 32.0171 112.274 32.1219 112.396C32.2268 112.517 32.3719 112.597 32.5306 112.62Z" fill="#FDFCFB"/>
<path d="M59.926 100.911H73.1685C73.342 100.911 73.5084 100.842 73.6311 100.72C73.7538 100.597 73.8227 100.431 73.8227 100.258C73.8247 100.171 73.8091 100.085 73.7769 100.005C73.7447 99.925 73.6966 99.8521 73.6354 99.791C73.5743 99.73 73.5014 99.6819 73.4211 99.6497C73.3409 99.6176 73.2549 99.602 73.1685 99.6039H59.926C59.7525 99.6039 59.586 99.6728 59.4633 99.7954C59.3406 99.9179 59.2717 100.084 59.2717 100.258C59.2753 100.43 59.3455 100.594 59.4674 100.716C59.5893 100.838 59.7536 100.908 59.926 100.911Z" fill="#FDFCFB"/>
<path d="M28.1782 101.323H51.7472C51.8337 101.325 51.9196 101.31 51.9999 101.277C52.0802 101.245 52.1531 101.197 52.2142 101.136C52.2754 101.075 52.3235 101.002 52.3557 100.922C52.3879 100.842 52.4035 100.756 52.4015 100.67C52.4015 100.496 52.3326 100.33 52.2099 100.207C52.0872 100.085 51.9208 100.016 51.7472 100.016H28.1782C28.0058 100.02 27.8414 100.09 27.7195 100.211C27.5976 100.333 27.5275 100.497 27.5239 100.67C27.5239 100.843 27.5928 101.009 27.7155 101.132C27.8382 101.254 28.0046 101.323 28.1782 101.323Z" fill="#FDFCFB"/>
<path d="M45.4176 124.329H73.0689C73.1639 124.343 73.2608 124.336 73.353 124.309C73.4452 124.282 73.5305 124.236 73.6032 124.173C73.6758 124.111 73.7342 124.033 73.7741 123.946C73.8141 123.859 73.8347 123.764 73.8347 123.668C73.8347 123.572 73.8141 123.477 73.7741 123.39C73.7342 123.303 73.6758 123.225 73.6032 123.163C73.5305 123.1 73.4452 123.054 73.353 123.027C73.2608 123 73.1639 122.993 73.0689 123.007H45.4176C45.2588 123.031 45.1138 123.11 45.0089 123.231C44.904 123.353 44.8463 123.508 44.8463 123.668C44.8463 123.828 44.904 123.983 45.0089 124.105C45.1138 124.226 45.2588 124.305 45.4176 124.329V124.329Z" stroke="#298F55" stroke-width="1.015" stroke-linecap="round" stroke-linejoin="round"/>
<path d="M35.0056 124.329H40.2543C40.4131 124.305 40.5581 124.226 40.663 124.105C40.7679 123.983 40.8256 123.828 40.8256 123.668C40.8256 123.508 40.7679 123.353 40.663 123.231C40.5581 123.11 40.4131 123.031 40.2543 123.007H35.0056C34.9106 122.993 34.8138 123 34.7216 123.027C34.6294 123.054 34.5441 123.1 34.4714 123.163C34.3987 123.225 34.3405 123.303 34.3005 123.39C34.2606 123.477 34.2399 123.572 34.2399 123.668C34.2399 123.764 34.2606 123.859 34.3005 123.946C34.3405 124.033 34.3987 124.111 34.4714 124.173C34.5441 124.236 34.6294 124.282 34.7216 124.309C34.8138 124.336 34.9106 124.343 35.0056 124.329V124.329Z" stroke="#298F55" stroke-width="1.015" stroke-linecap="round" stroke-linejoin="round"/>
<path d="M32.5306 112.62H73.3107C73.4694 112.597 73.6145 112.517 73.7194 112.396C73.8242 112.274 73.8819 112.12 73.8819 111.959C73.8819 111.799 73.8242 111.644 73.7194 111.523C73.6145 111.401 73.4694 111.322 73.3107 111.298H32.5306C32.3719 111.322 32.2268 111.401 32.1219 111.523C32.0171 111.644 31.9594 111.799 31.9594 111.959C31.9594 112.12 32.0171 112.274 32.1219 112.396C32.2268 112.517 32.3719 112.597 32.5306 112.62V112.62Z" stroke="#298F55" stroke-width="1.015" stroke-linecap="round" stroke-linejoin="round"/>
<path d="M59.926 100.911H73.1685C73.342 100.911 73.5084 100.842 73.6311 100.72C73.7538 100.597 73.8227 100.431 73.8227 100.258C73.8247 100.171 73.8091 100.085 73.7769 100.005C73.7447 99.925 73.6966 99.8521 73.6354 99.791C73.5743 99.73 73.5014 99.6819 73.4211 99.6497C73.3409 99.6176 73.2549 99.602 73.1685 99.6039H59.926C59.7525 99.6039 59.586 99.6728 59.4633 99.7954C59.3406 99.9179 59.2717 100.084 59.2717 100.258C59.2753 100.43 59.3455 100.594 59.4674 100.716C59.5893 100.838 59.7536 100.908 59.926 100.911V100.911Z" stroke="#298F55" stroke-width="1.015" stroke-linecap="round" stroke-linejoin="round"/>
<path d="M28.1782 101.323H51.7472C51.8337 101.325 51.9196 101.31 51.9999 101.277C52.0802 101.245 52.1531 101.197 52.2142 101.136C52.2754 101.075 52.3235 101.002 52.3557 100.922C52.3879 100.842 52.4035 100.756 52.4015 100.67C52.4015 100.496 52.3326 100.33 52.2099 100.207C52.0872 100.085 51.9208 100.016 51.7472 100.016H28.1782C28.0058 100.02 27.8414 100.09 27.7195 100.211C27.5976 100.333 27.5275 100.497 27.5239 100.67C27.5239 100.843 27.5928 101.009 27.7155 101.132C27.8382 101.254 28.0046 101.323 28.1782 101.323V101.323Z" stroke="#298F55" stroke-width="1.015" stroke-linecap="round" stroke-linejoin="round"/>
<path d="M27.8652 259.662H73.4813C73.67 259.662 73.8508 259.587 73.9842 259.454C74.1176 259.32 74.1925 259.14 74.1925 258.951C74.1925 258.763 74.1176 258.582 73.9842 258.449C73.8508 258.316 73.67 258.241 73.4813 258.241H27.8652C27.6766 258.241 27.4957 258.316 27.3623 258.449C27.229 258.582 27.154 258.763 27.154 258.951C27.154 259.14 27.229 259.32 27.3623 259.454C27.4957 259.587 27.6766 259.662 27.8652 259.662Z" fill="#D1D3D4"/>
<path d="M37.694 272.607H72.8128C73.0014 272.607 73.1823 272.532 73.3157 272.398C73.4491 272.265 73.524 272.084 73.524 271.896C73.524 271.708 73.4491 271.527 73.3157 271.394C73.1823 271.26 73.0014 271.186 72.8128 271.186H37.694C37.5065 271.189 37.3277 271.265 37.1951 271.398C37.0625 271.53 36.9864 271.709 36.9828 271.896C36.9828 272.084 37.0577 272.265 37.1911 272.398C37.3244 272.532 37.5053 272.607 37.694 272.607Z" fill="#D1D3D4"/>
<path d="M32.8009 285.097H73.4813C73.67 285.097 73.8508 285.022 73.9842 284.889C74.1176 284.755 74.1925 284.575 74.1925 284.386C74.1925 284.198 74.1176 284.017 73.9842 283.884C73.8508 283.751 73.67 283.676 73.4813 283.676H32.8009C32.6134 283.679 32.4346 283.755 32.302 283.888C32.1694 284.02 32.0933 284.199 32.0897 284.386C32.0897 284.575 32.1646 284.755 32.298 284.889C32.4314 285.022 32.6123 285.097 32.8009 285.097Z" fill="#D1D3D4"/>
<path d="M26.3005 271.996H32.8009C32.9896 271.996 33.1705 271.921 33.3038 271.788C33.4372 271.654 33.5121 271.474 33.5121 271.285C33.5121 271.097 33.4372 270.916 33.3038 270.783C33.1705 270.65 32.9896 270.575 32.8009 270.575H26.329C26.1404 270.575 25.9594 270.65 25.8261 270.783C25.6927 270.916 25.6178 271.097 25.6178 271.285C25.6178 271.474 25.6927 271.654 25.8261 271.788C25.9594 271.921 26.1404 271.996 26.329 271.996H26.3005Z" fill="#D1D3D4"/>
<path d="M299.229 82.2255H375.868C376.057 82.2255 376.237 82.1507 376.371 82.0174C376.504 81.8842 376.579 81.7034 376.579 81.515V18.7367C376.579 18.5483 376.504 18.3676 376.371 18.2343C376.237 18.1011 376.057 18.0262 375.868 18.0262C375.679 18.0262 375.498 18.1011 375.365 18.2343C375.232 18.3676 375.157 18.5483 375.157 18.7367V80.8045H299.229C299.041 80.8045 298.86 80.8794 298.726 81.0126C298.593 81.1459 298.518 81.3266 298.518 81.515C298.518 81.7034 298.593 81.8842 298.726 82.0174C298.86 82.1507 299.041 82.2255 299.229 82.2255Z" fill="#298F55"/>
<path d="M375.868 82.2255C376.049 82.2245 376.222 82.1531 376.352 82.0266C376.42 81.9628 376.474 81.8858 376.511 81.8002C376.548 81.7147 376.567 81.6225 376.567 81.5293C376.567 81.4361 376.548 81.3438 376.511 81.2583C376.474 81.1728 376.42 81.0957 376.352 81.0319L344.163 46.5735C344.085 46.495 343.992 46.434 343.889 46.3948C343.786 46.3555 343.675 46.339 343.565 46.3461C343.458 46.361 343.355 46.3992 343.264 46.4582C343.173 46.5171 343.096 46.5953 343.039 46.6872L335.927 58.1402L313.567 33.5716C313.506 33.4961 313.431 33.4338 313.345 33.3885C313.26 33.3432 313.166 33.3159 313.069 33.3083C312.972 33.3006 312.875 33.3127 312.783 33.344C312.692 33.3752 312.607 33.4248 312.535 33.4898C312.463 33.5548 312.406 33.6338 312.365 33.7219C312.325 33.8101 312.303 33.9055 312.302 34.0023C312.3 34.0991 312.318 34.1953 312.354 34.285C312.391 34.3746 312.445 34.4559 312.515 34.5237L335.486 59.7885C335.562 59.8694 335.655 59.932 335.758 59.9714C335.862 60.0109 335.973 60.026 336.084 60.0158C336.193 60.0089 336.3 59.9755 336.394 59.9186C336.488 59.8617 336.567 59.783 336.624 59.689L343.736 48.2218L375.356 81.9982C375.42 82.0701 375.499 82.1276 375.587 82.1668C375.676 82.206 375.771 82.226 375.868 82.2255Z" fill="#3D9830"/>
<path d="M49.8696 85.1669C50.0095 85.1622 50.1445 85.1148 50.2564 85.0309C50.3684 84.947 50.4518 84.8308 50.4955 84.698L76.0275 13.7918L104.148 68.4564C104.205 68.5615 104.286 68.6513 104.385 68.7181C104.484 68.7849 104.598 68.8268 104.717 68.84C104.837 68.848 104.957 68.8263 105.066 68.7767C105.175 68.7271 105.27 68.6512 105.343 68.5558L133.094 32.307L150.604 60.3426C150.706 60.5002 150.865 60.6119 151.048 60.6543C151.231 60.6967 151.424 60.6665 151.585 60.57L166.307 51.7174C166.395 51.6733 166.473 51.6115 166.535 51.5358C166.598 51.46 166.645 51.3721 166.672 51.2776C166.699 51.183 166.706 51.0839 166.693 50.9864C166.679 50.889 166.646 50.7953 166.595 50.7114C166.543 50.6276 166.475 50.5552 166.394 50.4991C166.313 50.4429 166.222 50.4041 166.125 50.3851C166.029 50.3661 165.929 50.3674 165.833 50.3888C165.737 50.4102 165.646 50.4513 165.567 50.5096L151.443 59.0354L133.791 30.6871C133.729 30.5899 133.646 30.5085 133.547 30.4492C133.448 30.39 133.337 30.3547 133.222 30.346C133.106 30.3376 132.99 30.3593 132.886 30.4091C132.781 30.459 132.691 30.5352 132.624 30.6302L104.93 66.808L76.5679 11.6888C76.5015 11.5674 76.4023 11.467 76.2816 11.3992C76.1609 11.3314 76.0236 11.2988 75.8852 11.3051C75.7479 11.3186 75.617 11.3694 75.5066 11.4521C75.3963 11.5348 75.3108 11.6461 75.2594 11.774L49.827 82.5524L37.3099 56.1082C37.2784 56.013 37.227 55.9255 37.1591 55.8515C37.0913 55.7776 37.0086 55.7188 36.9164 55.6791C36.8242 55.6394 36.7247 55.6196 36.6243 55.6211C36.5239 55.6225 36.4249 55.6452 36.334 55.6876C36.243 55.7301 36.162 55.7912 36.0964 55.8672C36.0308 55.9431 35.9821 56.032 35.9533 56.1281C35.9246 56.2242 35.9165 56.3253 35.9297 56.4247C35.9429 56.5241 35.9769 56.6196 36.0297 56.705L49.2722 84.7122C49.3179 84.8371 49.3985 84.9463 49.5044 85.0268C49.6103 85.1074 49.737 85.156 49.8696 85.1669Z" fill="#105157"/>
<path d="M151.215 63.3693C149.291 63.3693 147.73 61.8107 147.73 59.888C147.73 57.9653 149.291 56.4066 151.215 56.4066C153.14 56.4066 154.7 57.9653 154.7 59.888C154.7 61.8107 153.14 63.3693 151.215 63.3693Z" fill="white"/>
<path d="M151.215 64.094C152.059 64.094 152.884 63.844 153.586 63.3756C154.288 62.9072 154.835 62.2414 155.158 61.4625C155.481 60.6835 155.565 59.8264 155.4 58.9995C155.236 58.1726 154.829 57.413 154.233 56.8168C153.636 56.2206 152.875 55.8146 152.048 55.6502C151.22 55.4857 150.362 55.5701 149.582 55.8927C148.802 56.2154 148.136 56.7618 147.667 57.4628C147.198 58.1638 146.948 58.988 146.948 59.8311C146.948 60.9617 147.398 62.046 148.198 62.8455C148.998 63.6449 150.083 64.094 151.215 64.094ZM151.215 57.1171C151.781 57.1173 152.334 57.2859 152.803 57.6014C153.272 57.917 153.637 58.3651 153.85 58.8885C154.063 59.412 154.115 59.987 153.999 60.5401C153.883 61.0932 153.605 61.5994 153.2 61.9938C152.795 62.3883 152.282 62.6532 151.725 62.7547C151.169 62.8562 150.595 62.7897 150.076 62.5637C149.558 62.3376 149.119 61.9624 148.815 61.4858C148.511 61.0092 148.356 60.4529 148.37 59.888C148.389 59.1466 148.697 58.4419 149.228 57.9242C149.76 57.4065 150.473 57.1169 151.215 57.1171Z" fill="#D1D3D4"/>
<path d="M133.165 34.5379C131.24 34.5379 129.68 32.9793 129.68 31.0566C129.68 29.1339 131.24 27.5752 133.165 27.5752C135.09 27.5752 136.65 29.1339 136.65 31.0566C136.65 32.9793 135.09 34.5379 133.165 34.5379Z" fill="white"/>
<path d="M133.165 35.2483C134.012 35.2482 134.84 34.9963 135.543 34.5247C136.246 34.053 136.793 33.383 137.114 32.5999C137.434 31.8169 137.515 30.9561 137.344 30.1273C137.174 29.2985 136.76 28.5391 136.156 27.9459C135.552 27.3526 134.785 26.9523 133.953 26.796C133.121 26.6396 132.26 26.7342 131.482 27.0678C130.704 27.4014 130.042 27.9588 129.582 28.6691C129.122 29.3794 128.884 30.2105 128.898 31.0565C128.916 32.1747 129.374 33.2408 130.172 34.025C130.971 34.8091 132.045 35.2485 133.165 35.2483ZM133.165 28.2856C133.728 28.2856 134.278 28.4523 134.745 28.7646C135.213 29.0768 135.578 29.5207 135.793 30.04C136.009 30.5593 136.065 31.1307 135.955 31.682C135.845 32.2332 135.574 32.7396 135.177 33.1371C134.779 33.5345 134.272 33.8052 133.72 33.9149C133.168 34.0245 132.596 33.9682 132.076 33.7531C131.556 33.538 131.112 33.1738 130.8 32.7064C130.487 32.2391 130.32 31.6896 130.32 31.1275C130.331 30.3812 130.636 29.6693 131.168 29.1455C131.701 28.6217 132.418 28.3281 133.165 28.3282V28.2856Z" fill="#D1D3D4"/>
<path d="M75.8995 15.4969C73.9748 15.4969 72.4146 13.9383 72.4146 12.0155C72.4146 10.0928 73.9748 8.53418 75.8995 8.53418C77.8241 8.53418 79.3844 10.0928 79.3844 12.0155C79.3844 13.9383 77.8241 15.4969 75.8995 15.4969Z" fill="white"/>
<path d="M75.9137 16.2074C76.7607 16.2073 77.5884 15.9554 78.2916 15.4838C78.9948 15.0121 79.5416 14.3421 79.8624 13.559C80.1832 12.776 80.2634 11.9152 80.0929 11.0864C79.9224 10.2576 79.5089 9.49824 78.905 8.90499C78.3011 8.31174 77.5341 7.91145 76.7017 7.75508C75.8693 7.5987 75.0092 7.69332 74.2308 8.02689C73.4525 8.36047 72.791 8.91789 72.3308 9.6282C71.8706 10.3385 71.6324 11.1696 71.6465 12.0156C71.6652 13.1338 72.123 14.1999 72.9212 14.9841C73.7195 15.7682 74.7942 16.2076 75.9137 16.2074ZM75.9137 9.2447C76.4763 9.2447 77.0263 9.41138 77.4942 9.72366C77.962 10.0359 78.3266 10.4798 78.5419 10.9991C78.7572 11.5184 78.8136 12.0898 78.7038 12.6411C78.594 13.1924 78.3231 13.6987 77.9253 14.0962C77.5274 14.4936 77.0205 14.7643 76.4687 14.874C75.9169 14.9836 75.3449 14.9273 74.825 14.7122C74.3052 14.4971 73.8609 14.1329 73.5483 13.6655C73.2357 13.1982 73.0689 12.6487 73.0689 12.0866C73.0689 11.3329 73.3686 10.61 73.9021 10.0771C74.4356 9.54412 75.1592 9.2447 75.9137 9.2447Z" fill="#D1D3D4"/>
<path d="M49.884 87.8952C47.9593 87.8952 46.3991 86.3366 46.3991 84.4139C46.3991 82.4912 47.9593 80.9325 49.884 80.9325C51.8086 80.9325 53.3688 82.4912 53.3688 84.4139C53.3688 86.3366 51.8086 87.8952 49.884 87.8952Z" fill="white"/>
<path d="M49.8697 88.6057C50.7166 88.6198 51.5484 88.3818 52.2595 87.922C52.9705 87.4623 53.5285 86.8015 53.8624 86.0239C54.1963 85.2463 54.291 84.3871 54.1344 83.5555C53.9779 82.724 53.5772 81.9578 52.9834 81.3545C52.3895 80.7512 51.6294 80.338 50.7998 80.1677C49.9702 79.9974 49.1086 80.0776 48.3247 80.398C47.5409 80.7185 46.8702 81.2647 46.3981 81.9672C45.926 82.6697 45.6738 83.4966 45.6737 84.3428C45.6736 85.4611 46.1133 86.5348 46.8983 87.3322C47.6832 88.1297 48.7504 88.587 49.8697 88.6057ZM49.8697 81.6287C50.4352 81.6146 50.992 81.7692 51.4691 82.0727C51.9461 82.3763 52.3218 82.8151 52.5481 83.333C52.7743 83.8508 52.8409 84.4244 52.7393 84.9802C52.6377 85.5361 52.3725 86.0491 51.9777 86.4537C51.5828 86.8583 51.0762 87.1361 50.5225 87.2517C49.9688 87.3672 49.3932 87.3152 48.8693 87.1024C48.3453 86.8895 47.8967 86.5254 47.5809 86.0567C47.265 85.5879 47.0963 85.0357 47.0961 84.4707C47.0958 83.7291 47.3858 83.0168 47.904 82.4858C48.4222 81.9548 49.1276 81.6473 49.8697 81.6287Z" fill="#D1D3D4"/>
<path d="M104.774 71.6109C102.849 71.6109 101.289 70.0523 101.289 68.1296C101.289 66.2069 102.849 64.6482 104.774 64.6482C106.699 64.6482 108.259 66.2069 108.259 68.1296C108.259 70.0523 106.699 71.6109 104.774 71.6109Z" fill="white"/>
<path d="M104.774 72.3782C105.621 72.3781 106.449 72.1262 107.152 71.6546C107.855 71.1829 108.402 70.5129 108.723 69.7298C109.043 68.9467 109.124 68.086 108.953 67.2572C108.783 66.4284 108.369 65.669 107.765 65.0758C107.161 64.4825 106.394 64.0822 105.562 63.9259C104.73 63.7695 103.87 63.8641 103.091 64.1977C102.313 64.5312 101.651 65.0887 101.191 65.799C100.731 66.5093 100.493 67.3404 100.507 68.1864C100.526 69.3046 100.983 70.3707 101.782 71.1549C102.58 71.939 103.655 72.3784 104.774 72.3782ZM104.774 65.4155C105.316 65.4296 105.843 65.6022 106.288 65.912C106.733 66.2217 107.077 66.6551 107.278 67.1584C107.479 67.6617 107.528 68.2129 107.419 68.7436C107.309 69.2744 107.047 69.7616 106.663 70.1447C106.28 70.5279 105.792 70.7903 105.261 70.8995C104.729 71.0087 104.178 70.9598 103.674 70.759C103.17 70.5581 102.736 70.2141 102.426 69.7695C102.116 69.3248 101.943 68.7991 101.929 68.2574C101.922 67.8794 101.99 67.5038 102.129 67.1524C102.269 66.801 102.477 66.481 102.742 66.211C103.007 65.9411 103.323 65.7266 103.672 65.5803C104.021 65.4339 104.396 65.3586 104.774 65.3586V65.4155Z" fill="#D1D3D4"/>
<path d="M279.615 27.2058H299.229C299.418 27.2058 299.599 27.1309 299.732 26.9977C299.866 26.8644 299.941 26.6837 299.941 26.4953C299.941 26.3068 299.866 26.1261 299.732 25.9929C299.599 25.8596 299.418 25.7848 299.229 25.7848H279.615C279.426 25.7848 279.245 25.8596 279.112 25.9929C278.978 26.1261 278.903 26.3068 278.903 26.4953C278.903 26.6837 278.978 26.8644 279.112 26.9977C279.245 27.1309 279.426 27.2058 279.615 27.2058Z" fill="white"/>
<path d="M279.615 32.2643H299.229C299.418 32.2643 299.599 32.1895 299.732 32.0562C299.866 31.923 299.941 31.7423 299.941 31.5539C299.941 31.3654 299.866 31.1847 299.732 31.0515C299.599 30.9182 299.418 30.8434 299.229 30.8434H279.615C279.426 30.8434 279.245 30.9182 279.112 31.0515C278.978 31.1847 278.903 31.3654 278.903 31.5539C278.903 31.7423 278.978 31.923 279.112 32.0562C279.245 32.1895 279.426 32.2643 279.615 32.2643Z" fill="white"/>
<path d="M286.214 37.3372H299.229C299.418 37.3372 299.599 37.2624 299.732 37.1291C299.866 36.9959 299.941 36.8152 299.941 36.6267C299.941 36.4383 299.866 36.2576 299.732 36.1244C299.599 35.9911 299.418 35.9163 299.229 35.9163H286.214C286.027 35.9199 285.848 35.9959 285.716 36.1284C285.583 36.2608 285.507 36.4395 285.503 36.6267C285.503 36.8152 285.578 36.9959 285.712 37.1291C285.845 37.2624 286.026 37.3372 286.214 37.3372Z" fill="white"/>
</g>
<defs>
<clipPath id="clip0_39_260">
<rect width="592" height="330" fill="white" transform="matrix(-1 0 0 1 592 0)"/>
</clipPath>
</defs>
</svg>
