<svg width="499" height="325" viewBox="0 0 499 325" fill="none" xmlns="http://www.w3.org/2000/svg">
<g clip-path="url(#clip0_41_865)">
<path d="M91.6675 312.332C91.0861 308.57 98.7121 304.273 108.7 302.735C118.689 301.196 127.257 302.999 127.839 306.761C128.42 310.523 120.794 314.82 110.806 316.358C100.817 317.897 92.2488 316.094 91.6675 312.332Z" fill="#105157"/>
<path d="M223.651 306.078C220.223 288.239 265.734 264.529 325.302 253.119C384.87 241.709 435.938 246.921 439.366 264.76C442.793 282.599 397.283 306.31 337.715 317.72C278.147 329.129 227.078 323.917 223.651 306.078Z" fill="#105157"/>
<path d="M50.0428 291.097H50.1661L439.935 218.809C440.023 218.794 440.108 218.762 440.184 218.714C440.26 218.666 440.326 218.603 440.377 218.529C440.428 218.455 440.464 218.371 440.482 218.283C440.5 218.195 440.5 218.104 440.482 218.016C440.449 217.839 440.347 217.682 440.198 217.579C440.049 217.477 439.866 217.437 439.688 217.469L49.9195 289.743C49.7379 289.76 49.5702 289.847 49.4533 289.987C49.3364 290.127 49.2799 290.307 49.2963 290.489C49.3126 290.67 49.4005 290.838 49.5405 290.954C49.6805 291.071 49.8612 291.127 50.0428 291.111V291.097Z" fill="#D1D3D4"/>
<path d="M263.925 0.987793L76.6568 36.8583V254.461L263.925 218.59V0.987793Z" fill="white"/>
<path d="M76.6706 255.145H76.7938L264.103 219.261C264.258 219.229 264.397 219.145 264.497 219.023C264.597 218.901 264.651 218.748 264.651 218.59V0.987816C264.652 0.886212 264.631 0.785622 264.588 0.693364C264.546 0.601106 264.483 0.519498 264.405 0.454474C264.326 0.392823 264.236 0.347708 264.139 0.321854C264.043 0.295999 263.942 0.289943 263.843 0.304047L76.5336 36.1746C76.3778 36.2089 76.2385 36.2955 76.1388 36.4199C76.0391 36.5443 75.9851 36.699 75.9857 36.8583V254.461C75.9825 254.561 76.0031 254.66 76.046 254.751C76.0889 254.841 76.1527 254.92 76.2322 254.981C76.3525 255.088 76.509 255.147 76.6706 255.145V255.145ZM263.241 218.016L77.3554 253.572V37.419L263.241 1.86304V218.016Z" fill="#298F55"/>
<path d="M181.043 210.426C181.201 210.424 181.352 210.369 181.474 210.269C181.596 210.17 181.681 210.033 181.714 209.879C182.783 204.601 181.961 199.486 181.03 194.686C179.66 187.37 177.674 179.055 172.674 172.901C170.182 169.688 166.755 167.322 162.864 166.127C158.973 164.933 154.807 164.968 150.937 166.228C150.851 166.257 150.773 166.303 150.705 166.363C150.637 166.423 150.582 166.496 150.543 166.577C150.503 166.659 150.48 166.747 150.475 166.837C150.47 166.927 150.482 167.017 150.512 167.103C150.542 167.188 150.588 167.267 150.648 167.334C150.708 167.402 150.781 167.457 150.863 167.496C150.944 167.535 151.032 167.558 151.123 167.564C151.213 167.569 151.303 167.556 151.389 167.527C154.993 166.357 158.872 166.328 162.494 167.444C166.115 168.561 169.303 170.768 171.62 173.763C176.414 179.67 178.29 187.794 179.687 194.946C180.591 199.609 181.386 204.519 180.372 209.606C180.354 209.694 180.354 209.785 180.371 209.873C180.388 209.961 180.422 210.045 180.472 210.12C180.521 210.195 180.585 210.259 180.66 210.309C180.734 210.36 180.818 210.395 180.906 210.413L181.043 210.426Z" fill="#D1D3D4"/>
<path d="M141.952 168.744C144.006 168.694 146.052 168.452 148.061 168.019C152.228 167.335 156.292 166.127 160.155 164.422C168.733 160.046 175.388 152.657 178.838 143.677C182.098 135.472 182.591 127.143 183.057 119.143C183.061 118.963 182.997 118.789 182.878 118.654C182.758 118.52 182.592 118.436 182.413 118.418C182.232 118.411 182.056 118.473 181.92 118.593C181.785 118.713 181.701 118.881 181.687 119.061C181.221 126.965 180.742 135.13 177.578 143.171C174.26 151.831 167.849 158.958 159.58 163.178C155.823 164.839 151.869 166.015 147.814 166.679C145.157 167.324 142.408 167.495 139.692 167.185C139.602 167.17 139.51 167.172 139.421 167.192C139.332 167.213 139.248 167.25 139.173 167.303C139.099 167.356 139.035 167.422 138.987 167.499C138.938 167.577 138.906 167.662 138.89 167.752C138.875 167.842 138.878 167.934 138.898 168.023C138.918 168.112 138.956 168.196 139.009 168.27C139.061 168.344 139.128 168.407 139.205 168.456C139.283 168.504 139.369 168.537 139.459 168.552C140.283 168.684 141.117 168.748 141.952 168.744V168.744Z" fill="#D1D3D4"/>
<path d="M171.209 81.3034C171.388 81.2998 171.559 81.2262 171.684 81.0983C171.81 80.9705 171.88 80.7986 171.88 80.6196C171.881 74.1673 171.099 67.7386 169.551 61.4741C168.675 57.9185 167.374 53.9389 164.47 51.368C159.415 46.8961 151.444 47.8671 143.718 49.262C142.253 49.5218 140.239 50.0688 139.459 51.7646C139.384 51.9296 139.379 52.1173 139.443 52.2865C139.507 52.4556 139.636 52.5925 139.801 52.6671C139.965 52.742 140.151 52.7496 140.32 52.6882C140.49 52.6267 140.628 52.5013 140.705 52.3389C141.212 51.2175 142.801 50.8073 143.951 50.6022C151.361 49.2346 159.018 48.3184 163.566 52.3936C166.196 54.7184 167.401 58.4518 168.223 61.8023C169.745 67.9731 170.513 74.3054 170.51 80.6606C170.521 80.8372 170.599 81.0027 170.73 81.1226C170.86 81.2424 171.032 81.3072 171.209 81.3034Z" fill="#D1D3D4"/>
<path d="M177.263 83.8333C177.353 83.828 177.441 83.8051 177.522 83.7658C177.603 83.7265 177.676 83.6716 177.736 83.6043C177.795 83.537 177.841 83.4585 177.871 83.3734C177.9 83.2883 177.912 83.1983 177.907 83.1085V82.9444C177.249 70.6365 176.263 51.9559 191.399 45.6653C195.422 44.1865 199.63 43.2662 203.904 42.9302C203.994 42.9194 204.081 42.891 204.16 42.8467C204.239 42.8024 204.308 42.743 204.364 42.6719C204.42 42.6008 204.462 42.5194 204.486 42.4323C204.511 42.3452 204.518 42.2542 204.507 42.1644C204.496 42.0746 204.468 41.9878 204.423 41.9089C204.379 41.8301 204.319 41.7608 204.248 41.7049C204.177 41.649 204.095 41.6077 204.008 41.5833C203.921 41.5589 203.83 41.5519 203.74 41.5626C199.342 41.9003 195.013 42.8485 190.878 44.3798C174.852 51.0534 175.811 70.281 176.537 82.9991V83.1221C176.533 83.2178 176.549 83.3132 176.584 83.4022C176.62 83.4912 176.673 83.5718 176.742 83.6388C176.81 83.7059 176.892 83.7578 176.982 83.7913C177.071 83.8248 177.167 83.8391 177.263 83.8333V83.8333Z" fill="#D1D3D4"/>
<path d="M115.091 141.967L219.313 122.015V64.9612L115.091 84.9272V141.967Z" fill="white"/>
<path d="M115.091 142.651H115.215L219.437 122.699C219.595 122.667 219.738 122.582 219.84 122.457C219.943 122.332 219.999 122.176 219.999 122.015V64.9613C219.999 64.8618 219.977 64.7636 219.934 64.6737C219.891 64.5838 219.829 64.5045 219.752 64.4416C219.672 64.3774 219.58 64.3308 219.48 64.3049C219.381 64.279 219.278 64.2743 219.177 64.2912L114.968 84.2573C114.811 84.286 114.669 84.3687 114.566 84.4911C114.464 84.6134 114.407 84.7678 114.407 84.9273V141.926C114.408 142.027 114.431 142.127 114.473 142.219C114.516 142.311 114.577 142.393 114.653 142.46C114.773 142.572 114.928 142.64 115.091 142.651V142.651ZM218.629 121.413L115.776 141.119V85.488L218.629 65.7955V121.413Z" fill="#D1D3D4"/>
<path d="M134.076 100.64L200.329 87.9496C201.592 87.6798 202.727 86.9936 203.552 86.0013C204.377 85.009 204.844 83.7685 204.877 82.4794V82.4794C204.899 81.9131 204.788 81.3494 204.553 80.8333C204.319 80.3172 203.966 79.8631 203.524 79.5071C203.083 79.1511 202.564 78.903 202.009 78.7828C201.454 78.6625 200.879 78.6733 200.329 78.8144L134.076 91.5052C132.811 91.7745 131.674 92.4602 130.847 93.4522C130.02 94.4442 129.55 95.685 129.514 96.9753V96.9753C129.495 97.5423 129.607 98.1061 129.844 98.622C130.08 99.1379 130.434 99.5917 130.876 99.9474C131.319 100.303 131.839 100.551 132.394 100.671C132.949 100.791 133.525 100.781 134.076 100.64V100.64Z" fill="white"/>
<path d="M133.199 101.42C133.535 101.416 133.87 101.38 134.199 101.31L200.452 88.5923C201.859 88.2871 203.125 87.5236 204.049 86.422C204.974 85.3204 205.506 83.9431 205.561 82.5068C205.584 81.8465 205.456 81.1899 205.188 80.5859C204.92 79.982 204.519 79.4465 204.014 79.0195C203.484 78.5996 202.868 78.3021 202.21 78.1484C201.551 77.9947 200.867 77.9886 200.206 78.1306L133.98 90.8898C132.574 91.1971 131.31 91.9612 130.385 93.0624C129.461 94.1635 128.928 95.5396 128.871 96.9753C128.856 97.6318 128.989 98.2832 129.259 98.8818C129.529 99.4805 129.93 100.011 130.432 100.435C131.212 101.073 132.19 101.421 133.199 101.42V101.42ZM133.939 99.9702C133.467 100.087 132.976 100.094 132.501 99.9924C132.026 99.8905 131.581 99.6818 131.199 99.3822C130.856 99.0836 130.584 98.7129 130.402 98.2968C130.219 97.8806 130.132 97.4293 130.145 96.9753C130.189 95.8534 130.607 94.7782 131.331 93.9191C132.055 93.06 133.045 92.4658 134.144 92.23L200.398 79.5392C200.869 79.4206 201.361 79.412 201.836 79.5139C202.311 79.6159 202.756 79.8258 203.137 80.1272C203.482 80.4239 203.756 80.7943 203.939 81.2109C204.121 81.6275 204.208 82.0797 204.192 82.5341C204.138 83.6453 203.718 84.7076 202.997 85.5559C202.277 86.4042 201.295 86.9909 200.206 87.2248L133.939 99.9702Z" fill="#D1D3D4"/>
<path d="M134.076 114.357L200.329 101.666C201.592 101.396 202.727 100.71 203.552 99.7178C204.377 98.7255 204.844 97.485 204.877 96.1959C204.901 95.6284 204.792 95.0631 204.558 94.5453C204.324 94.0274 203.972 93.5715 203.53 93.2139C203.088 92.8563 202.568 92.607 202.012 92.4861C201.457 92.3651 200.88 92.3757 200.329 92.5172L134.076 105.222C132.811 105.491 131.674 106.177 130.847 107.169C130.02 108.161 129.55 109.401 129.514 110.692V110.692C129.494 111.259 129.607 111.823 129.844 112.338C130.08 112.854 130.434 113.308 130.876 113.664C131.319 114.02 131.839 114.267 132.394 114.388C132.949 114.508 133.525 114.497 134.076 114.357V114.357Z" fill="white"/>
<path d="M133.199 115.123C133.535 115.124 133.87 115.092 134.199 115.027L200.452 102.336C201.859 102.031 203.124 101.267 204.049 100.166C204.974 99.0642 205.506 97.6869 205.561 96.2505C205.58 95.5949 205.45 94.9436 205.182 94.3447C204.914 93.7458 204.515 93.2147 204.014 92.7907C203.486 92.3673 202.87 92.0677 202.211 91.9138C201.552 91.76 200.867 91.7558 200.206 91.9018L133.98 104.593C132.574 104.905 131.311 105.672 130.387 106.775C129.463 107.878 128.93 109.255 128.871 110.692C128.857 111.348 128.99 111.999 129.26 112.598C129.53 113.196 129.931 113.727 130.432 114.152C131.214 114.786 132.192 115.129 133.199 115.123V115.123ZM133.939 113.687C133.467 113.803 132.975 113.811 132.501 113.709C132.026 113.607 131.581 113.398 131.199 113.099C130.858 112.799 130.586 112.428 130.404 112.012C130.222 111.596 130.133 111.146 130.144 110.692C130.187 109.569 130.603 108.493 131.328 107.633C132.052 106.774 133.043 106.18 134.144 105.946L200.397 93.2556C200.869 93.137 201.361 93.1284 201.836 93.2304C202.311 93.3324 202.756 93.5422 203.137 93.8437C203.482 94.1404 203.756 94.5107 203.939 94.9273C204.121 95.3439 204.208 95.7961 204.192 96.2505C204.15 97.3713 203.735 98.4462 203.014 99.3055C202.292 100.165 201.304 100.76 200.206 100.996L133.939 113.687Z" fill="#D1D3D4"/>
<path d="M134.076 128.073L200.329 115.382C201.591 115.11 202.725 114.423 203.549 113.432C204.374 112.44 204.841 111.201 204.877 109.912V109.912C204.901 109.345 204.792 108.779 204.558 108.262C204.324 107.744 203.972 107.288 203.53 106.93C203.088 106.573 202.568 106.323 202.012 106.202C201.457 106.081 200.88 106.092 200.329 106.234L134.076 118.924C132.813 119.198 131.679 119.885 130.853 120.876C130.026 121.867 129.555 123.105 129.514 124.394V124.394C129.492 124.963 129.603 125.528 129.839 126.046C130.074 126.563 130.428 127.019 130.871 127.376C131.314 127.733 131.834 127.982 132.39 128.103C132.947 128.224 133.524 128.214 134.076 128.073V128.073Z" fill="white"/>
<path d="M133.199 128.839C133.535 128.84 133.869 128.808 134.199 128.743L200.452 116.053C201.859 115.747 203.124 114.984 204.049 113.882C204.974 112.781 205.506 111.403 205.561 109.967C205.58 109.311 205.45 108.66 205.182 108.061C204.914 107.462 204.515 106.931 204.014 106.507C203.486 106.084 202.87 105.784 202.211 105.63C201.552 105.476 200.867 105.472 200.206 105.618L133.98 118.309C132.575 118.618 131.312 119.383 130.388 120.484C129.464 121.585 128.93 122.96 128.871 124.394C128.854 125.051 128.986 125.703 129.256 126.302C129.526 126.901 129.928 127.432 130.432 127.854C131.209 128.498 132.189 128.846 133.199 128.839V128.839ZM133.939 127.403C133.466 127.518 132.974 127.523 132.499 127.419C132.024 127.315 131.58 127.103 131.199 126.801C130.855 126.503 130.583 126.133 130.4 125.717C130.218 125.3 130.13 124.849 130.144 124.394C130.192 123.273 130.61 122.199 131.333 121.341C132.057 120.482 133.046 119.887 134.144 119.649L200.397 106.958C200.87 106.842 201.363 106.835 201.838 106.94C202.313 107.044 202.757 107.256 203.137 107.56C203.483 107.856 203.757 108.226 203.94 108.643C204.122 109.06 204.209 109.512 204.192 109.967C204.147 111.087 203.732 112.161 203.011 113.02C202.289 113.878 201.303 114.474 200.206 114.712L133.939 127.403Z" fill="#D1D3D4"/>
<path d="M91.5183 188.436L152.882 176.689V146.494L91.5183 158.255V188.436Z" fill="white"/>
<path d="M91.5184 189.12H91.6554L153.005 177.373C153.164 177.347 153.307 177.265 153.41 177.142C153.514 177.019 153.569 176.863 153.567 176.703V146.494C153.567 146.394 153.545 146.296 153.502 146.206C153.46 146.116 153.397 146.037 153.32 145.974C153.245 145.908 153.154 145.86 153.057 145.834C152.96 145.808 152.858 145.804 152.759 145.824L91.3951 157.585C91.2367 157.611 91.0929 157.693 90.9899 157.816C90.8869 157.939 90.8314 158.094 90.8335 158.255V188.423C90.8351 188.524 90.8578 188.624 90.9002 188.715C90.9427 188.807 91.004 188.889 91.0801 188.956C91.2045 189.057 91.3583 189.114 91.5184 189.12V189.12ZM152.197 176.115L92.2032 187.602V158.815L152.197 147.397V176.115Z" fill="#D1D3D4"/>
<path d="M203.945 57.768L249.078 49.1251V24.2496L203.945 32.8925V57.768Z" fill="white"/>
<path d="M203.945 58.5065H204.082L249.201 49.8636C249.359 49.8375 249.503 49.7555 249.606 49.6325C249.709 49.5096 249.764 49.3538 249.762 49.1935V24.318C249.763 24.2171 249.739 24.1174 249.694 24.0272C249.649 23.9369 249.583 23.8585 249.502 23.7984C249.427 23.731 249.337 23.6824 249.239 23.6562C249.142 23.6301 249.039 23.6273 248.94 23.6479L203.835 32.2224C203.678 32.2511 203.536 32.3338 203.433 32.4562C203.331 32.5786 203.274 32.7329 203.274 32.8925V57.768C203.274 57.9493 203.346 58.1233 203.474 58.2515C203.603 58.3797 203.777 58.4518 203.959 58.4518L203.945 58.5065ZM248.392 48.6192L204.63 57.0022V33.4668L248.392 25.0838V48.6192Z" fill="#D1D3D4"/>
<path d="M128.35 176.115H128.501L146.8 172.614C146.957 172.585 147.1 172.502 147.202 172.38C147.305 172.258 147.361 172.103 147.362 171.944V153.701C147.36 153.598 147.336 153.497 147.291 153.405C147.246 153.313 147.182 153.232 147.102 153.168C147.024 153.104 146.933 153.059 146.836 153.036C146.739 153.012 146.638 153.01 146.54 153.031L128.241 156.532C128.085 156.561 127.944 156.644 127.844 156.767C127.743 156.889 127.69 157.043 127.693 157.202V175.472C127.691 175.574 127.713 175.674 127.756 175.767C127.798 175.859 127.861 175.94 127.939 176.005C128.062 176.083 128.205 176.121 128.35 176.115V176.115ZM145.965 171.356L129.035 174.597V157.762L145.965 154.521V171.356Z" fill="#D1D3D4"/>
<path d="M134.311 166.367C132.709 164.914 132.838 162.169 134.598 160.235C136.359 158.301 139.084 157.91 140.685 159.363C142.286 160.816 142.157 163.561 140.397 165.495C138.637 167.429 135.912 167.819 134.311 166.367Z" fill="white"/>
<path d="M136.719 167.909C137.041 167.909 137.361 167.881 137.678 167.827C139.019 167.534 140.225 166.804 141.105 165.752C141.985 164.7 142.49 163.385 142.541 162.015C142.562 161.39 142.44 160.767 142.184 160.196C141.927 159.625 141.543 159.12 141.061 158.72C140.556 158.315 139.967 158.029 139.336 157.882C138.705 157.736 138.05 157.732 137.418 157.872C136.079 158.164 134.875 158.892 133.995 159.942C133.115 160.991 132.608 162.302 132.555 163.67C132.542 164.297 132.667 164.918 132.923 165.491C133.179 166.063 133.558 166.571 134.035 166.98C134.793 167.593 135.743 167.922 136.719 167.909ZM138.377 159.144C138.748 159.143 139.116 159.218 139.458 159.364C139.799 159.51 140.107 159.724 140.364 159.992C140.62 160.261 140.819 160.579 140.948 160.927C141.078 161.274 141.135 161.645 141.116 162.015C141.073 163.068 140.682 164.078 140.002 164.885C139.323 165.691 138.395 166.25 137.363 166.474C136.931 166.578 136.481 166.583 136.047 166.488C135.612 166.394 135.205 166.201 134.856 165.927C134.536 165.646 134.281 165.299 134.11 164.909C133.94 164.518 133.858 164.096 133.87 163.67C133.915 162.618 134.308 161.61 134.987 160.803C135.666 159.997 136.593 159.437 137.623 159.212C137.854 159.173 138.088 159.155 138.322 159.157L138.377 159.144Z" fill="#D1D3D4"/>
<path d="M140.075 166.665L134.911 167.663C133.103 168.051 131.477 169.03 130.289 170.444C129.101 171.858 128.418 173.627 128.35 175.472L146.649 172.012C146.688 171.19 146.533 170.37 146.197 169.618C145.86 168.866 145.352 168.204 144.712 167.684C144.073 167.164 143.32 166.801 142.515 166.624C141.709 166.447 140.874 166.461 140.075 166.665Z" fill="white"/>
<path d="M128.35 176.115H128.501L146.8 172.614C146.958 172.585 147.1 172.502 147.202 172.38C147.305 172.258 147.362 172.103 147.362 171.944C147.386 171.041 147.207 170.145 146.837 169.321C146.467 168.497 145.916 167.767 145.225 167.185C144.497 166.604 143.648 166.193 142.74 165.983C141.833 165.772 140.889 165.767 139.979 165.968L134.815 166.966C132.855 167.392 131.092 168.455 129.803 169.99C128.514 171.525 127.771 173.443 127.693 175.445C127.692 175.546 127.713 175.647 127.756 175.739C127.799 175.831 127.861 175.913 127.939 175.978C128.059 176.065 128.202 176.113 128.35 176.115V176.115ZM145.938 171.369L129.09 174.597C129.332 173.071 130.028 171.654 131.088 170.529C132.149 169.405 133.524 168.625 135.035 168.292L140.212 167.294C140.923 167.13 141.662 167.128 142.374 167.289C143.085 167.45 143.751 167.77 144.321 168.224C144.791 168.62 145.177 169.106 145.454 169.653C145.732 170.2 145.896 170.798 145.938 171.41V171.369Z" fill="#D1D3D4"/>
<path d="M209.465 52.6398H209.602L244.188 46.0209C244.346 45.9893 244.489 45.9039 244.591 45.7792C244.694 45.6546 244.749 45.4984 244.75 45.3371V29.3643C244.748 29.2631 244.725 29.1634 244.683 29.0716C244.64 28.9797 244.579 28.8978 244.503 28.831C244.425 28.7695 244.334 28.7255 244.237 28.7019C244.14 28.6783 244.039 28.6757 243.941 28.6942L209.315 35.2584C209.158 35.2871 209.015 35.3698 208.913 35.4922C208.81 35.6146 208.754 35.7689 208.753 35.9285V51.956C208.755 52.0572 208.777 52.1569 208.82 52.2487C208.862 52.3406 208.924 52.4226 209 52.4894C209.133 52.5908 209.298 52.6439 209.465 52.6398V52.6398ZM243.38 44.8312L210.15 51.1902V36.6259L243.38 30.2532V44.8312Z" fill="#D1D3D4"/>
<path d="M244.064 46.0071C244.213 46.0094 244.358 45.9623 244.477 45.8732C244.596 45.7841 244.682 45.658 244.722 45.5148C244.747 45.4277 244.754 45.3365 244.743 45.2466C244.733 45.1566 244.704 45.0697 244.66 44.9908C244.615 44.9119 244.555 44.8426 244.483 44.787C244.412 44.7315 244.33 44.6906 244.242 44.6669L209.643 35.3267C209.469 35.2805 209.283 35.3049 209.127 35.3945C208.97 35.4841 208.856 35.6317 208.808 35.8053C208.785 35.8925 208.781 35.9832 208.794 36.0721C208.808 36.1611 208.839 36.2464 208.887 36.3229C208.934 36.3995 208.996 36.4658 209.07 36.5178C209.143 36.5699 209.226 36.6066 209.314 36.6258L243.914 45.9798L244.064 46.0071Z" fill="#D1D3D4"/>
<path d="M209.465 52.6398C209.597 52.6394 209.725 52.6014 209.835 52.5303L244.434 29.9249C244.523 29.8836 244.602 29.8236 244.666 29.7492C244.729 29.6747 244.776 29.5875 244.803 29.4934C244.83 29.3993 244.837 29.3006 244.822 29.2038C244.807 29.107 244.772 29.0145 244.719 28.9325C244.665 28.8504 244.595 28.7808 244.512 28.7283C244.429 28.6758 244.336 28.6416 244.239 28.6281C244.142 28.6146 244.043 28.6221 243.949 28.65C243.855 28.6779 243.769 28.7256 243.695 28.7899L209.096 51.3816C208.943 51.4797 208.836 51.6341 208.797 51.811C208.759 51.9879 208.792 52.1728 208.89 52.3252C208.953 52.4207 209.038 52.4992 209.138 52.5541C209.239 52.6089 209.351 52.6383 209.465 52.6398V52.6398Z" fill="#D1D3D4"/>
<path d="M98.5584 76.5854L145.855 67.5323V31.1421L98.5584 40.1952V76.5854Z" fill="white"/>
<path d="M98.5586 77.2691H98.6819L145.978 68.216C146.137 68.1898 146.281 68.1078 146.384 67.9849C146.487 67.8619 146.542 67.7062 146.54 67.5459V31.1557C146.539 31.0532 146.514 30.9522 146.469 30.86C146.424 30.7678 146.36 30.6867 146.28 30.6224C146.202 30.5592 146.112 30.5142 146.014 30.4905C145.917 30.4669 145.816 30.4652 145.718 30.4856L98.3668 39.525C98.2121 39.5565 98.0731 39.6405 97.9733 39.7626C97.8734 39.8847 97.8189 40.0375 97.8189 40.1951V76.5853C97.8205 76.6865 97.8432 76.7862 97.8857 76.878C97.9281 76.9699 97.9894 77.0519 98.0655 77.1187C98.2053 77.2285 98.3812 77.2822 98.5586 77.2691V77.2691ZM145.129 66.9715L99.2023 75.7648V40.7285L145.129 31.9215V66.9715Z" fill="#D1D3D4"/>
<path d="M110.475 67.3818L133.98 62.8962C135.021 62.6721 135.958 62.1082 136.642 61.2935C137.327 60.4788 137.72 59.4597 137.76 58.397V58.397C137.777 57.927 137.684 57.4595 137.488 57.0317C137.293 56.6038 136.999 56.2276 136.632 55.9328C136.265 55.638 135.834 55.4328 135.374 55.3336C134.913 55.2343 134.436 55.2437 133.98 55.3611L110.475 59.874C109.436 60.0985 108.501 60.663 107.818 61.4779C107.136 62.2928 106.746 63.3117 106.709 64.3732C106.694 64.8403 106.788 65.3045 106.984 65.729C107.18 66.1534 107.472 66.5264 107.838 66.8184C108.204 67.1104 108.632 67.3133 109.09 67.4111C109.548 67.5089 110.022 67.4988 110.475 67.3818Z" fill="white"/>
<path d="M109.763 68.0792C110.048 68.0783 110.332 68.0508 110.612 67.9971L133.98 63.5663C135.175 63.3106 136.251 62.6627 137.035 61.726C137.82 60.7892 138.268 59.6173 138.308 58.397C138.319 57.8332 138.201 57.2743 137.964 56.7626C137.727 56.2508 137.376 55.7996 136.938 55.4431C136.488 55.0829 135.963 54.8283 135.401 54.6981C134.839 54.5679 134.255 54.5655 133.692 54.691L110.242 59.1765C109.047 59.4323 107.971 60.0801 107.186 61.0169C106.402 61.9536 105.954 63.1255 105.914 64.3458C105.902 64.8487 105.994 65.3487 106.185 65.8143C106.375 66.28 106.66 66.7013 107.022 67.0518C107.383 67.4024 107.813 67.6746 108.285 67.8514C108.757 68.0281 109.26 68.1057 109.763 68.0792V68.0792ZM134.637 55.9218C134.957 55.9076 135.276 55.9609 135.573 56.0783C135.871 56.1957 136.14 56.3744 136.364 56.6029C136.588 56.8314 136.761 57.1044 136.871 57.4041C136.982 57.7039 137.028 58.0236 137.007 58.3423C136.968 59.2436 136.634 60.1072 136.054 60.7994C135.475 61.4915 134.683 61.9738 133.802 62.1714L110.352 66.7117C109.986 66.7982 109.605 66.8014 109.237 66.7209C108.87 66.6404 108.525 66.4783 108.229 66.2467C107.956 66.0128 107.739 65.7205 107.594 65.3914C107.449 65.0623 107.381 64.705 107.393 64.3458C107.432 63.4427 107.769 62.5777 108.351 61.8853C108.933 61.1928 109.728 60.7117 110.612 60.5167L133.98 56.0312C134.196 55.9884 134.417 55.9701 134.637 55.9765V55.9218Z" fill="#D1D3D4"/>
<path d="M100.736 165.092H100.86L119.556 161.509C119.645 161.495 119.729 161.462 119.805 161.414C119.88 161.366 119.945 161.302 119.995 161.228C120.045 161.154 120.079 161.07 120.096 160.982C120.112 160.894 120.11 160.804 120.091 160.716C120.057 160.539 119.955 160.382 119.806 160.279C119.657 160.177 119.474 160.137 119.296 160.169L100.613 163.807C100.432 163.823 100.264 163.911 100.147 164.051C100.03 164.19 99.9736 164.371 99.9899 164.552C100.006 164.734 100.094 164.901 100.234 165.018C100.374 165.134 100.555 165.191 100.736 165.174V165.092Z" fill="#D1D3D4"/>
<path d="M100.736 172.313H100.86L119.556 168.73C119.645 168.716 119.729 168.683 119.805 168.635C119.88 168.586 119.945 168.523 119.995 168.449C120.045 168.374 120.079 168.291 120.096 168.203C120.112 168.115 120.11 168.024 120.091 167.937C120.057 167.76 119.955 167.603 119.806 167.5C119.657 167.398 119.474 167.358 119.296 167.39L100.613 170.973C100.432 170.989 100.264 171.077 100.147 171.217C100.03 171.356 99.9736 171.537 99.9899 171.718C100.006 171.9 100.094 172.067 100.234 172.184C100.374 172.3 100.555 172.357 100.736 172.34V172.313Z" fill="#D1D3D4"/>
<path d="M100.736 179.534H100.86L119.556 175.951C119.645 175.936 119.729 175.904 119.805 175.855C119.88 175.807 119.945 175.744 119.995 175.669C120.045 175.595 120.079 175.511 120.096 175.423C120.112 175.335 120.11 175.245 120.091 175.157C120.057 174.98 119.955 174.823 119.806 174.72C119.657 174.618 119.474 174.578 119.296 174.61L100.613 178.193C100.432 178.21 100.264 178.297 100.147 178.437C100.03 178.577 99.9736 178.757 99.9899 178.939C100.006 179.12 100.094 179.287 100.234 179.404C100.374 179.521 100.555 179.577 100.736 179.561V179.534Z" fill="#D1D3D4"/>
<path d="M110.147 45.7063H110.284L134.391 41.084C134.479 41.0695 134.564 41.037 134.639 40.9886C134.715 40.9402 134.78 40.8769 134.83 40.8026C134.88 40.7283 134.914 40.6446 134.93 40.5566C134.947 40.4686 134.945 40.3782 134.925 40.2909C134.892 40.1135 134.79 39.9564 134.641 39.8539C134.492 39.7514 134.309 39.7119 134.131 39.7438L110.023 44.3661C109.846 44.3994 109.688 44.5014 109.586 44.65C109.483 44.7986 109.444 44.9817 109.476 45.1593C109.509 45.3126 109.594 45.45 109.716 45.5492C109.838 45.6485 109.99 45.7038 110.147 45.7063V45.7063Z" fill="#D1D3D4"/>
<path d="M158.772 228.081L195.11 221.12V183.677L158.772 190.638V228.081Z" fill="white"/>
<path d="M158.772 228.765H158.909L195.234 221.804C195.391 221.776 195.533 221.693 195.636 221.57C195.738 221.448 195.795 221.294 195.795 221.134V183.677C195.796 183.578 195.773 183.48 195.731 183.39C195.688 183.3 195.626 183.221 195.549 183.158C195.473 183.091 195.383 183.043 195.286 183.017C195.188 182.991 195.086 182.988 194.987 183.007L158.635 189.968C158.478 189.997 158.335 190.079 158.233 190.202C158.13 190.324 158.074 190.478 158.073 190.638V228.081C158.073 228.263 158.145 228.437 158.274 228.565C158.402 228.693 158.576 228.765 158.758 228.765H158.772ZM194.385 220.56L159.416 227.261V191.158L194.385 184.457V220.56Z" fill="#D1D3D4"/>
<path d="M164.936 200.047H165.059L189.084 195.452C189.172 195.434 189.256 195.399 189.33 195.348C189.405 195.298 189.469 195.234 189.518 195.159C189.568 195.084 189.602 195 189.619 194.912C189.636 194.824 189.636 194.733 189.618 194.645C189.602 194.557 189.568 194.474 189.519 194.4C189.47 194.325 189.407 194.262 189.333 194.212C189.259 194.162 189.176 194.128 189.088 194.111C189.001 194.093 188.911 194.094 188.824 194.112L164.812 198.706C164.635 198.74 164.477 198.842 164.375 198.99C164.272 199.139 164.232 199.322 164.264 199.5C164.298 199.653 164.383 199.79 164.505 199.89C164.627 199.989 164.778 200.044 164.936 200.047V200.047Z" fill="#D1D3D4"/>
<path d="M164.936 208.936H165.059L189.084 204.341C189.172 204.323 189.256 204.288 189.33 204.237C189.405 204.187 189.469 204.123 189.518 204.048C189.568 203.973 189.602 203.889 189.619 203.801C189.636 203.712 189.636 203.622 189.618 203.534C189.602 203.446 189.568 203.363 189.519 203.289C189.47 203.214 189.407 203.15 189.333 203.101C189.259 203.051 189.176 203.017 189.088 203C189.001 202.982 188.911 202.983 188.824 203L164.812 207.568C164.635 207.601 164.477 207.703 164.375 207.852C164.272 208 164.232 208.184 164.264 208.361C164.293 208.52 164.375 208.663 164.497 208.768C164.62 208.873 164.775 208.932 164.936 208.936Z" fill="#D1D3D4"/>
<path d="M171.976 216.334H172.099L189.083 213.038C189.265 213.004 189.426 212.899 189.53 212.746C189.634 212.593 189.673 212.406 189.638 212.225C189.604 212.043 189.498 211.883 189.346 211.779C189.193 211.675 189.005 211.636 188.823 211.671L171.839 214.925C171.75 214.942 171.665 214.976 171.589 215.025C171.514 215.075 171.449 215.14 171.399 215.215C171.349 215.29 171.315 215.375 171.299 215.464C171.283 215.553 171.284 215.644 171.304 215.732C171.321 215.898 171.4 216.051 171.524 216.162C171.648 216.274 171.809 216.335 171.976 216.334V216.334Z" fill="#D1D3D4"/>
<path d="M216.656 162.439H216.793L243.147 157.393C243.325 157.357 243.483 157.252 243.585 157.101C243.688 156.95 243.727 156.766 243.695 156.586C243.677 156.498 243.641 156.415 243.591 156.34C243.541 156.266 243.476 156.202 243.401 156.152C243.326 156.103 243.242 156.069 243.154 156.052C243.065 156.034 242.975 156.035 242.886 156.053L216.533 161.072C216.355 161.105 216.198 161.207 216.095 161.356C215.993 161.504 215.953 161.687 215.985 161.865C216.013 162.023 216.096 162.167 216.218 162.272C216.34 162.376 216.495 162.436 216.656 162.439V162.439Z" fill="#D1D3D4"/>
<path d="M216.656 171.643H216.793L243.147 166.542C243.325 166.509 243.482 166.407 243.584 166.258C243.687 166.11 243.727 165.927 243.695 165.749C243.658 165.57 243.553 165.413 243.402 165.311C243.251 165.209 243.066 165.17 242.887 165.202L216.533 170.248C216.355 170.281 216.198 170.383 216.095 170.532C215.993 170.681 215.953 170.864 215.985 171.041C216.008 171.205 216.088 171.355 216.21 171.465C216.333 171.575 216.491 171.638 216.656 171.643Z" fill="#D1D3D4"/>
<path d="M216.656 180.833H216.793L243.147 175.787C243.325 175.753 243.482 175.651 243.584 175.503C243.687 175.354 243.727 175.171 243.695 174.993C243.658 174.815 243.553 174.658 243.402 174.555C243.251 174.453 243.066 174.414 242.887 174.446L216.533 179.493C216.354 179.529 216.197 179.634 216.095 179.785C215.992 179.935 215.953 180.12 215.985 180.299C216.02 180.451 216.105 180.587 216.227 180.684C216.349 180.781 216.5 180.833 216.656 180.833Z" fill="#D1D3D4"/>
<path d="M216.656 190.036H216.793L243.147 184.99C243.237 184.973 243.323 184.938 243.399 184.888C243.476 184.838 243.542 184.774 243.593 184.698C243.645 184.622 243.681 184.537 243.699 184.448C243.718 184.358 243.719 184.266 243.702 184.176C243.685 184.087 243.65 184.001 243.6 183.925C243.549 183.848 243.485 183.782 243.409 183.731C243.333 183.68 243.248 183.644 243.159 183.625C243.069 183.606 242.977 183.606 242.887 183.623L216.533 188.682C216.355 188.716 216.198 188.818 216.096 188.966C215.993 189.115 215.953 189.298 215.985 189.476C216.016 189.631 216.1 189.772 216.222 189.874C216.344 189.976 216.497 190.033 216.656 190.036Z" fill="#D1D3D4"/>
<path d="M216.656 199.226H216.793L243.147 194.166C243.237 194.149 243.323 194.115 243.399 194.064C243.476 194.014 243.542 193.95 243.593 193.874C243.645 193.798 243.681 193.714 243.699 193.624C243.718 193.535 243.719 193.442 243.702 193.352C243.685 193.263 243.65 193.177 243.6 193.101C243.549 193.024 243.485 192.958 243.409 192.907C243.333 192.856 243.248 192.82 243.159 192.801C243.069 192.782 242.977 192.782 242.887 192.799L216.533 197.845C216.355 197.878 216.198 197.98 216.096 198.129C215.993 198.277 215.953 198.46 215.985 198.638C216.011 198.799 216.092 198.946 216.214 199.053C216.337 199.16 216.493 199.222 216.656 199.226V199.226Z" fill="#D1D3D4"/>
<path d="M226.765 206.488H226.888L243.147 203.37C243.325 203.337 243.482 203.234 243.584 203.086C243.687 202.937 243.727 202.754 243.695 202.577C243.658 202.398 243.553 202.241 243.402 202.139C243.251 202.037 243.066 201.997 242.887 202.03L226.642 205.148C226.46 205.164 226.292 205.252 226.175 205.391C226.059 205.531 226.002 205.712 226.018 205.893C226.035 206.074 226.123 206.242 226.263 206.358C226.403 206.475 226.583 206.531 226.765 206.515V206.488Z" fill="#D1D3D4"/>
<path d="M164.935 32.0583H165.059L180.55 29.0634C180.728 29.0301 180.885 28.9281 180.988 28.7795C181.09 28.6309 181.13 28.4478 181.098 28.2702C181.062 28.0917 180.957 27.9345 180.806 27.8323C180.655 27.7301 180.469 27.6909 180.29 27.7232L164.771 30.7044C164.593 30.7377 164.436 30.8397 164.333 30.9883C164.231 31.1369 164.191 31.3199 164.223 31.4976C164.256 31.6604 164.345 31.8063 164.476 31.909C164.606 32.0118 164.769 32.0647 164.935 32.0583V32.0583Z" fill="#D1D3D4"/>
<path d="M164.935 37.8429H165.059L180.55 34.8617C180.64 34.8446 180.726 34.8101 180.802 34.7599C180.879 34.7098 180.945 34.6451 180.996 34.5696C181.048 34.494 181.084 34.4091 181.103 34.3196C181.121 34.2301 181.122 34.1378 181.105 34.048C181.088 33.9582 181.053 33.8727 181.003 33.7962C180.953 33.7198 180.888 33.654 180.812 33.6026C180.737 33.5511 180.652 33.5151 180.562 33.4965C180.472 33.4779 180.38 33.4771 180.29 33.4942L164.771 36.4754C164.593 36.5086 164.436 36.6107 164.333 36.7593C164.231 36.9079 164.191 37.0909 164.223 37.2686C164.253 37.4339 164.341 37.583 164.472 37.6885C164.603 37.794 164.767 37.8488 164.935 37.8429V37.8429Z" fill="#D1D3D4"/>
<path d="M103.846 228.724C104.026 226.14 103.476 223.558 102.257 221.271C101.257 219.616 99.7231 218.29 98.9013 216.539C97.5316 213.517 98.4904 209.948 98.1479 206.624C97.8624 203.833 96.6301 201.223 94.6551 199.226C92.9156 197.462 90.6693 196.259 89.0119 194.426C86.2724 191.417 85.4917 187.178 83.9439 183.486C81.7328 178.17 77.8982 173.685 72.9861 170.672C75.9721 176.648 69.192 184.238 72.2601 190.173C73.2326 192.046 75.0955 193.414 75.8077 195.411C77.5336 200.224 71.7807 205.435 73.6299 210.194C74.5476 212.573 77.0953 213.954 78.2869 216.211C79.8895 219.261 78.6293 222.953 78.7526 226.399C78.9444 231.131 81.8345 235.384 85.2588 238.707C87.4093 240.745 89.7789 242.522 92.1074 244.369C94.8469 246.57 96.0385 248.895 98.4766 245.353C101.843 240.447 103.708 234.669 103.846 228.724V228.724Z" fill="#298F55"/>
<path d="M106.928 231.432C106.038 227.767 105.408 223.787 106.928 220.327C108.626 216.416 112.845 213.64 113.352 209.387C113.667 206.652 112.256 203.808 112.804 201.059C113.352 198.31 115.612 196.45 117.461 194.44C121.715 189.767 124.242 183.785 124.625 177.482C127.491 180.858 129.802 184.666 131.473 188.765C132.925 192.867 132.966 197.831 130.487 201.483C129.767 202.33 129.185 203.286 128.761 204.314C127.912 207.049 130.241 209.538 131.432 212.095C132.144 213.561 132.44 215.193 132.291 216.815C132.141 218.437 131.551 219.987 130.583 221.298C128.159 224.321 123.474 225.497 122.283 229.175C121.98 230.549 121.842 231.954 121.872 233.36C121.613 235.795 120.633 238.097 119.057 239.973C117.481 241.849 115.38 243.213 113.023 243.89C110.147 244.588 110.202 243.452 109.695 241.032C108.955 237.805 107.709 234.673 106.928 231.432Z" fill="#298F55"/>
<path d="M97.7917 205.052C95.7509 197.995 94.9291 190.638 92.7786 183.623C90.9301 178.135 88.6776 172.792 86.0395 167.636L94.8058 171.328C97.6137 172.504 100.641 173.899 101.969 176.634C104.284 181.407 100.134 187.575 102.558 192.238C103.608 193.768 104.766 195.221 106.024 196.587C108.599 200.211 108.215 205.175 106.791 209.387C106.188 211.192 103.531 220.546 101.161 217.948C100.216 216.908 100.134 213.025 99.7916 211.602C99.1752 209.401 98.367 207.24 97.7917 205.052Z" fill="#298F55"/>
<path d="M102.572 298.701C100.832 287.172 95.3535 246.57 95.2987 246.16L96.8054 245.955C96.8054 246.365 102.284 286.981 104.065 298.468L102.572 298.701Z" fill="#376856"/>
<path d="M104.626 309.586H103.106C103.216 295.911 108.927 243.616 112.215 240.02L113.338 241.045C111.16 243.411 104.763 290.838 104.626 309.586Z" fill="#376856"/>
<path d="M107.599 306.975L106.079 306.906C107.448 277.408 101.12 215.459 101.065 214.844L102.572 214.693C102.627 215.309 108.914 277.313 107.599 306.975Z" fill="#376856"/>
<path d="M87.5734 270.926H120.173L117.885 303.884C117.679 306.625 116.447 309.187 114.434 311.062C112.422 312.937 109.776 313.987 107.023 314.004H100.723C97.9677 313.991 95.3186 312.942 93.3031 311.067C91.2877 309.191 90.0537 306.627 89.8471 303.884L87.5734 270.926Z" fill="#376856"/>
<path d="M100.723 314.687H107.023C109.954 314.681 112.773 313.568 114.915 311.571C117.057 309.575 118.363 306.843 118.57 303.925L120.858 270.981C120.865 270.886 120.851 270.79 120.818 270.7C120.785 270.611 120.733 270.529 120.666 270.461C120.604 270.392 120.528 270.337 120.443 270.299C120.358 270.261 120.266 270.242 120.173 270.242H87.5733C87.4786 270.242 87.3848 270.261 87.2979 270.299C87.2111 270.337 87.133 270.392 87.0686 270.462C87.0043 270.531 86.955 270.613 86.924 270.702C86.893 270.792 86.8809 270.887 86.8885 270.981L89.1622 303.925C89.3731 306.844 90.6819 309.576 92.826 311.572C94.9702 313.568 97.791 314.681 100.723 314.687V314.687ZM119.433 271.61L117.2 303.829C117.017 306.402 115.866 308.81 113.979 310.57C112.091 312.33 109.606 313.313 107.023 313.32H100.723C98.1383 313.313 95.652 312.331 93.7621 310.571C91.8723 308.811 90.7185 306.403 90.5319 303.829L88.2993 271.61H119.433Z" fill="#376856"/>
<path d="M312.044 110.186C312.044 110.186 275.815 118.473 269.103 117.133C260.09 115.328 251.077 109.269 243.078 104.975C234.75 100.49 226.642 95.7171 218.327 91.0949C213.451 88.3598 208.493 85.7204 203.575 83.0264C203.066 82.7112 202.505 82.489 201.918 82.37C201.428 82.3295 200.935 82.3853 200.466 82.5341C199.802 82.7056 199.187 83.03 198.671 83.4812C198.155 83.9323 197.752 84.4978 197.494 85.1324C196.754 87.3068 198.864 89.235 200.329 90.6025C204.612 94.5775 209.022 98.4249 213.561 102.145L205.808 101.502C205.617 101.44 205.41 101.44 205.219 101.502C204.685 101.775 204.945 102.582 205.315 103.033C206.753 104.519 208.529 105.636 210.492 106.288C216.684 108.846 221.656 110.487 226.929 114.398C231.641 117.844 236.435 121.235 241.339 124.34C248.927 129.222 261.186 138.439 270.897 136.812L316.098 129.208" fill="white"/>
<path d="M268.692 137.687C269.527 137.688 270.361 137.619 271.185 137.482L316.386 129.892L316.153 128.524L270.952 136.114C262.665 137.482 252.351 130.644 244.818 125.68L241.886 123.752C237.312 120.825 232.613 117.584 227.504 113.837C223.302 110.913 218.722 108.572 213.889 106.876L210.849 105.646C208.994 105.027 207.313 103.977 205.945 102.582C205.818 102.434 205.733 102.255 205.698 102.063C205.698 102.063 205.808 102.063 205.849 102.063L213.602 102.719C213.749 102.734 213.897 102.701 214.024 102.624C214.151 102.548 214.25 102.432 214.305 102.295C214.361 102.158 214.371 102.006 214.333 101.863C214.295 101.72 214.211 101.594 214.095 101.502C209.588 97.8232 205.151 93.9394 200.891 89.9872L200.754 89.8641C199.452 88.647 197.658 86.9923 198.247 85.2966C198.467 84.7639 198.811 84.2907 199.248 83.9153C199.686 83.5399 200.207 83.2728 200.767 83.1359C201.135 83.0022 201.529 82.9554 201.918 82.9991C202.402 83.1159 202.865 83.3099 203.288 83.5735L207.986 86.1308C211.355 87.9496 214.711 89.7684 218.04 91.6009L226.368 96.3189C231.723 99.3685 237.325 102.528 242.804 105.495C244.516 106.425 246.27 107.423 248.078 108.449C254.817 112.305 261.775 116.285 268.98 117.721C275.746 119.088 310.729 111.116 312.208 110.774C312.39 110.734 312.548 110.624 312.648 110.467C312.748 110.311 312.782 110.121 312.742 109.94C312.702 109.758 312.592 109.6 312.435 109.5C312.278 109.4 312.088 109.366 311.907 109.406C311.537 109.488 275.76 117.611 269.24 116.353C262.295 114.986 255.406 111.034 248.694 107.232C246.886 106.206 245.119 105.194 243.407 104.264C237.928 101.297 232.353 98.1514 226.97 95.1018L218.642 90.3838C215.3 88.5604 211.944 86.737 208.575 84.9136L203.877 82.37C203.295 82.0045 202.649 81.7538 201.973 81.6316C201.391 81.5675 200.803 81.6281 200.247 81.8093C199.476 82.0085 198.764 82.3876 198.168 82.9154C197.573 83.4432 197.112 84.1046 196.823 84.8453C195.96 87.3752 198.192 89.4676 199.699 90.8488L199.836 90.9718C203.575 94.4591 207.465 97.8095 211.424 101.16L205.835 100.695C205.509 100.639 205.174 100.687 204.877 100.832C204.71 100.913 204.565 101.032 204.453 101.179C204.341 101.326 204.266 101.498 204.233 101.68C204.198 101.988 204.227 102.301 204.319 102.597C204.411 102.894 204.563 103.168 204.767 103.403C206.285 104.98 208.165 106.163 210.246 106.849L213.3 108.093C218.023 109.771 222.501 112.071 226.614 114.931C231.737 118.692 236.462 121.96 241.051 124.914C241.969 125.489 242.941 126.145 243.982 126.829C251.077 131.478 260.433 137.687 268.692 137.687Z" fill="#231F20"/>
<path d="M393.46 130.247C414.294 145.372 417.006 176.881 417.567 200.553C418.115 222.816 413.13 244.04 408.486 265.757C403.939 286.995 390.967 292.479 370.367 297.21C339.795 304.294 303.031 302.68 271.966 299.221C240.901 295.761 238.997 273.771 242.133 248.731C242.996 241.893 247.872 237.476 253.091 233.688C259.622 229.333 265.319 223.844 269.911 217.483C284.636 196.081 285.512 170.781 295.347 147.574C303.127 129.208 320.481 116.408 340.548 117.064C360.614 117.721 379.64 120.21 393.46 130.247Z" fill="white"/>
<path d="M320.605 302.899C339.658 302.899 356.217 301.244 370.531 297.921C389.474 293.532 404.336 288.349 409.157 265.894L410.143 261.326C414.568 240.745 418.759 221.312 418.252 200.539C417.102 152.607 404.555 137.495 393.871 129.7C379.229 119.075 358.71 117.051 340.575 116.463C320.961 115.82 303.004 127.964 294.772 147.396C291.193 156.452 288.268 165.753 286.019 175.226C282.252 189.476 278.362 204.218 269.446 217.182C265.501 222.912 260.515 227.712 252.79 233.209C247.448 237.011 242.38 241.51 241.489 248.69C239.764 262.529 239.092 278.078 247.229 288.349C252.392 294.885 260.46 298.673 271.884 299.932C288.057 301.809 304.322 302.799 320.605 302.899V302.899ZM393.46 130.247L393.063 130.808C413.034 145.304 416.348 175.704 416.882 200.553C417.389 221.175 413.212 240.526 408.801 261.025L407.815 265.606C403.555 285.531 392.296 291.467 370.216 296.581C344.972 302.421 312.852 303.077 272.034 298.578C260.953 297.347 253.187 293.737 248.256 287.514C240.435 277.613 241.106 262.406 242.777 248.84C243.613 242.194 248.434 237.9 253.516 234.303C261.392 228.71 266.473 223.814 270.514 217.893C279.554 204.737 283.485 189.886 287.266 175.499C289.52 166.087 292.441 156.847 296.004 147.848C304.017 128.948 321.44 117.105 340.493 117.762C358.436 118.336 378.695 120.333 393.036 130.74L393.46 130.247Z" fill="#231F20"/>
<path d="M338.876 247.76C342.584 247.754 346.288 247.539 349.971 247.117V247.117C357.046 246.318 364.021 244.806 370.791 242.604C380.037 239.609 386.241 236.204 390.912 231.555C398.007 224.471 400.706 214.925 401.733 208.156C404.103 192.525 401.733 175.253 400.007 166.364C398.891 160.258 396.446 154.47 392.843 149.411C389.241 144.352 384.57 140.144 379.16 137.085C371.668 132.723 362.723 129.919 351.861 128.497C340.452 127.006 332.233 128.223 326.001 132.34C315.838 139.041 312.948 151.923 310.852 164.545L307.304 185.975C306.441 191.294 305.236 198.597 301.045 202.043C299.568 203.16 297.974 204.113 296.292 204.888C293.361 206.378 290.333 207.91 288.635 211.26C286.526 215.363 285.635 222.392 287.799 226.946C290.183 231.979 295.059 235.288 298.524 237.339C310.788 244.382 324.731 247.983 338.876 247.76ZM343.26 129.263C346.091 129.277 348.918 129.473 351.724 129.851C362.422 131.218 371.188 133.953 378.516 138.261C383.744 141.232 388.256 145.309 391.737 150.206C395.218 155.104 397.583 160.703 398.665 166.61C400.308 175.431 402.774 192.511 400.377 207.951C399.391 214.515 396.775 223.76 389.94 230.584C385.433 235.069 379.407 238.379 370.366 241.305C363.687 243.482 356.803 244.976 349.821 245.763V245.763C330.932 247.897 313.454 244.56 299.264 236.191C295.963 234.235 291.306 231.076 289.073 226.385C287.087 222.214 287.936 215.76 289.895 211.917C291.402 208.963 294.1 207.595 296.949 206.132C298.72 205.314 300.397 204.305 301.949 203.124C306.551 199.349 307.797 191.759 308.701 186.221L312.249 164.805C314.29 152.497 317.098 139.902 326.795 133.502C331.096 130.644 336.438 129.263 343.26 129.263V129.263Z" fill="#D1D3D4"/>
<path d="M390.118 226.016C390.253 226.016 390.385 225.975 390.497 225.9C390.609 225.824 390.696 225.717 390.748 225.592C390.783 225.51 390.802 225.421 390.803 225.331C390.803 225.242 390.786 225.153 390.751 225.07C390.717 224.987 390.666 224.912 390.602 224.849C390.538 224.786 390.462 224.736 390.378 224.703C381.434 221.011 375.475 221.873 375.229 221.968C375.047 221.996 374.884 222.094 374.775 222.241C374.665 222.389 374.619 222.573 374.647 222.755C374.674 222.936 374.772 223.099 374.92 223.208C375.068 223.317 375.253 223.363 375.434 223.336C375.434 223.336 381.297 222.502 389.857 226.071C389.947 226.073 390.036 226.054 390.118 226.016V226.016Z" fill="#D1D3D4"/>
<path d="M260.378 272.731C260.378 272.731 253.529 307.918 251.653 309.778C249.776 311.638 220.149 310.284 220.56 307.043C220.971 303.802 236.49 299.193 236.49 299.193L241.243 270.188" fill="white"/>
<path d="M243.558 311.337C247.941 311.337 251.42 311.009 252.173 310.256C254.091 308.356 259.926 278.803 261.076 272.868C261.094 272.779 261.094 272.687 261.076 272.598C261.058 272.51 261.023 272.425 260.972 272.35C260.921 272.275 260.855 272.211 260.779 272.161C260.703 272.111 260.618 272.077 260.529 272.061C260.353 272.029 260.171 272.067 260.023 272.166C259.874 272.266 259.771 272.42 259.734 272.594C257.118 286.01 252.502 307.836 251.201 309.299C249.749 310.421 231.929 310.147 223.93 308.123C221.519 307.508 221.272 307.002 221.19 307.002C221.396 305.279 229.203 302.01 236.627 299.877C236.752 299.841 236.864 299.77 236.952 299.674C237.039 299.577 237.097 299.458 237.12 299.33L241.887 270.311C241.916 270.129 241.871 269.944 241.764 269.795C241.656 269.646 241.493 269.547 241.311 269.517C241.13 269.488 240.944 269.533 240.795 269.64C240.646 269.748 240.546 269.911 240.517 270.092L235.819 298.673C231.71 299.891 220.204 303.542 219.82 306.879C219.747 307.581 220.204 308.169 221.19 308.643C224.573 310.256 235.559 311.337 243.558 311.337Z" fill="#231F20"/>
<path d="M323.289 288.253C323.289 288.253 327.604 319.802 325.371 320.704C323.138 321.607 292.84 323.057 293.319 320.404C293.799 317.751 308.756 312.677 308.756 312.677L303.346 281.907" fill="white"/>
<path d="M305.305 322.564C314.003 322.564 324.276 321.826 325.632 321.279C327.878 320.363 325.974 302.721 323.974 288.089C323.949 287.907 323.852 287.744 323.706 287.633C323.559 287.523 323.375 287.475 323.193 287.501C323.012 287.526 322.848 287.622 322.737 287.769C322.627 287.915 322.579 288.099 322.605 288.28C324.563 302.639 325.988 318.366 325.015 320.034C319.84 320.739 314.624 321.1 309.4 321.115C298.826 321.361 294.868 320.746 294.046 320.281C294.827 318.79 302.264 315.535 308.962 313.265C309.121 313.214 309.255 313.107 309.339 312.963C309.422 312.818 309.449 312.648 309.414 312.486L303.935 281.73C303.904 281.548 303.803 281.387 303.652 281.28C303.502 281.174 303.316 281.131 303.134 281.162C302.952 281.193 302.79 281.295 302.684 281.445C302.577 281.595 302.535 281.781 302.565 281.962L307.935 312.157C303.826 313.525 293.073 317.504 292.594 320.212C292.561 320.411 292.585 320.615 292.663 320.801C292.74 320.987 292.868 321.148 293.032 321.265C294.238 322.223 299.429 322.564 305.305 322.564Z" fill="#231F20"/>
<path d="M287.471 218.29C277.184 216.758 259.132 281.839 259.132 281.839L238.476 279.446C238.476 279.446 242.215 220.546 246.16 204.108C248.9 192.785 261.227 187.246 273.705 190.925C292.361 190.187 311.523 187.821 311.523 187.821L287.471 218.29Z" fill="#231F20"/>
<path d="M259.131 282.523C259.28 282.525 259.425 282.478 259.544 282.389C259.663 282.3 259.749 282.174 259.789 282.03C259.789 281.866 264.364 265.62 270.089 249.716C280.006 222.201 285.156 218.645 287.361 218.973C287.482 218.991 287.605 218.977 287.719 218.931C287.832 218.885 287.931 218.81 288.005 218.713L312.044 188.245C312.131 188.139 312.184 188.009 312.196 187.872C312.208 187.736 312.179 187.599 312.112 187.479C312.047 187.359 311.946 187.262 311.823 187.201C311.701 187.14 311.563 187.117 311.427 187.137C311.236 187.137 292.142 189.503 273.774 190.241C270.579 189.237 267.214 188.884 263.88 189.204C260.546 189.523 257.31 190.509 254.365 192.101C252.15 193.363 250.218 195.065 248.689 197.102C247.16 199.139 246.066 201.468 245.475 203.944C241.571 220.245 237.818 278.803 237.777 279.405C237.766 279.578 237.822 279.749 237.935 279.882C238.047 280.015 238.207 280.099 238.38 280.116L259.035 282.523H259.131ZM287.142 217.578C276.801 217.578 261.117 272.28 258.625 281.101L239.202 278.844C239.627 272.362 243.16 219.534 246.818 204.259C247.358 201.968 248.367 199.813 249.781 197.931C251.195 196.048 252.985 194.478 255.036 193.318C257.839 191.813 260.918 190.887 264.088 190.595C267.258 190.304 270.454 190.653 273.486 191.623H273.705C289.032 191.021 304.894 189.284 309.934 188.71L287.128 217.592L287.142 217.578Z" fill="#231F20"/>
<path d="M335.63 105.29C335.63 105.29 367.586 103.567 373.298 111.553C379.461 120.169 379.009 123.519 387.351 143.403C384.612 170.891 368.271 209.264 368.271 209.264L299.415 195.069C299.415 195.069 302.086 120.976 308.14 110.692C314.194 100.408 335.63 105.29 335.63 105.29Z" fill="#33BC84"/>
<path d="M346.903 110.897L327.603 211.821L307.838 211.438L322.33 112.018L346.903 110.897Z" fill="#231F20"/>
<path d="M327.604 212.505C327.763 212.504 327.918 212.448 328.041 212.346C328.163 212.243 328.246 212.101 328.275 211.944L347.574 111.02C347.595 110.919 347.592 110.815 347.566 110.715C347.54 110.616 347.491 110.523 347.423 110.446C347.358 110.366 347.273 110.303 347.178 110.262C347.083 110.222 346.979 110.205 346.876 110.213L322.221 111.334C322.062 111.342 321.91 111.406 321.793 111.513C321.675 111.62 321.599 111.765 321.577 111.922L307.099 211.342C307.085 211.438 307.092 211.535 307.119 211.627C307.145 211.72 307.191 211.805 307.253 211.879C307.315 211.953 307.392 212.012 307.479 212.054C307.565 212.096 307.66 212.119 307.756 212.122L327.521 212.505H327.604ZM346.067 111.608L327.042 211.124L308.633 210.768L322.919 112.675L346.067 111.608Z" fill="#231F20"/>
<path d="M360.285 197.995C360.285 197.995 378.571 217.291 365.901 232.608C353.231 247.924 317.111 231.815 317.111 231.815L326.124 291.726L299.661 291.453C299.661 291.453 272.075 209.893 275.253 201.455C278.43 193.018 301.031 189.147 301.031 189.147L360.285 197.995Z" fill="#231F20"/>
<path d="M326.124 292.424C326.223 292.423 326.319 292.402 326.409 292.362C326.499 292.322 326.579 292.264 326.645 292.191C326.707 292.113 326.752 292.023 326.778 291.926C326.804 291.83 326.81 291.729 326.796 291.631L317.961 232.936C323.993 235.399 330.237 237.308 336.617 238.639C350.766 241.442 361.08 239.514 366.422 233.059C379.338 217.455 360.943 197.736 360.792 197.503C360.684 197.395 360.545 197.324 360.395 197.298L301.086 188.423H300.867C299.935 188.587 277.855 192.525 274.568 201.182C271.281 209.838 297.853 288.308 298.977 291.644C299.02 291.78 299.106 291.899 299.222 291.982C299.338 292.066 299.477 292.11 299.62 292.109L326.07 292.383L326.124 292.424ZM317.112 231.145C316.959 231.141 316.809 231.19 316.687 231.281C316.592 231.357 316.519 231.456 316.473 231.569C316.428 231.681 316.412 231.804 316.427 231.924L325.33 290.988L300.155 290.728C290.566 262.461 273.459 208.115 275.897 201.647C278.787 193.961 299.36 190.077 301.031 189.776L359.929 198.597C361.669 200.525 376.873 218.208 365.408 232.129C353.218 246.858 317.783 231.309 317.468 231.145C317.352 231.11 317.228 231.11 317.112 231.145Z" fill="#231F20"/>
<path d="M353.396 42.1643C357.806 39.8676 362.838 39.0414 367.752 39.8068C372.667 40.5721 377.208 42.8888 380.708 46.4174C385.954 51.8875 388.063 60.3389 385.269 67.3407C383.775 70.8074 381.223 73.7144 377.976 75.6471C374.729 77.5798 370.954 78.4394 367.189 78.1033C359.902 77.5015 353.094 70.2946 349.999 64.1133C346.287 56.6466 344.397 46.7319 353.396 42.1643Z" fill="white"/>
<path d="M368.695 78.8417C372.358 78.8846 375.951 77.8387 379.017 75.837C382.083 73.8352 384.483 70.9682 385.913 67.6006C387.227 63.9101 387.482 59.9266 386.649 56.0991C385.817 52.2716 383.93 48.7526 381.201 45.9387C377.61 42.3026 372.944 39.9145 367.891 39.1266C362.838 38.3387 357.665 39.1927 353.135 41.5626C349.505 43.3951 341.876 49.3166 349.437 64.4142C352.683 70.8963 359.614 78.1579 367.243 78.7733C367.654 78.8144 368.202 78.8417 368.695 78.8417ZM364.312 40.2088C367.277 40.1981 370.214 40.7849 372.946 41.9339C375.679 43.083 378.151 44.7707 380.215 46.896C382.765 49.5164 384.53 52.7962 385.312 56.3654C386.094 59.9345 385.861 63.6507 384.639 67.0946C383.204 70.43 380.748 73.2259 377.623 75.0808C374.497 76.9358 370.864 77.7545 367.243 77.4195C360.518 76.8725 353.779 70.1579 350.601 63.7441C348.273 59.0808 343.903 47.6892 353.697 42.725C356.988 41.0661 360.625 40.2041 364.312 40.2088V40.2088Z" fill="#231F20"/>
<path d="M366.367 56.0859C368.667 58.727 370.252 61.9116 370.972 65.337C371.691 68.7623 371.52 72.3144 370.476 75.6554C370.003 77.5219 368.888 79.1629 367.326 80.2914C364.23 82.1786 360.19 80.2914 357.45 77.9118C353.054 73.8862 349.654 68.8957 347.52 63.3339C345.903 59.409 343.835 50.7525 349.78 49.4807C355.724 48.2089 362.724 51.956 366.367 56.0859Z" fill="#231F20"/>
<path d="M364.504 81.7546C365.629 81.7689 366.735 81.4655 367.695 80.8794C369.416 79.685 370.643 77.9058 371.147 75.8742C372.221 72.4138 372.389 68.7361 371.633 65.1927C370.878 61.6492 369.225 58.3583 366.832 55.6347V55.6347C363.011 51.3543 355.669 47.5115 349.615 48.797C348.835 48.9441 348.099 49.267 347.463 49.7409C346.827 50.2149 346.307 50.8275 345.944 51.532C343.725 55.7441 346.533 62.8279 346.862 63.6211C349.03 69.2842 352.491 74.3646 356.97 78.4589C359.029 80.3861 361.689 81.5495 364.504 81.7546ZM352.176 49.9457C357.107 49.9457 362.764 53.05 365.873 56.5646C368.104 59.107 369.644 62.1789 370.344 65.4858C371.044 68.7928 370.882 72.2239 369.873 75.4503C369.468 77.1717 368.45 78.6877 367.01 79.717C364.271 81.4128 360.504 79.635 357.929 77.4059C353.609 73.4592 350.278 68.5548 348.204 63.0877C347.095 60.4347 345.67 55.1287 347.232 52.1474C347.503 51.6259 347.891 51.1742 348.366 50.8278C348.842 50.4814 349.391 50.2497 349.971 50.1508C350.678 50.0028 351.399 49.9295 352.121 49.932L352.176 49.9457Z" fill="#231F20"/>
<path d="M331.22 96.9206C332.309 98.2853 333.47 99.5909 334.699 100.832C337.21 102.773 340.172 104.047 343.309 104.538C346.447 105.028 349.657 104.717 352.642 103.635C366.887 98.5617 368.641 82.9444 367.586 69.9254C367.148 64.6331 364.847 53.3919 357.121 57.8227C359.368 56.4552 351.642 50.1919 350.519 49.6175C342.123 44.8311 332.014 48.6739 325.864 55.2654C322.257 58.9765 319.07 63.0717 316.358 67.4775C313.619 72.3733 314.906 79.7854 317.235 84.5444C319.072 88.2595 321.884 91.4073 325.371 93.6522C326.987 94.6915 329.165 95.1839 330.617 96.3873C330.827 96.5547 331.028 96.7327 331.22 96.9206Z" fill="white"/>
<path d="M346.191 105.454C348.467 105.458 350.728 105.074 352.875 104.319C364.614 100.134 369.791 88.5923 368.202 69.9117C367.997 67.3955 366.997 58.9714 362.614 56.7287C361.914 56.3749 361.144 56.1815 360.359 56.1625C359.575 56.1436 358.796 56.2996 358.08 56.6193C357.327 53.8842 351.533 49.4123 350.793 48.9884C341.794 43.8601 331.261 48.3867 325.303 54.7731C321.656 58.5055 318.44 62.6339 315.714 67.0809C312.865 72.1819 314.167 79.8264 316.577 84.7906C318.467 88.6195 321.365 91.8626 324.96 94.1719C325.736 94.6354 326.546 95.0378 327.385 95.3753C328.365 95.7364 329.288 96.2386 330.124 96.8659C330.321 97.0235 330.508 97.1925 330.686 97.3719C331.138 97.8506 331.562 98.3702 332.055 98.9309C332.698 99.8085 333.438 100.611 334.261 101.324C337.643 104.03 341.857 105.489 346.191 105.454V105.454ZM360.381 57.5902C360.958 57.5832 361.528 57.7195 362.039 57.9868C365.025 59.5458 366.518 65.4809 366.901 70.0758C368.367 88.0316 363.49 99.136 352.409 103.075C349.53 104.118 346.432 104.415 343.406 103.936C340.38 103.458 337.526 102.22 335.11 100.339C334.371 99.6793 333.701 98.9462 333.11 98.1514C332.683 97.5713 332.226 97.0144 331.74 96.483V96.483C331.535 96.2779 331.316 96.0728 331.083 95.8813C330.139 95.1684 329.096 94.5971 327.987 94.1855C327.219 93.8816 326.477 93.5157 325.768 93.0915C322.381 90.9193 319.653 87.8646 317.879 84.2572C315.619 79.6076 314.372 72.4964 316.988 67.8468C319.646 63.4822 322.789 59.4314 326.357 55.7714C331.973 49.7679 341.808 45.4738 350.177 50.3012C351.327 50.9577 356.847 55.6893 356.847 57.2757H356.751C356.664 57.3151 356.586 57.3724 356.522 57.4438C356.458 57.5152 356.41 57.5992 356.381 57.6903C356.352 57.7814 356.342 57.8776 356.353 57.9728C356.363 58.0679 356.393 58.1597 356.441 58.2425C356.49 58.3252 356.555 58.3969 356.632 58.4529C356.71 58.509 356.798 58.5481 356.892 58.5679C356.986 58.5876 357.083 58.5874 357.177 58.5675C357.27 58.5475 357.359 58.508 357.436 58.4518V58.4518C358.32 57.8924 359.336 57.5763 360.381 57.5355V57.5902Z" fill="#231F20"/>
<path d="M325.275 65.7544C325.275 65.7544 318.523 76.4212 318.577 85.6657C318.523 88.2424 319.222 90.7791 320.589 92.9651C321.956 95.1511 323.932 96.8917 326.275 97.9736L322.796 113.564C322.796 113.564 320.947 121.523 331.014 122.466C333.926 122.724 336.856 122.238 339.527 121.054C342.199 119.869 344.525 118.026 346.287 115.697L353.82 87.2247C353.82 87.2247 344.15 78.3768 347.41 68.298C347.41 68.3527 332.809 71.7989 325.275 65.7544Z" fill="white"/>
<path d="M332.727 123.205C335.476 123.188 338.184 122.536 340.639 121.3C343.094 120.064 345.228 118.277 346.876 116.08C346.921 116.019 346.954 115.949 346.972 115.875L354.505 87.4436C354.538 87.3239 354.536 87.1974 354.5 87.0788C354.463 86.9603 354.394 86.8544 354.3 86.7735C354.218 86.6914 344.999 78.1033 348.081 68.5715C348.122 68.4558 348.131 68.3312 348.107 68.2109C348.082 68.0906 348.026 67.979 347.944 67.8878C347.86 67.7987 347.753 67.7339 347.635 67.7002C347.517 67.6666 347.392 67.6652 347.273 67.6963C347.136 67.6963 332.905 70.9784 325.727 65.2211C325.654 65.1602 325.568 65.1153 325.476 65.0894C325.384 65.0635 325.288 65.0571 325.193 65.0706C325.098 65.088 325.007 65.1249 324.927 65.179C324.847 65.2332 324.779 65.3034 324.727 65.3852C324.44 65.8228 317.879 76.3255 317.879 85.6794C317.846 88.2844 318.54 90.8471 319.882 93.081C321.225 95.315 323.163 97.1321 325.481 98.3292L322.111 113.372C321.697 115.503 322.145 117.711 323.358 119.512C324.837 121.564 327.385 122.767 330.932 123.109C331.562 123.177 332.151 123.205 332.727 123.205ZM345.684 115.41C343.968 117.597 341.733 119.323 339.182 120.431C336.63 121.538 333.842 121.994 331.069 121.755C327.946 121.468 325.727 120.388 324.495 118.733C323.507 117.249 323.138 115.438 323.467 113.687L326.946 98.1651C326.978 98.0042 326.953 97.8375 326.876 97.6929C326.798 97.5484 326.673 97.435 326.522 97.3719C324.303 96.355 322.433 94.71 321.142 92.6411C319.852 90.5723 319.198 88.1706 319.262 85.7341C319.262 78.0486 324.056 69.2416 325.467 66.8211C332.097 71.5117 342.931 69.9801 346.451 69.3237C344.287 78.3221 351.437 85.9666 353.053 87.553L345.684 115.41Z" fill="#231F20"/>
<path d="M348.862 84.052C348.862 84.052 356.108 74.3015 360.012 82.3426C363.915 90.3837 354.327 96.018 349.656 94.3769" fill="white"/>
<path d="M351.533 95.43C353.007 95.372 354.455 95.0203 355.791 94.3956C357.127 93.7709 358.324 92.8858 359.313 91.7923C360.538 90.531 361.331 88.9139 361.577 87.174C361.823 85.4341 361.51 83.661 360.682 82.1102C359.614 79.9221 358.203 78.7324 356.464 78.5683C352.519 78.199 348.533 83.4914 348.369 83.7102C348.315 83.782 348.275 83.8638 348.253 83.9508C348.231 84.0378 348.226 84.1283 348.238 84.2172C348.251 84.3061 348.281 84.3916 348.327 84.4688C348.373 84.5461 348.434 84.6136 348.506 84.6675C348.652 84.7728 348.834 84.8174 349.013 84.7919C349.191 84.7664 349.353 84.6728 349.464 84.5307C350.478 83.1632 353.697 79.676 356.313 79.9358C357.546 80.0452 358.6 80.9751 359.436 82.6709C360.153 83.9767 360.433 85.4769 360.236 86.9529C360.039 88.4289 359.375 89.8034 358.34 90.8761C356.08 93.365 352.313 94.6779 349.93 93.8026C349.761 93.7468 349.576 93.7592 349.416 93.837C349.256 93.9148 349.132 94.052 349.071 94.2194C349.011 94.3868 349.018 94.5712 349.091 94.7334C349.165 94.8956 349.298 95.0229 349.464 95.0881C350.129 95.3186 350.829 95.4343 351.533 95.43Z" fill="#231F20"/>
<path d="M329.289 88.2915H329.7C329.881 88.2915 330.055 88.2194 330.184 88.0912C330.312 87.963 330.384 87.7891 330.384 87.6077C330.384 87.4264 330.312 87.2524 330.184 87.1242C330.055 86.996 329.881 86.9239 329.7 86.9239C328.135 87.0362 326.572 86.6993 325.193 85.953C325.111 85.2555 328.015 82.0145 331.439 79.1153C331.508 79.0569 331.565 78.9855 331.607 78.9051C331.649 78.8248 331.674 78.737 331.682 78.6468C331.689 78.5567 331.679 78.4659 331.652 78.3797C331.624 78.2935 331.58 78.2135 331.521 78.1443C331.463 78.0752 331.391 78.0182 331.311 77.9767C331.23 77.9351 331.142 77.9098 331.052 77.9022C330.962 77.8946 330.871 77.9048 330.784 77.9323C330.698 77.9598 330.618 78.0039 330.549 78.0623C328.974 79.4298 323.865 83.9154 323.865 86.0077C323.858 86.1943 323.894 86.3799 323.97 86.5504C324.046 86.721 324.16 86.8721 324.303 86.9923C325.795 87.9182 327.533 88.3712 329.289 88.2915V88.2915Z" fill="#231F20"/>
<path d="M331.549 93.9394H331.686C334.558 93.9113 337.319 92.8253 339.438 90.8898C339.491 90.8171 339.53 90.7347 339.551 90.6472C339.572 90.5597 339.576 90.4689 339.562 90.3799C339.548 90.291 339.517 90.2057 339.469 90.1289C339.422 90.0521 339.361 89.9854 339.288 89.9325C339.217 89.8772 339.137 89.8367 339.05 89.8135C338.964 89.7904 338.874 89.785 338.785 89.7978C338.697 89.8106 338.612 89.8413 338.536 89.888C338.46 89.9346 338.394 89.9963 338.342 90.0693C336.443 91.647 334.06 92.5299 331.59 92.5719H331.494C328.289 92.5719 325.371 90.8761 322.81 87.6214C322.754 87.5504 322.685 87.4912 322.606 87.4469C322.527 87.4027 322.441 87.3744 322.351 87.3636C322.261 87.3528 322.17 87.3597 322.083 87.384C321.996 87.4083 321.915 87.4495 321.844 87.5051C321.773 87.5608 321.714 87.6299 321.669 87.7085C321.625 87.7871 321.597 87.8736 321.586 87.9631C321.575 88.0526 321.582 88.1434 321.606 88.2303C321.631 88.3171 321.672 88.3983 321.728 88.4693C324.563 92.0932 327.878 93.9394 331.549 93.9394Z" fill="#231F20"/>
<path d="M326.275 97.9463C326.275 97.9463 334.384 100.845 339.452 100.681C339.452 100.681 331.466 111.799 323.563 109.967L326.275 97.9463Z" fill="#231F20"/>
<path d="M325.371 110.869C332.891 110.869 339.699 101.529 340 101.092C340.066 100.982 340.102 100.857 340.102 100.729C340.102 100.601 340.066 100.476 340 100.367C339.933 100.259 339.841 100.171 339.73 100.109C339.62 100.046 339.496 100.013 339.37 100.011C334.507 100.148 326.535 97.2762 326.453 97.2762C326.362 97.2427 326.264 97.2291 326.167 97.2362C326.07 97.2434 325.975 97.2713 325.89 97.3179C325.804 97.3645 325.729 97.4288 325.671 97.5065C325.612 97.5842 325.571 97.6735 325.549 97.7685L322.81 109.803C322.769 109.979 322.799 110.164 322.894 110.317C322.989 110.471 323.141 110.581 323.317 110.623C323.989 110.786 324.679 110.868 325.371 110.869V110.869ZM338.055 101.297C335.945 103.868 330.152 110.158 324.358 109.379L326.741 98.7805C330.403 100.079 334.205 100.942 338.069 101.351L338.055 101.297Z" fill="#231F20"/>
<path d="M336.155 80.2865C335.485 80.0987 335.209 78.9974 335.538 77.8267C335.867 76.656 336.677 75.8591 337.347 76.0469C338.017 76.2347 338.294 77.336 337.965 78.5068C337.635 79.6775 336.825 80.4743 336.155 80.2865Z" fill="#231F20"/>
<path d="M324.995 77.1484C324.325 76.9606 324.048 75.8593 324.377 74.6885C324.707 73.5178 325.517 72.721 326.187 72.9088C326.857 73.0965 327.133 74.1978 326.804 75.3686C326.475 76.5393 325.665 77.3361 324.995 77.1484Z" fill="#231F20"/>
<path d="M320.44 192.046L306.77 147.889H243.064L258.296 192.046H320.44Z" fill="white"/>
<path d="M258.296 192.73H320.44C320.546 192.729 320.651 192.704 320.746 192.657C320.841 192.609 320.923 192.541 320.988 192.457C321.055 192.371 321.1 192.27 321.119 192.163C321.138 192.056 321.131 191.945 321.098 191.842L307.4 147.684C307.356 147.544 307.269 147.423 307.15 147.336C307.032 147.25 306.889 147.204 306.743 147.205H243.037C242.929 147.206 242.823 147.232 242.728 147.282C242.633 147.332 242.551 147.404 242.489 147.492C242.423 147.582 242.38 147.685 242.363 147.795C242.347 147.905 242.357 148.017 242.393 148.121L257.625 192.265C257.673 192.404 257.765 192.523 257.885 192.606C258.005 192.69 258.149 192.733 258.296 192.73V192.73ZM319.509 191.363H258.789L244.023 148.573H306.263L319.509 191.363Z" fill="#231F20"/>
<path d="M384.735 136.839C384.735 136.839 408.089 189.353 397.062 201.346C386.036 213.339 327.206 189.886 327.206 189.886C317.125 187.876 306.263 184.334 303.428 172.997C303.072 171.547 303.045 169.701 304.305 168.894C304.987 168.54 305.762 168.406 306.524 168.511C309.063 168.641 311.568 169.162 313.948 170.057L313.879 165.489C319.468 170.193 326.056 175.39 333.357 176.634C338.164 177.441 343.232 177.523 348.095 177.906C356.569 178.581 365.047 179.196 373.53 179.752C373.53 179.752 367.928 159.431 363.847 147.889" fill="white"/>
<path d="M385.132 205.421C390.611 205.421 395.131 204.409 397.459 201.811C408.719 189.626 386.269 138.712 385.296 136.552C385.215 136.398 385.078 136.281 384.913 136.224C384.748 136.167 384.568 136.176 384.409 136.247C384.25 136.319 384.124 136.448 384.058 136.609C383.991 136.77 383.988 136.95 384.05 137.112C384.283 137.632 407.102 189.352 396.46 200.881C392.117 205.585 378.831 205.093 358.107 199.513C347.702 196.622 337.448 193.212 327.384 189.298C317.29 187.287 306.743 183.828 304.017 172.887C303.866 172.286 303.455 170.262 304.592 169.537C305.152 169.261 305.784 169.165 306.4 169.263C308.87 169.385 311.306 169.892 313.619 170.768C313.724 170.809 313.839 170.824 313.951 170.809C314.064 170.795 314.171 170.752 314.262 170.686C314.353 170.62 314.426 170.533 314.476 170.433C314.526 170.333 314.552 170.223 314.55 170.111V167.034C320.029 171.561 326.275 176.197 333.206 177.373C336.687 177.897 340.194 178.23 343.711 178.371C345.15 178.467 346.574 178.549 347.999 178.658C355.861 179.274 364.189 179.875 373.448 180.504C373.557 180.513 373.666 180.495 373.766 180.452C373.867 180.41 373.955 180.343 374.023 180.258C374.091 180.173 374.139 180.073 374.162 179.966C374.186 179.86 374.185 179.749 374.16 179.643C374.16 179.438 368.49 159.13 364.449 147.738C364.39 147.569 364.266 147.429 364.105 147.35C363.943 147.27 363.757 147.258 363.586 147.314C363.415 147.376 363.275 147.502 363.196 147.666C363.117 147.829 363.104 148.017 363.162 148.19C366.695 158.173 371.38 174.966 372.572 179.069C363.709 178.467 355.683 177.892 348.108 177.291C346.739 177.181 345.232 177.099 343.794 177.017C340.322 176.871 336.861 176.538 333.425 176.019C326.343 174.815 319.837 169.715 314.249 165.079C314.146 164.997 314.022 164.946 313.892 164.929C313.762 164.912 313.63 164.931 313.509 164.983C313.391 165.041 313.292 165.13 313.222 165.241C313.151 165.352 313.113 165.481 313.112 165.612V169.209C310.952 168.484 308.703 168.061 306.428 167.95C305.521 167.836 304.601 168.008 303.798 168.443C302.497 169.263 302.072 171.027 302.633 173.284C305.537 184.935 316.55 188.614 326.932 190.679C328.823 191.281 364.545 205.421 385.132 205.421Z" fill="#231F20"/>
<path d="M327.111 314.701C327.111 314.701 311.359 316.93 309.715 316.93L301.579 312.691C301.579 312.691 284.937 319.624 287.32 321.853C289.703 324.083 324.193 324.589 327.111 322.975C330.028 321.361 327.111 314.701 327.111 314.701Z" fill="#231F20"/>
<path d="M311.633 324.575C319.358 324.575 326.179 324.219 327.384 323.576C330.74 321.757 328.001 315.166 327.686 314.427C327.627 314.289 327.524 314.173 327.393 314.099C327.261 314.025 327.109 313.996 326.96 314.017C322.727 314.619 311.715 316.151 309.825 316.246L301.839 312.075C301.749 312.035 301.651 312.013 301.551 312.013C301.452 312.013 301.354 312.035 301.264 312.075C297.894 313.443 286.882 318.27 286.375 321.115C286.333 321.343 286.35 321.579 286.424 321.799C286.498 322.019 286.628 322.216 286.8 322.373C288.443 323.891 300.908 324.575 311.633 324.575ZM326.617 315.453C327.357 317.354 328.48 321.429 326.727 322.373C323.577 324.055 289.744 323.18 287.731 321.361C287.662 320.226 294.059 316.561 301.428 313.443L309.29 317.545C309.39 317.589 309.497 317.612 309.605 317.614C311.181 317.614 323.809 315.85 326.617 315.453Z" fill="#231F20"/>
<path d="M254.337 302.243C254.337 302.243 238.599 304.485 236.955 304.485L228.737 300.232C228.737 300.232 212.095 307.166 214.478 309.409C216.861 311.651 251.365 312.144 254.269 310.516C257.172 308.889 254.337 302.243 254.337 302.243Z" fill="#231F20"/>
<path d="M238.914 312.116C246.64 312.116 253.461 311.761 254.666 311.118C258.036 309.313 255.296 302.721 254.968 301.969C254.907 301.833 254.802 301.721 254.671 301.649C254.54 301.577 254.389 301.551 254.242 301.573C250.023 302.174 239.01 303.692 237.106 303.788L229.121 299.685C229.031 299.642 228.933 299.619 228.833 299.619C228.734 299.619 228.635 299.642 228.546 299.685C225.176 301.053 214.177 305.88 213.657 308.711C213.612 308.942 213.628 309.18 213.702 309.402C213.777 309.625 213.907 309.825 214.081 309.983C215.725 311.501 228.203 312.116 238.914 312.116ZM253.913 302.995C254.639 304.909 255.776 308.971 254.009 309.915C250.872 311.61 217.026 310.735 215.026 308.903C214.944 307.781 221.341 304.116 228.724 300.984L236.586 305.087C236.682 305.142 236.791 305.17 236.901 305.169C238.476 305.169 251.105 303.391 253.913 302.995Z" fill="#231F20"/>
<path d="M316.934 104.948L286.074 112.114L287.265 138.275H313.783L316.934 104.948Z" fill="#33BC84"/>
<path d="M302.456 145.673C302.619 145.672 302.777 145.611 302.9 145.504C303.024 145.396 303.104 145.247 303.127 145.085L307.469 114.206C307.481 114.116 307.474 114.025 307.451 113.938C307.427 113.85 307.387 113.768 307.331 113.697C307.276 113.625 307.207 113.565 307.128 113.52C307.05 113.475 306.963 113.445 306.873 113.434C306.783 113.422 306.692 113.428 306.604 113.452C306.517 113.475 306.435 113.516 306.363 113.571C306.291 113.626 306.231 113.695 306.185 113.774C306.14 113.852 306.111 113.939 306.099 114.028L301.757 144.894C301.744 144.983 301.748 145.074 301.771 145.161C301.793 145.248 301.833 145.33 301.888 145.402C301.943 145.473 302.012 145.533 302.091 145.577C302.17 145.622 302.256 145.65 302.346 145.66L302.456 145.673Z" fill="#231F20"/>
<path d="M363.778 148.572C363.855 148.587 363.934 148.587 364.011 148.572C364.097 148.543 364.176 148.497 364.243 148.437C364.31 148.377 364.365 148.304 364.403 148.222C364.442 148.14 364.463 148.052 364.466 147.962C364.47 147.871 364.455 147.781 364.422 147.697L358.039 129.919C358.01 129.832 357.965 129.752 357.904 129.683C357.844 129.615 357.771 129.558 357.688 129.519C357.606 129.479 357.516 129.455 357.425 129.451C357.333 129.446 357.242 129.459 357.156 129.49C357.07 129.522 356.991 129.57 356.924 129.632C356.856 129.694 356.802 129.769 356.765 129.852C356.727 129.935 356.706 130.025 356.704 130.117C356.702 130.208 356.718 130.299 356.752 130.384L363.134 148.162C363.189 148.287 363.279 148.392 363.394 148.465C363.508 148.538 363.642 148.576 363.778 148.572V148.572Z" fill="#231F20"/>
<path d="M279.513 226.782H279.732C279.903 226.72 280.043 226.594 280.122 226.43C280.202 226.267 280.214 226.079 280.157 225.907C280.088 225.702 272.952 204.573 277.308 198.857C280.198 195.082 290.43 192.758 290.539 192.744C290.629 192.724 290.714 192.687 290.79 192.634C290.865 192.582 290.93 192.515 290.979 192.437C291.029 192.36 291.063 192.273 291.079 192.183C291.095 192.092 291.093 192 291.073 191.91C291.054 191.82 291.016 191.735 290.964 191.66C290.911 191.584 290.844 191.52 290.766 191.47C290.689 191.421 290.602 191.387 290.511 191.371C290.421 191.355 290.328 191.357 290.238 191.376C289.8 191.472 279.403 193.824 276.226 197.995C271.418 204.3 278.554 225.428 278.869 226.317C278.913 226.453 278.999 226.571 279.115 226.655C279.231 226.738 279.37 226.783 279.513 226.782V226.782Z" fill="white"/>
</g>
<defs>
<clipPath id="clip0_41_865">
<rect width="499" height="325" fill="white" transform="matrix(-1 0 0 1 499 0)"/>
</clipPath>
</defs>
</svg>
