<svg width="615" height="371" viewBox="0 0 615 371" fill="none" xmlns="http://www.w3.org/2000/svg">
<path d="M519.116 142.913H460.661V194.151H519.116V142.913Z" fill="#33BC84"/>
<path d="M519.131 194.906H460.661C460.461 194.906 460.269 194.827 460.127 194.685C459.986 194.543 459.906 194.351 459.906 194.151V142.913C459.906 142.712 459.986 142.52 460.127 142.379C460.269 142.237 460.461 142.157 460.661 142.157H519.131C519.331 142.157 519.523 142.237 519.664 142.379C519.806 142.52 519.885 142.712 519.885 142.913V194.151C519.885 194.351 519.806 194.543 519.664 194.685C519.523 194.827 519.331 194.906 519.131 194.906ZM461.416 193.396H518.376V143.668H461.416V193.396Z" fill="white"/>
<path d="M519.131 148.487H460.661C460.461 148.487 460.269 148.407 460.127 148.266C459.986 148.124 459.906 147.932 459.906 147.731C459.91 147.532 459.991 147.343 460.132 147.202C460.272 147.061 460.462 146.98 460.661 146.976H519.131C519.33 146.98 519.519 147.061 519.66 147.202C519.801 147.343 519.882 147.532 519.885 147.731C519.885 147.932 519.806 148.124 519.664 148.266C519.523 148.407 519.331 148.487 519.131 148.487Z" fill="white"/>
<path d="M487.458 161.9H471.742C471.543 161.897 471.353 161.816 471.213 161.675C471.072 161.534 470.991 161.344 470.987 161.145V152.339C470.991 152.139 471.072 151.95 471.213 151.809C471.353 151.668 471.543 151.587 471.742 151.583H487.458C487.657 151.587 487.847 151.668 487.987 151.809C488.128 151.95 488.209 152.139 488.213 152.339V161.145C488.209 161.344 488.128 161.534 487.987 161.675C487.847 161.816 487.657 161.897 487.458 161.9ZM472.527 160.39H486.733V153.094H472.527V160.39Z" fill="white"/>
<path d="M509.544 182.399H493.844C493.644 182.399 493.452 182.319 493.31 182.178C493.168 182.036 493.089 181.844 493.089 181.644V172.837C493.089 172.637 493.168 172.445 493.31 172.303C493.452 172.161 493.644 172.082 493.844 172.082H509.544C509.745 172.082 509.937 172.161 510.078 172.303C510.22 172.445 510.299 172.637 510.299 172.837V181.644C510.299 181.844 510.22 182.036 510.078 182.178C509.937 182.319 509.745 182.399 509.544 182.399ZM494.599 180.888H508.759V173.592H494.568L494.599 180.888Z" fill="white"/>
<path d="M487.458 186.795H471.742C471.543 186.791 471.353 186.71 471.213 186.569C471.072 186.428 470.991 186.239 470.987 186.039V177.233C470.991 177.034 471.072 176.844 471.213 176.703C471.353 176.562 471.543 176.481 471.742 176.478H487.458C487.657 176.481 487.847 176.562 487.987 176.703C488.128 176.844 488.209 177.034 488.213 177.233V186.07C488.201 186.263 488.117 186.446 487.977 186.58C487.837 186.715 487.652 186.791 487.458 186.795ZM472.497 185.284H486.703V177.988H472.527L472.497 185.284Z" fill="white"/>
<path d="M501.694 173.592C501.494 173.592 501.302 173.513 501.161 173.371C501.019 173.229 500.939 173.037 500.939 172.837V168.668H479.593C479.394 168.664 479.204 168.583 479.063 168.442C478.923 168.301 478.842 168.112 478.838 167.912V161.13C478.838 160.93 478.917 160.738 479.059 160.596C479.201 160.454 479.393 160.375 479.593 160.375C479.793 160.375 479.985 160.454 480.126 160.596C480.268 160.738 480.348 160.93 480.348 161.13V167.172H501.694C501.895 167.172 502.087 167.252 502.228 167.394C502.37 167.535 502.449 167.727 502.449 167.928V172.852C502.445 173.05 502.364 173.238 502.223 173.376C502.082 173.515 501.892 173.592 501.694 173.592Z" fill="white"/>
<path d="M479.593 177.988C479.393 177.988 479.201 177.908 479.059 177.767C478.917 177.625 478.838 177.433 478.838 177.233V167.943C478.838 167.742 478.917 167.55 479.059 167.409C479.201 167.267 479.393 167.188 479.593 167.188C479.793 167.188 479.985 167.267 480.126 167.409C480.268 167.55 480.348 167.742 480.348 167.943V177.263C480.34 177.458 480.257 177.642 480.116 177.778C479.975 177.913 479.788 177.988 479.593 177.988Z" fill="white"/>
<path d="M235.962 58.7288H95.2607V158.94H235.962V58.7288Z" fill="white"/>
<path d="M235.961 159.695H95.2597C95.0595 159.695 94.8675 159.616 94.726 159.474C94.5844 159.332 94.5049 159.14 94.5049 158.94V58.7439C94.5049 58.5436 94.5844 58.3515 94.726 58.2099C94.8675 58.0682 95.0595 57.9886 95.2597 57.9886H235.961C236.161 57.9886 236.353 58.0682 236.495 58.2099C236.636 58.3515 236.716 58.5436 236.716 58.7439V158.879C236.724 158.984 236.711 159.088 236.677 159.187C236.643 159.286 236.588 159.376 236.517 159.453C236.447 159.53 236.36 159.591 236.265 159.632C236.169 159.674 236.066 159.695 235.961 159.695ZM96.0146 158.185H235.206V59.4992H96.0146V158.185Z" fill="#D1D3D4"/>
<path d="M235.961 69.4085H95.2597C95.0595 69.4085 94.8675 69.3289 94.726 69.1873C94.5844 69.0457 94.5049 68.8535 94.5049 68.6532C94.5049 68.4529 94.5844 68.2608 94.726 68.1192C94.8675 67.9775 95.0595 67.8979 95.2597 67.8979H235.961C236.161 67.8979 236.353 67.9775 236.495 68.1192C236.636 68.2608 236.716 68.4529 236.716 68.6532C236.716 68.8535 236.636 69.0457 236.495 69.1873C236.353 69.3289 236.161 69.4085 235.961 69.4085Z" fill="#D1D3D4"/>
<path d="M124.775 77.4145H107.595C107.394 77.4145 107.202 77.3349 107.061 77.1933C106.919 77.0516 106.84 76.8595 106.84 76.6592C106.84 76.4589 106.919 76.2668 107.061 76.1251C107.202 75.9835 107.394 75.9039 107.595 75.9039H124.775C124.975 75.9039 125.167 75.9835 125.308 76.1251C125.45 76.2668 125.53 76.4589 125.53 76.6592C125.53 76.8595 125.45 77.0516 125.308 77.1933C125.167 77.3349 124.975 77.4145 124.775 77.4145Z" fill="#D1D3D4"/>
<path d="M168.117 77.4145H133.832C133.632 77.4145 133.44 77.3349 133.298 77.1933C133.157 77.0516 133.077 76.8595 133.077 76.6592C133.077 76.4589 133.157 76.2668 133.298 76.1251C133.44 75.9835 133.632 75.9039 133.832 75.9039H168.117C168.317 75.9039 168.509 75.9835 168.65 76.1251C168.792 76.2668 168.871 76.4589 168.871 76.6592C168.871 76.7584 168.852 76.8566 168.814 76.9483C168.776 77.0399 168.72 77.1231 168.65 77.1933C168.58 77.2634 168.497 77.319 168.405 77.357C168.314 77.395 168.216 77.4145 168.117 77.4145Z" fill="#D1D3D4"/>
<path d="M178.443 86.3721H144.144C143.945 86.3683 143.755 86.2875 143.614 86.1466C143.473 86.0058 143.393 85.816 143.389 85.6169C143.389 85.4165 143.468 85.2244 143.61 85.0828C143.751 84.9411 143.943 84.8616 144.144 84.8616H178.443C178.643 84.8616 178.835 84.9411 178.977 85.0828C179.119 85.2244 179.198 85.4165 179.198 85.6169C179.198 85.8172 179.119 86.0093 178.977 86.1509C178.835 86.2926 178.643 86.3721 178.443 86.3721Z" fill="#D1D3D4"/>
<path d="M128.805 86.3721H111.625C111.425 86.3721 111.233 86.2926 111.091 86.1509C110.95 86.0093 110.87 85.8172 110.87 85.6169C110.87 85.4165 110.95 85.2244 111.091 85.0828C111.233 84.9411 111.425 84.8616 111.625 84.8616H128.805C129.005 84.8616 129.197 84.9411 129.339 85.0828C129.48 85.2244 129.56 85.4165 129.56 85.6169C129.56 85.8172 129.48 86.0093 129.339 86.1509C129.197 86.2926 129.005 86.3721 128.805 86.3721Z" fill="#D1D3D4"/>
<path d="M129.469 95.2543H115.655C115.455 95.2543 115.263 95.1748 115.121 95.0331C114.98 94.8915 114.9 94.6994 114.9 94.4991C114.9 94.2987 114.98 94.1066 115.121 93.965C115.263 93.8233 115.455 93.7438 115.655 93.7438H129.469C129.669 93.7438 129.861 93.8233 130.002 93.965C130.144 94.1066 130.224 94.2987 130.224 94.4991C130.224 94.6994 130.144 94.8915 130.002 95.0331C129.861 95.1748 129.669 95.2543 129.469 95.2543Z" fill="#D1D3D4"/>
<path d="M184.572 95.2543H141.652C141.452 95.2543 141.26 95.1748 141.119 95.0331C140.977 94.8915 140.897 94.6994 140.897 94.4991C140.897 94.2987 140.977 94.1066 141.119 93.965C141.26 93.8233 141.452 93.7438 141.652 93.7438H184.572C184.772 93.7438 184.964 93.8233 185.106 93.965C185.248 94.1066 185.327 94.2987 185.327 94.4991C185.327 94.6994 185.248 94.8915 185.106 95.0331C184.964 95.1748 184.772 95.2543 184.572 95.2543Z" fill="#D1D3D4"/>
<path d="M136.882 104.182H119.686C119.487 104.178 119.298 104.097 119.157 103.956C119.016 103.815 118.936 103.626 118.932 103.426C118.932 103.226 119.011 103.034 119.153 102.892C119.294 102.751 119.486 102.671 119.686 102.671H136.882C137.082 102.671 137.274 102.751 137.415 102.892C137.557 103.034 137.636 103.226 137.636 103.426C137.636 103.627 137.557 103.819 137.415 103.96C137.274 104.102 137.082 104.182 136.882 104.182Z" fill="#D1D3D4"/>
<path d="M193.449 104.182H142.407C142.208 104.178 142.018 104.097 141.878 103.956C141.737 103.815 141.656 103.626 141.652 103.426C141.652 103.226 141.732 103.034 141.873 102.892C142.015 102.751 142.207 102.671 142.407 102.671H193.449C193.649 102.671 193.841 102.751 193.983 102.892C194.124 103.034 194.204 103.226 194.204 103.426C194.204 103.627 194.124 103.819 193.983 103.96C193.841 104.102 193.649 104.182 193.449 104.182Z" fill="#D1D3D4"/>
<path d="M132.322 113.094H115.127C114.927 113.094 114.735 113.014 114.593 112.873C114.452 112.731 114.372 112.539 114.372 112.339C114.372 112.138 114.452 111.946 114.593 111.805C114.735 111.663 114.927 111.583 115.127 111.583H132.322C132.522 111.583 132.714 111.663 132.856 111.805C132.997 111.946 133.077 112.138 133.077 112.339C133.077 112.539 132.997 112.731 132.856 112.873C132.714 113.014 132.522 113.094 132.322 113.094Z" fill="#D1D3D4"/>
<path d="M166.577 113.094H138.89C138.689 113.094 138.497 113.014 138.356 112.873C138.214 112.731 138.135 112.539 138.135 112.339C138.135 112.138 138.214 111.946 138.356 111.805C138.497 111.663 138.689 111.583 138.89 111.583H166.562C166.762 111.583 166.954 111.663 167.096 111.805C167.237 111.946 167.317 112.138 167.317 112.339C167.317 112.539 167.237 112.731 167.096 112.873C166.954 113.014 166.762 113.094 166.562 113.094H166.577Z" fill="#D1D3D4"/>
<path d="M204.832 113.094H177.16C176.96 113.094 176.768 113.014 176.626 112.873C176.485 112.731 176.405 112.539 176.405 112.339C176.405 112.138 176.485 111.946 176.626 111.805C176.768 111.663 176.96 111.583 177.16 111.583H204.832C205.033 111.583 205.225 111.663 205.366 111.805C205.508 111.946 205.587 112.138 205.587 112.339C205.587 112.539 205.508 112.731 205.366 112.873C205.225 113.014 205.033 113.094 204.832 113.094Z" fill="#D1D3D4"/>
<path d="M121.06 122.006H115.127C114.927 122.006 114.735 121.927 114.593 121.785C114.452 121.644 114.372 121.451 114.372 121.251C114.376 121.052 114.457 120.862 114.597 120.721C114.738 120.581 114.928 120.5 115.127 120.496H121.06C121.259 120.5 121.449 120.581 121.589 120.721C121.73 120.862 121.811 121.052 121.815 121.251C121.815 121.451 121.735 121.644 121.594 121.785C121.452 121.927 121.26 122.006 121.06 122.006Z" fill="#D1D3D4"/>
<path d="M166.576 122.006H131.144C130.944 122.006 130.752 121.927 130.611 121.785C130.469 121.644 130.39 121.451 130.39 121.251C130.394 121.052 130.474 120.862 130.615 120.721C130.756 120.581 130.945 120.5 131.144 120.496H166.576C166.777 120.496 166.969 120.575 167.11 120.717C167.252 120.859 167.331 121.051 167.331 121.251C167.331 121.451 167.252 121.644 167.11 121.785C166.969 121.927 166.777 122.006 166.576 122.006Z" fill="#D1D3D4"/>
<path d="M180.541 122.006H170.593C170.393 122.006 170.201 121.927 170.059 121.785C169.917 121.644 169.838 121.451 169.838 121.251C169.842 121.052 169.923 120.862 170.063 120.721C170.204 120.581 170.394 120.5 170.593 120.496H180.481C180.681 120.496 180.873 120.575 181.015 120.717C181.156 120.859 181.236 121.051 181.236 121.251C181.237 121.441 181.165 121.625 181.037 121.765C180.908 121.905 180.731 121.991 180.541 122.006Z" fill="#D1D3D4"/>
<path d="M124.426 130.934H115.127C114.927 130.934 114.735 130.854 114.593 130.713C114.452 130.571 114.372 130.379 114.372 130.179C114.372 129.978 114.452 129.786 114.593 129.645C114.735 129.503 114.927 129.423 115.127 129.423H124.426C124.627 129.423 124.819 129.503 124.96 129.645C125.102 129.786 125.181 129.978 125.181 130.179C125.181 130.379 125.102 130.571 124.96 130.713C124.819 130.854 124.627 130.934 124.426 130.934Z" fill="#D1D3D4"/>
<path d="M175.258 130.934H133.198C132.998 130.934 132.806 130.854 132.664 130.713C132.523 130.571 132.443 130.379 132.443 130.179C132.443 129.978 132.523 129.786 132.664 129.645C132.806 129.503 132.998 129.423 133.198 129.423H175.258C175.458 129.423 175.65 129.503 175.791 129.645C175.933 129.786 176.012 129.978 176.012 130.179C176.012 130.379 175.933 130.571 175.791 130.713C175.65 130.854 175.458 130.934 175.258 130.934Z" fill="#D1D3D4"/>
<path d="M196.604 130.934H179.409C179.209 130.934 179.017 130.854 178.875 130.713C178.734 130.571 178.654 130.379 178.654 130.179C178.654 129.978 178.734 129.786 178.875 129.645C179.017 129.503 179.209 129.423 179.409 129.423H196.604C196.804 129.423 196.996 129.503 197.138 129.645C197.28 129.786 197.359 129.978 197.359 130.179C197.359 130.379 197.28 130.571 197.138 130.713C196.996 130.854 196.804 130.934 196.604 130.934Z" fill="#D1D3D4"/>
<path d="M120.215 139.846H111.157C110.957 139.846 110.765 139.767 110.623 139.625C110.482 139.483 110.402 139.291 110.402 139.091C110.402 138.891 110.482 138.699 110.623 138.557C110.765 138.415 110.957 138.336 111.157 138.336H120.215C120.415 138.336 120.607 138.415 120.749 138.557C120.891 138.699 120.97 138.891 120.97 139.091C120.97 139.291 120.891 139.483 120.749 139.625C120.607 139.767 120.415 139.846 120.215 139.846Z" fill="#D1D3D4"/>
<path d="M170.593 139.846H130.844C130.644 139.846 130.452 139.767 130.31 139.625C130.168 139.483 130.089 139.291 130.089 139.091C130.089 138.891 130.168 138.699 130.31 138.557C130.452 138.415 130.644 138.336 130.844 138.336H170.593C170.794 138.336 170.986 138.415 171.127 138.557C171.269 138.699 171.348 138.891 171.348 139.091C171.348 139.291 171.269 139.483 171.127 139.625C170.986 139.767 170.794 139.846 170.593 139.846Z" fill="#D1D3D4"/>
<path d="M128.322 148.774H111.097C110.896 148.774 110.704 148.694 110.563 148.552C110.421 148.411 110.342 148.219 110.342 148.018C110.342 147.818 110.421 147.626 110.563 147.484C110.704 147.343 110.896 147.263 111.097 147.263H128.322C128.522 147.263 128.714 147.343 128.856 147.484C128.997 147.626 129.077 147.818 129.077 148.018C129.073 148.217 128.992 148.407 128.851 148.548C128.711 148.689 128.521 148.77 128.322 148.774Z" fill="#D1D3D4"/>
<path d="M223.627 104.182H200.394C200.193 104.182 200.001 104.102 199.86 103.96C199.718 103.819 199.639 103.627 199.639 103.426C199.639 103.226 199.718 103.034 199.86 102.892C200.001 102.751 200.193 102.671 200.394 102.671H223.627C223.828 102.671 224.02 102.751 224.161 102.892C224.303 103.034 224.382 103.226 224.382 103.426C224.382 103.627 224.303 103.819 224.161 103.96C224.02 104.102 223.828 104.182 223.627 104.182Z" fill="#D1D3D4"/>
<path d="M188.799 77.4598C182.142 77.4598 177.22 77.4598 176.994 77.4598C176.897 77.4402 176.805 77.4013 176.724 77.3456C176.642 77.2898 176.573 77.2183 176.519 77.1353C176.466 77.0522 176.429 76.9593 176.412 76.8619C176.395 76.7646 176.398 76.6649 176.42 76.5686C176.46 76.3845 176.568 76.2219 176.721 76.1129C176.875 76.0039 177.064 75.9563 177.251 75.9795C178.398 75.9795 205.617 75.9795 216.049 75.9795C216.249 75.9795 216.441 76.059 216.583 76.2007C216.724 76.3423 216.804 76.5344 216.804 76.7348C216.804 76.9351 216.724 77.1272 216.583 77.2688C216.441 77.4105 216.249 77.49 216.049 77.49C208.078 77.4447 197.088 77.4598 188.799 77.4598Z" fill="#D1D3D4"/>
<path d="M192.649 139.846H175.258C175.058 139.846 174.866 139.767 174.724 139.625C174.582 139.483 174.503 139.291 174.503 139.091C174.503 138.891 174.582 138.699 174.724 138.557C174.866 138.415 175.058 138.336 175.258 138.336H192.649C192.848 138.34 193.038 138.42 193.179 138.561C193.319 138.702 193.4 138.892 193.404 139.091C193.404 139.19 193.384 139.288 193.347 139.38C193.309 139.472 193.253 139.555 193.183 139.625C193.113 139.695 193.03 139.751 192.938 139.789C192.846 139.827 192.748 139.846 192.649 139.846Z" fill="#D1D3D4"/>
<path d="M152.749 148.774H139.962C139.762 148.774 139.57 148.694 139.428 148.552C139.287 148.411 139.207 148.219 139.207 148.018C139.207 147.818 139.287 147.626 139.428 147.484C139.57 147.343 139.762 147.263 139.962 147.263H152.749C152.949 147.263 153.141 147.343 153.283 147.484C153.424 147.626 153.504 147.818 153.504 148.018C153.5 148.217 153.419 148.407 153.278 148.548C153.138 148.689 152.948 148.77 152.749 148.774Z" fill="#D1D3D4"/>
<path d="M187.999 148.774H157.609C157.409 148.774 157.217 148.694 157.076 148.552C156.934 148.411 156.854 148.219 156.854 148.018C156.854 147.818 156.934 147.626 157.076 147.484C157.217 147.343 157.409 147.263 157.609 147.263H187.999C188.199 147.263 188.391 147.343 188.533 147.484C188.674 147.626 188.754 147.818 188.754 148.018C188.754 148.219 188.674 148.411 188.533 148.552C188.391 148.694 188.199 148.774 187.999 148.774Z" fill="#D1D3D4"/>
<path d="M443.934 285.51C443.934 285.51 455.649 163.154 437.895 144.62C420.142 126.085 364.178 133.139 335.6 138.985C302.387 145.768 320.156 287.021 320.156 287.021L443.934 285.51Z" fill="#231F20"/>
<path d="M320.201 287.821C320.02 287.823 319.844 287.757 319.708 287.638C319.571 287.518 319.484 287.352 319.461 287.172C318.737 281.371 302.055 145.088 335.494 138.245C349.081 135.466 418.028 122.656 438.484 144.091C456.223 162.701 445.157 280.571 444.673 285.586C444.658 285.771 444.574 285.944 444.437 286.07C444.299 286.196 444.12 286.266 443.934 286.266L320.216 287.776L320.201 287.821ZM392.665 133.396H390.899C368.058 133.608 344.778 137.928 335.826 139.725C322.677 142.414 315.914 168.638 316.291 215.556C316.548 248.577 320.307 281.266 320.82 286.311L443.194 284.8C444.085 274.997 453.943 162.58 437.337 145.179C429.954 137.339 414.903 133.396 392.635 133.396H392.665Z" fill="#231F20"/>
<path d="M285.117 181.78L278.006 250.284C278.006 250.284 224.684 258.486 215.687 257.671C206.689 256.855 189.343 260.858 186.792 263.063C184.24 265.269 172.072 279.196 174.548 279.211C177.024 279.226 187.833 269.181 188.95 269.211C190.068 269.242 199.397 271.658 199.397 271.658C199.397 271.658 184.18 280.178 188.709 280.586C193.238 280.994 207.701 274.03 209.271 273.683C210.841 273.335 284.754 285.359 301.361 281.417C317.967 277.474 315.491 250.933 315.446 242.142C315.401 233.35 313.212 175.768 313.212 175.768L285.117 181.78Z" fill="white"/>
<path d="M291.079 282.972C272.103 282.972 238.165 278.305 220.125 275.812C214.388 275.027 209.859 274.377 209.3 274.438C209.014 274.438 207.444 275.163 205.798 275.858C198.838 278.788 191.803 281.628 188.573 281.341C187.501 281.25 187.169 280.737 187.063 280.314C186.746 278.803 190.218 276.039 197.374 271.93C193.872 271.039 189.539 269.997 188.905 269.966C188.542 270.117 186.293 271.93 184.481 273.38C179.696 277.232 176.163 279.966 174.533 279.966C174.314 279.976 174.097 279.915 173.915 279.793C173.733 279.67 173.595 279.493 173.521 279.287C172.615 276.824 185.191 263.426 186.278 262.489C189.071 260.087 206.598 256.084 215.732 256.915C224.02 257.67 271.499 250.51 277.296 249.634L284.346 181.659C284.362 181.502 284.428 181.354 284.534 181.237C284.64 181.12 284.781 181.04 284.935 181.009L312.894 174.967C313.002 174.949 313.113 174.953 313.219 174.979C313.325 175.005 313.425 175.052 313.513 175.118C313.601 175.183 313.672 175.267 313.722 175.364C313.771 175.461 313.798 175.568 313.8 175.677C313.8 176.266 315.974 233.35 316.034 242.066C316.034 242.897 316.034 243.879 316.034 244.997C316.321 255.843 316.94 278.395 301.3 282.111C297.933 282.761 294.507 283.05 291.079 282.972ZM209.285 272.927C210.086 272.927 212.546 273.259 220.321 274.317C240.687 277.126 288.392 283.682 301.028 280.691C315.476 277.262 314.887 255.525 314.615 245.087C314.615 243.954 314.615 242.957 314.615 242.066C314.615 233.97 312.698 183.985 312.426 176.628L285.886 182.338L278.836 250.314C278.818 250.479 278.746 250.634 278.632 250.754C278.517 250.874 278.366 250.953 278.202 250.979C276.013 251.326 224.669 259.166 215.686 258.38C206.704 257.595 189.614 261.643 187.365 263.592C185.116 265.54 176.631 275.344 175.288 278.244C178.253 276.473 181.061 274.452 183.681 272.202C187.471 269.181 188.422 268.441 189.086 268.456C190.218 268.456 198.144 270.525 199.654 270.918C199.799 270.959 199.928 271.042 200.027 271.156C200.125 271.27 200.188 271.411 200.207 271.561C200.227 271.71 200.202 271.862 200.135 271.998C200.069 272.133 199.965 272.246 199.835 272.323C195.019 275.012 189.705 278.486 188.769 279.876C191.894 280.148 200.575 276.477 205.27 274.498C206.525 273.926 207.81 273.421 209.119 272.987L209.285 272.927Z" fill="#231F20"/>
<path d="M281.991 217.973C289.54 171.039 297.42 165.888 297.42 165.888C311.007 142.384 354.697 138.109 354.697 138.109C354.697 138.109 398.115 155.979 407.037 187.958C412.94 209.106 411.219 292.353 411.219 292.353L302.115 288.093C302.115 288.093 298.839 252.368 302.961 217.897L281.991 217.973Z" fill="#33BC84"/>
<path d="M336.898 174.227C336.898 174.227 329.939 228.199 346.575 230.118C363.212 232.036 372.889 160.949 372.889 160.949L336.098 168.502" fill="#231F20"/>
<path d="M347.225 230.979C346.973 230.994 346.721 230.994 346.47 230.979C345.269 230.826 344.113 230.426 343.074 229.805C342.035 229.184 341.135 228.354 340.431 227.369C330.92 215.148 335.902 175.843 336.068 174.166C336.095 173.968 336.198 173.789 336.357 173.667C336.515 173.545 336.715 173.491 336.914 173.517C337.112 173.543 337.291 173.647 337.413 173.806C337.535 173.964 337.589 174.165 337.563 174.363C337.563 174.771 332.49 214.725 341.624 226.447C342.2 227.265 342.938 227.956 343.793 228.475C344.647 228.995 345.6 229.333 346.591 229.468C359.468 230.979 369.1 182.233 371.983 161.931L336.234 169.302C336.034 169.342 335.826 169.301 335.656 169.188C335.486 169.075 335.369 168.898 335.328 168.698C335.288 168.498 335.33 168.29 335.443 168.12C335.556 167.95 335.732 167.832 335.932 167.792L372.723 160.239C372.841 160.209 372.965 160.212 373.082 160.246C373.199 160.281 373.304 160.346 373.387 160.435C373.476 160.516 373.545 160.618 373.587 160.731C373.629 160.844 373.643 160.965 373.629 161.085C373.312 163.955 363.937 230.964 347.225 230.979Z" fill="#231F20"/>
<path d="M530.212 289.951H73.6416V300.45H530.212V289.951Z" fill="#105157"/>
<path d="M530.212 301.19H73.6572C73.457 301.19 73.265 301.11 73.1234 300.969C72.9819 300.827 72.9023 300.635 72.9023 300.435V289.951C72.9023 289.751 72.9819 289.559 73.1234 289.417C73.265 289.276 73.457 289.196 73.6572 289.196H530.212C530.412 289.196 530.604 289.276 530.746 289.417C530.888 289.559 530.967 289.751 530.967 289.951V300.435C530.967 300.635 530.888 300.827 530.746 300.969C530.604 301.11 530.412 301.19 530.212 301.19ZM74.412 299.679H529.457V290.707H74.412V299.679Z" fill="#105157"/>
<path d="M523.569 300.435H80.3145V354.181H523.569V300.435Z" fill="#56A789"/>
<path d="M523.554 354.951H80.3144C80.1142 354.951 79.9222 354.871 79.7807 354.73C79.6391 354.588 79.5596 354.396 79.5596 354.196V300.434C79.5596 300.234 79.6391 300.042 79.7807 299.9C79.9222 299.759 80.1142 299.679 80.3144 299.679H523.554C523.754 299.679 523.946 299.759 524.088 299.9C524.229 300.042 524.309 300.234 524.309 300.434V354.196C524.309 354.396 524.229 354.588 524.088 354.73C523.946 354.871 523.754 354.951 523.554 354.951ZM81.0692 353.44H522.799V301.19H81.0692V353.44Z" fill="#56A789"/>
<path d="M317.982 283.788H177.296V289.951H317.982V283.788Z" fill="#231F20"/>
<path d="M317.982 290.707H177.296C177.096 290.707 176.904 290.627 176.762 290.485C176.621 290.344 176.541 290.152 176.541 289.951V283.788C176.541 283.588 176.621 283.396 176.762 283.254C176.904 283.113 177.096 283.033 177.296 283.033H317.982C318.182 283.033 318.374 283.113 318.516 283.254C318.657 283.396 318.737 283.588 318.737 283.788V289.951C318.733 290.15 318.652 290.34 318.512 290.481C318.371 290.622 318.181 290.703 317.982 290.707ZM178.051 289.196H317.227V284.544H178.051V289.196Z" fill="#231F20"/>
<path d="M395.806 211.326L415.763 257.519C415.763 257.519 382.339 263.985 362.925 266.689C362.925 266.689 340.567 258.607 333.018 258.864C325.47 259.121 314.525 266.734 311.989 269.438C303.595 278.214 304.214 283.033 304.335 285.616C304.576 290.933 342.952 284.317 348.115 284.846C353.278 285.374 442.907 293.426 450.441 286.689C457.974 279.951 433.2 203.094 433.2 203.094" fill="white"/>
<path d="M426.376 290.057C395.972 290.057 348.583 285.631 347.873 285.525C343.801 285.63 339.739 285.968 335.705 286.537C320.171 288.229 307.022 289.438 304.168 286.945C303.959 286.78 303.788 286.572 303.665 286.335C303.543 286.098 303.472 285.837 303.459 285.571V285.284C303.308 282.565 303.036 277.519 311.339 268.834C314.208 265.812 325.304 258.35 332.882 258.078C340.159 257.806 360.63 265.072 362.91 265.888C380.362 263.456 409.166 257.988 414.676 256.93L395.051 211.613C394.995 211.521 394.959 211.417 394.946 211.31C394.933 211.203 394.944 211.094 394.977 210.991C395.01 210.888 395.065 210.793 395.137 210.713C395.21 210.633 395.299 210.569 395.398 210.527C395.498 210.484 395.605 210.464 395.713 210.466C395.821 210.469 395.928 210.494 396.025 210.541C396.122 210.589 396.208 210.656 396.277 210.739C396.346 210.823 396.396 210.92 396.424 211.024L416.397 257.217C416.446 257.321 416.471 257.435 416.471 257.55C416.471 257.665 416.446 257.778 416.397 257.882C416.342 257.98 416.266 258.064 416.175 258.129C416.084 258.195 415.979 258.239 415.869 258.26C415.537 258.335 382.188 264.755 362.91 267.444C362.791 267.473 362.666 267.473 362.547 267.444C362.336 267.368 340.204 259.347 332.913 259.664C325.621 259.982 314.797 267.414 312.411 269.951C304.576 278.169 304.863 282.791 304.953 285.269V285.571C304.953 285.571 304.953 285.722 305.135 285.873C307.777 288.139 325.153 286.235 335.524 285.102C339.666 284.504 343.841 284.171 348.024 284.105C359.075 285.269 442.907 292.262 449.776 286.13C455.045 281.417 442.228 234.03 432.309 203.32C432.279 203.226 432.268 203.127 432.277 203.028C432.286 202.93 432.314 202.834 432.361 202.747C432.407 202.66 432.471 202.582 432.548 202.52C432.624 202.458 432.713 202.411 432.808 202.384C432.901 202.353 432.999 202.342 433.097 202.35C433.194 202.357 433.29 202.385 433.377 202.43C433.464 202.475 433.541 202.536 433.604 202.612C433.667 202.687 433.714 202.774 433.744 202.867C436.31 210.783 458.472 280.389 450.788 287.263C448.493 289.317 438.861 290.057 426.376 290.057Z" fill="#231F20"/>
<path d="M389.027 162.248C400.652 165.646 411.479 171.343 420.866 179C436.385 192.233 442.816 225.36 442.816 225.36L386.022 235.767L389.027 162.248Z" fill="#33BC84"/>
<path d="M332.128 163.29C336.34 161.78 340.386 160.269 345.081 160.692C352.086 161.251 358.668 164.03 365.839 164.363C373.478 164.71 381.479 163.275 389.042 162.248C391.247 161.931 389.39 165.148 391.08 163.758C396.998 158.562 395.851 149.423 395.202 142.535C393.936 126.552 390.492 110.817 384.966 95.7678C381.947 87.9733 370.458 59.5142 358.653 73.351C361.31 70.2392 346.575 64.8616 344.492 64.4991C325.666 61.0701 310.479 78.8193 307.973 95.9189C306.101 108.381 306.992 120.526 302.191 132.505C300.077 137.792 297.209 143.079 297.526 148.774C297.888 155.616 303.097 161.613 309.453 164.166C315.808 166.719 323.04 166.221 329.592 164.166C330.392 163.879 331.252 163.577 332.128 163.29Z" fill="white"/>
<path d="M318.827 166.659C315.496 166.692 312.19 166.081 309.09 164.861C302.04 162.037 297.013 155.586 296.696 148.819C296.424 144 298.356 139.484 300.213 135.118C300.621 134.151 301.028 133.185 301.421 132.218C304.621 124.227 305.24 116.281 305.95 107.883C306.267 103.94 306.584 99.8767 307.203 95.7981C308.865 85.0377 314.668 75.3548 323.372 68.8194C326.379 66.5615 329.816 64.9437 333.472 64.0656C337.127 63.1875 340.924 63.0677 344.628 63.7137C345.805 63.9252 357.46 67.8224 359.422 71.4025C360.329 70.4497 361.45 69.7276 362.692 69.2967C363.935 68.8657 365.262 68.7383 366.563 68.9252C374.429 70.2696 381.298 84.0308 385.676 95.4507C390.869 108.955 394.235 124.287 395.941 142.278L396.017 143.124C396.696 150.148 397.527 158.895 391.563 164.136C391.261 164.408 390.688 164.907 390.054 164.635C389.846 164.516 389.678 164.337 389.573 164.121C389.468 163.906 389.43 163.664 389.465 163.426C389.475 163.237 389.449 163.047 389.389 162.867H389.103L385.51 163.381C378.991 164.526 372.381 165.067 365.763 164.997C361.994 164.708 358.259 164.071 354.607 163.094C351.445 162.262 348.225 161.672 344.975 161.327C340.657 160.979 336.913 162.278 332.898 163.668L332.279 163.879C331.418 164.182 330.558 164.484 329.667 164.756C326.169 165.93 322.515 166.571 318.827 166.659ZM339.797 64.8315C334.175 64.8839 328.715 66.7192 324.202 70.0732C315.825 76.3577 310.239 85.6722 308.637 96.0247C308.048 100.043 307.716 104.091 307.414 108.004C306.765 116.145 306.101 124.62 302.885 132.777C302.493 133.759 302.07 134.725 301.662 135.707C299.866 139.907 298.024 144.272 298.251 148.744C298.598 154.922 303.187 160.828 309.709 163.456C316.835 166.311 324.323 164.967 329.335 163.456L331.916 162.595L332.535 162.369C336.642 160.858 340.536 159.574 345.171 159.952C348.498 160.305 351.794 160.911 355.029 161.765C358.587 162.721 362.226 163.343 365.899 163.623C372.426 163.688 378.945 163.152 385.374 162.021L388.967 161.508C389.227 161.448 389.498 161.447 389.759 161.505C390.02 161.562 390.265 161.677 390.476 161.84C390.758 162.086 390.945 162.423 391.005 162.792C396.002 158.018 395.217 149.922 394.583 143.381L394.507 142.55C392.816 124.635 389.495 109.423 384.347 96.055C378.308 80.5112 371.983 71.4327 366.382 70.4659C363.921 70.0581 361.596 71.1608 359.302 73.8496C359.243 73.9382 359.166 74.0134 359.076 74.0702C358.986 74.127 358.885 74.1642 358.78 74.1792C358.675 74.1943 358.567 74.187 358.465 74.1577C358.363 74.1284 358.268 74.0778 358.187 74.0093C358.105 73.9408 358.04 73.8558 357.993 73.76C357.947 73.6642 357.922 73.5597 357.918 73.4533C357.915 73.347 357.935 73.2412 357.976 73.1429C358.016 73.0446 358.077 72.9559 358.154 72.8828C358.22 72.8102 358.263 72.7204 358.279 72.6241C358.295 72.5278 358.283 72.4289 358.245 72.339C357.324 69.7711 346.651 65.6623 344.431 65.2545C342.902 64.975 341.351 64.8335 339.797 64.8315Z" fill="#231F20"/>
<path d="M315.521 101.795C315.521 101.795 311.083 121.206 316.035 135.028C317.308 138.883 319.677 142.284 322.851 144.814C326.026 147.344 329.868 148.893 333.909 149.272L336.928 174.302C336.928 174.302 338.348 187.112 353.791 183.245C358.269 182.111 362.383 179.851 365.741 176.678C369.1 173.505 371.591 169.526 372.979 165.118L369.205 118.865C369.205 118.865 350.244 110.783 349.73 94.061C349.73 94.061 329.833 106.84 315.521 101.795Z" fill="white"/>
<path d="M348.372 184.65C345.4 184.807 342.48 183.825 340.208 181.902C337.935 179.979 336.482 177.261 336.144 174.302L333.2 149.891C329.139 149.372 325.307 147.719 322.14 145.123C318.974 142.526 316.602 139.091 315.295 135.209C310.328 121.417 314.57 102.429 314.751 101.629C314.774 101.525 314.818 101.428 314.881 101.342C314.943 101.256 315.022 101.184 315.114 101.13C315.211 101.086 315.316 101.062 315.423 101.062C315.53 101.062 315.636 101.086 315.733 101.13C329.561 105.994 349.127 93.5775 349.323 93.4718C349.438 93.4055 349.568 93.3706 349.7 93.3706C349.833 93.3706 349.963 93.4055 350.078 93.4718C350.196 93.5362 350.295 93.6297 350.366 93.7434C350.438 93.8571 350.479 93.9872 350.485 94.1213C350.923 110.148 369.296 118.17 369.477 118.29C369.605 118.342 369.716 118.429 369.796 118.542C369.876 118.654 369.923 118.787 369.93 118.925L373.704 165.178C373.719 165.263 373.719 165.35 373.704 165.435C372.24 169.945 369.662 174.013 366.211 177.263C362.76 180.513 358.546 182.841 353.958 184.03C352.128 184.462 350.252 184.67 348.372 184.65ZM316.05 102.777C315.295 106.584 312.472 122.898 316.714 134.695C317.921 138.419 320.194 141.706 323.25 144.15C326.307 146.593 330.013 148.085 333.909 148.441C334.088 148.448 334.258 148.519 334.388 148.641C334.519 148.763 334.601 148.928 334.619 149.106L337.638 174.136C338.088 177.004 339.63 179.586 341.941 181.341C344.779 183.29 348.674 183.668 353.58 182.444C357.89 181.333 361.853 179.158 365.105 176.118C368.357 173.078 370.794 169.27 372.194 165.042L368.466 119.363C365.703 118.064 350.35 110.133 349.051 95.3751C344.718 97.928 328.701 106.614 316.05 102.777Z" fill="#231F20"/>
<path d="M327.598 134.015C326.792 134.033 325.989 133.905 325.228 133.638C324.997 133.553 324.788 133.416 324.618 133.238C324.448 133.06 324.321 132.845 324.247 132.611C323.145 129.589 328.776 119.514 329.968 117.505C330.067 117.331 330.23 117.203 330.422 117.149C330.615 117.095 330.821 117.12 330.995 117.218C331.167 117.322 331.292 117.489 331.343 117.684C331.394 117.878 331.366 118.085 331.267 118.26C328.564 122.928 325.032 130.345 325.666 132.052C325.666 132.157 325.666 132.172 325.756 132.172C328.383 133.169 333.169 131.281 333.214 131.266C333.306 131.229 333.405 131.211 333.504 131.212C333.603 131.214 333.701 131.235 333.792 131.274C333.884 131.313 333.966 131.37 334.035 131.441C334.104 131.513 334.159 131.597 334.195 131.689C334.232 131.781 334.25 131.88 334.249 131.979C334.248 132.078 334.227 132.177 334.188 132.268C334.148 132.359 334.091 132.442 334.02 132.511C333.949 132.58 333.865 132.634 333.773 132.671C331.801 133.452 329.716 133.907 327.598 134.015Z" fill="#231F20"/>
<path d="M334.075 141.1C329.851 140.958 325.755 139.611 322.27 137.218C322.184 137.167 322.109 137.099 322.05 137.018C321.991 136.938 321.949 136.846 321.926 136.748C321.904 136.651 321.901 136.55 321.919 136.451C321.936 136.353 321.973 136.259 322.028 136.176C322.081 136.091 322.149 136.018 322.23 135.96C322.311 135.902 322.402 135.861 322.499 135.838C322.596 135.816 322.696 135.813 322.794 135.829C322.892 135.845 322.986 135.881 323.07 135.934C328.776 139.559 334.166 140.466 339.103 138.698C342.801 137.304 345.908 134.68 347.904 131.266C347.966 131.076 348.101 130.917 348.278 130.824C348.456 130.731 348.663 130.71 348.855 130.768C349.042 130.83 349.197 130.963 349.287 131.138C349.377 131.313 349.395 131.516 349.338 131.704C347.245 135.571 343.824 138.549 339.706 140.088C337.903 140.753 335.997 141.095 334.075 141.1Z" fill="#231F20"/>
<path d="M333.879 149.197C333.879 149.197 347.466 149.197 354.878 146.372C354.878 146.372 348.84 167.112 336.159 168.532L333.879 149.197Z" fill="#231F20"/>
<path d="M336.158 169.287C335.974 169.285 335.796 169.217 335.658 169.095C335.519 168.973 335.429 168.805 335.404 168.622L333.124 149.287C333.111 149.179 333.12 149.07 333.151 148.966C333.182 148.862 333.235 148.766 333.305 148.683C333.376 148.602 333.465 148.538 333.564 148.496C333.663 148.454 333.771 148.435 333.879 148.441C334 148.441 347.466 148.441 354.607 145.677C354.737 145.621 354.881 145.604 355.021 145.627C355.161 145.65 355.291 145.714 355.396 145.809C355.501 145.905 355.577 146.029 355.613 146.166C355.65 146.303 355.646 146.448 355.603 146.583C355.346 147.459 349.308 167.822 336.234 169.242L336.158 169.287ZM334.724 149.937L336.808 167.671C346.515 165.934 352.101 152.112 353.686 147.595C347.224 149.65 337.623 149.907 334.724 149.937Z" fill="#231F20"/>
<path d="M339.243 117.723C340.333 117.652 341.115 116.042 340.989 114.127C340.864 112.212 339.879 110.718 338.789 110.79C337.699 110.861 336.917 112.471 337.043 114.386C337.168 116.301 338.153 117.795 339.243 117.723Z" fill="#231F20"/>
<path d="M321.032 118.912C322.122 118.841 322.904 117.231 322.779 115.316C322.653 113.401 321.668 111.907 320.578 111.978C319.488 112.05 318.706 113.66 318.832 115.575C318.957 117.489 319.942 118.984 321.032 118.912Z" fill="#231F20"/>
<path d="M394.099 133.411C396.409 148.064 400.138 175.088 376.104 170.526C371.069 169.553 366.609 166.66 363.664 162.459C358.365 154.907 369.461 142.112 374.7 136.342" fill="white"/>
<path d="M381.102 171.795C379.378 171.779 377.66 171.602 375.969 171.266C370.739 170.26 366.105 167.259 363.046 162.897C357.808 155.345 366.866 143.849 374.142 135.843C374.211 135.773 374.293 135.717 374.384 135.679C374.475 135.641 374.572 135.621 374.671 135.621C374.769 135.621 374.867 135.641 374.957 135.679C375.048 135.717 375.13 135.773 375.199 135.843C375.27 135.913 375.326 135.997 375.364 136.089C375.403 136.181 375.422 136.28 375.422 136.379C375.422 136.479 375.403 136.578 375.364 136.67C375.326 136.762 375.27 136.845 375.199 136.916C371.198 141.311 359.061 154.68 364.224 162.082C367.049 166.134 371.345 168.921 376.195 169.846C382.37 171.024 387.05 170.103 390.13 167.112C397.467 159.997 394.659 142.157 393.285 133.577C393.259 133.38 393.31 133.179 393.428 133.019C393.547 132.858 393.722 132.75 393.919 132.716C394.117 132.69 394.317 132.741 394.477 132.86C394.638 132.978 394.746 133.154 394.78 133.351C396.289 142.852 399.082 160.541 391.187 168.2C389.824 169.432 388.232 170.384 386.502 171.001C384.771 171.618 382.936 171.888 381.102 171.795Z" fill="#231F20"/>
<path d="M341.804 123.321C335.57 123.321 330.497 119.076 330.497 113.864C330.497 109.212 334.513 106.644 341.804 106.644C349.096 106.644 353.097 109.212 353.097 113.864C353.097 119.076 348.024 123.321 341.804 123.321ZM341.804 108.215C337.275 108.215 332.007 109.212 332.007 113.925C332.007 118.305 336.4 121.87 341.804 121.87C347.209 121.87 351.587 118.305 351.587 113.925C351.587 109.151 346.258 108.154 341.804 108.154V108.215Z" fill="#231F20"/>
<path d="M318.963 123.321C312.743 123.321 307.671 119.076 307.671 113.864C307.671 109.212 311.687 106.644 318.963 106.644C326.24 106.644 330.271 109.212 330.271 113.864C330.271 119.076 325.198 123.321 318.963 123.321ZM318.963 108.215C314.51 108.215 309.181 109.212 309.181 113.925C309.181 118.305 313.574 121.87 318.963 121.87C324.353 121.87 328.761 118.305 328.761 113.925C328.761 109.151 323.432 108.154 318.963 108.154V108.215Z" fill="#231F20"/>
<path d="M331.252 114.62H329.516C329.315 114.62 329.123 114.54 328.982 114.398C328.84 114.257 328.761 114.065 328.761 113.864C328.761 113.664 328.84 113.472 328.982 113.33C329.123 113.189 329.315 113.109 329.516 113.109H331.252C331.452 113.109 331.644 113.189 331.786 113.33C331.927 113.472 332.007 113.664 332.007 113.864C332.007 114.065 331.927 114.257 331.786 114.398C331.644 114.54 331.452 114.62 331.252 114.62Z" fill="#231F20"/>
<path d="M369.477 114.62H352.342C352.142 114.62 351.95 114.54 351.808 114.398C351.666 114.257 351.587 114.065 351.587 113.864C351.587 113.664 351.666 113.472 351.808 113.33C351.95 113.189 352.142 113.109 352.342 113.109H369.477C369.676 113.113 369.865 113.194 370.006 113.335C370.147 113.475 370.227 113.665 370.231 113.864C370.231 114.065 370.152 114.257 370.01 114.398C369.869 114.54 369.677 114.62 369.477 114.62Z" fill="#231F20"/>
<path d="M360.902 116.417C360.902 116.417 365.628 101.1 374.006 109.393C382.385 117.686 372.98 129.031 366.458 128.91" fill="white"/>
<path d="M366.488 129.665C366.389 129.665 366.292 129.645 366.201 129.607C366.11 129.569 366.028 129.513 365.959 129.443C365.89 129.373 365.836 129.289 365.8 129.198C365.764 129.106 365.746 129.008 365.748 128.91C365.746 128.81 365.764 128.711 365.801 128.618C365.838 128.526 365.894 128.442 365.965 128.371C366.035 128.3 366.119 128.245 366.212 128.208C366.304 128.17 366.403 128.152 366.503 128.154H366.578C369.96 128.154 374.127 124.846 375.802 120.738C376.619 118.928 376.842 116.907 376.438 114.963C376.033 113.02 375.023 111.255 373.553 109.922C371.711 108.109 369.945 107.384 368.314 107.807C364.148 108.849 361.717 116.553 361.702 116.644C361.642 116.844 361.505 117.012 361.321 117.112C361.137 117.211 360.921 117.233 360.721 117.173C360.521 117.112 360.352 116.975 360.253 116.791C360.154 116.607 360.132 116.391 360.192 116.191C360.298 115.843 362.895 107.596 367.892 106.342C370.066 105.783 372.3 106.629 374.549 108.849C376.245 110.384 377.409 112.419 377.873 114.659C378.337 116.899 378.077 119.229 377.131 121.312C375.153 126.024 370.503 129.665 366.488 129.665Z" fill="#231F20"/>
<path d="M301.21 192.202H301.134C300.935 192.18 300.753 192.08 300.626 191.925C300.499 191.77 300.438 191.571 300.455 191.372C301.185 182.718 303.263 174.232 306.614 166.221C306.698 166.038 306.851 165.897 307.04 165.828C307.228 165.758 307.436 165.767 307.618 165.851C307.801 165.935 307.942 166.088 308.011 166.276C308.081 166.465 308.072 166.673 307.988 166.855C304.705 174.713 302.668 183.036 301.949 191.523C301.931 191.707 301.845 191.878 301.709 192.004C301.573 192.129 301.395 192.2 301.21 192.202Z" fill="#231F20"/>
<path d="M301.965 137.459H159.391C153.897 137.459 149.442 141.916 149.442 147.414V235.495C149.442 240.993 153.897 245.45 159.391 245.45H301.965C307.459 245.45 311.913 240.993 311.913 235.495V147.414C311.913 141.916 307.459 137.459 301.965 137.459Z" fill="white"/>
<path d="M301.934 246.19H159.391C156.554 246.186 153.833 245.056 151.827 243.049C149.82 241.041 148.691 238.319 148.688 235.48V147.414C148.691 144.575 149.82 141.853 151.827 139.846C153.833 137.838 156.554 136.708 159.391 136.704H301.934C304.772 136.708 307.492 137.838 309.498 139.846C311.505 141.853 312.634 144.575 312.638 147.414V235.48C312.634 238.319 311.505 241.041 309.498 243.049C307.492 245.056 304.772 246.186 301.934 246.19ZM159.361 138.215C156.923 138.215 154.584 139.184 152.86 140.909C151.136 142.634 150.167 144.974 150.167 147.414V235.48C150.167 237.92 151.136 240.26 152.86 241.985C154.584 243.71 156.923 244.68 159.361 244.68H301.934C304.373 244.68 306.711 243.71 308.435 241.985C310.16 240.26 311.128 237.92 311.128 235.48V147.414C311.128 144.974 310.16 142.634 308.435 140.909C306.711 139.184 304.373 138.215 301.934 138.215H159.361Z" fill="#231F20"/>
<path d="M243.298 208.804V245.435L219.566 244.378L243.298 208.804Z" fill="#231F20"/>
<path d="M243.298 246.19L219.581 245.133C219.446 245.123 219.316 245.079 219.202 245.005C219.089 244.931 218.996 244.829 218.932 244.71C218.866 244.595 218.831 244.465 218.831 244.332C218.831 244.2 218.866 244.069 218.932 243.954L242.664 208.381C242.753 208.244 242.883 208.141 243.036 208.087C243.189 208.032 243.355 208.029 243.51 208.079C243.666 208.124 243.804 208.22 243.902 208.35C244 208.481 244.053 208.64 244.053 208.804V245.435C244.054 245.537 244.032 245.639 243.991 245.733C243.949 245.826 243.888 245.91 243.812 245.979C243.744 246.046 243.664 246.099 243.576 246.135C243.488 246.172 243.394 246.19 243.298 246.19ZM220.94 243.683L242.543 244.649V211.296L220.94 243.683Z" fill="#231F20"/>
<path d="M213.649 209.151C213.649 209.151 194.974 282.746 194.114 286.009C193.163 289.513 196.046 290.057 200.711 290.057H245.201V286.855H226.224C226.224 286.855 234.331 249.816 243.299 208.804L213.649 209.151Z" fill="white"/>
<path d="M245.201 290.812H200.786C197.314 290.812 194.944 290.525 193.841 289.075C193.524 288.601 193.323 288.058 193.254 287.491C193.186 286.924 193.253 286.349 193.449 285.812C194.309 282.655 212.803 209.71 212.999 208.97C213.037 208.81 213.127 208.668 213.256 208.566C213.385 208.465 213.545 208.41 213.709 208.411L243.359 208.048C243.469 208.045 243.579 208.067 243.678 208.115C243.778 208.162 243.865 208.232 243.932 208.32C244.006 208.407 244.059 208.509 244.088 208.618C244.117 208.728 244.12 208.843 244.098 208.955L227.22 286.099H245.261C245.461 286.099 245.653 286.179 245.795 286.32C245.936 286.462 246.016 286.654 246.016 286.854V290.057C246.016 290.161 245.995 290.265 245.953 290.361C245.911 290.456 245.85 290.543 245.774 290.614C245.697 290.684 245.607 290.739 245.508 290.773C245.409 290.807 245.305 290.821 245.201 290.812ZM214.237 209.906C212.501 216.749 195.653 283.184 194.838 286.205C194.708 286.517 194.652 286.856 194.673 287.193C194.694 287.531 194.791 287.859 194.959 288.154C195.729 289.166 198.295 289.302 200.71 289.302H244.491V287.61H226.224C226.112 287.611 226.001 287.587 225.899 287.54C225.797 287.493 225.707 287.424 225.635 287.338C225.567 287.249 225.518 287.146 225.492 287.037C225.466 286.927 225.463 286.814 225.484 286.703L242.347 209.559L214.237 209.906Z" fill="#231F20"/>
<path d="M406.358 236.523C406.209 236.52 406.065 236.474 405.942 236.391C405.818 236.308 405.722 236.191 405.664 236.054C399.625 221.402 389.359 196.644 389.404 195.496C389.423 195.299 389.513 195.117 389.658 194.983C389.803 194.849 389.992 194.773 390.189 194.771C390.377 194.778 390.555 194.854 390.689 194.986C390.823 195.117 390.903 195.293 390.914 195.48C391.246 197.127 400.742 220.269 407.068 235.48C407.139 235.665 407.136 235.87 407.06 236.053C406.984 236.236 406.841 236.382 406.66 236.462C406.565 236.504 406.462 236.524 406.358 236.523Z" fill="#231F20"/>
<path d="M290.567 259.181C290.43 259.183 290.296 259.147 290.179 259.078C290.062 259.009 289.966 258.909 289.902 258.788C287.17 253.577 277.9 251.039 277.825 251.009C277.726 250.983 277.633 250.938 277.551 250.876C277.469 250.814 277.4 250.737 277.349 250.649C277.297 250.56 277.263 250.463 277.249 250.361C277.235 250.26 277.241 250.156 277.266 250.057C277.292 249.958 277.337 249.865 277.399 249.783C277.461 249.701 277.538 249.633 277.626 249.581C277.714 249.529 277.812 249.495 277.914 249.481C278.015 249.466 278.118 249.472 278.217 249.498C278.625 249.604 288.211 252.217 291.261 258.018C291.351 258.198 291.367 258.407 291.305 258.599C291.243 258.792 291.108 258.952 290.929 259.045C290.823 259.124 290.698 259.171 290.567 259.181Z" fill="#231F20"/>
<path d="M145.336 282.262C148.43 282.262 150.937 279.753 150.937 276.658C150.937 273.563 148.43 271.054 145.336 271.054C142.243 271.054 139.735 273.563 139.735 276.658C139.735 279.753 142.243 282.262 145.336 282.262Z" fill="#231F20"/>
<path d="M145.336 283.018C144.079 283.018 142.85 282.645 141.805 281.946C140.76 281.247 139.945 280.254 139.464 279.092C138.983 277.93 138.857 276.651 139.103 275.418C139.348 274.184 139.953 273.051 140.842 272.161C141.731 271.272 142.863 270.666 144.096 270.421C145.329 270.176 146.607 270.302 147.768 270.783C148.93 271.264 149.922 272.079 150.621 273.125C151.319 274.171 151.692 275.401 151.692 276.658C151.688 278.344 151.017 279.959 149.826 281.151C148.635 282.343 147.021 283.014 145.336 283.018ZM145.336 271.809C144.38 271.809 143.445 272.093 142.649 272.624C141.853 273.154 141.232 273.909 140.864 274.792C140.495 275.676 140.397 276.648 140.58 277.588C140.764 278.527 141.221 279.391 141.894 280.071C142.567 280.751 143.426 281.216 144.363 281.409C145.3 281.601 146.273 281.511 147.16 281.151C148.046 280.791 148.806 280.177 149.344 279.385C149.882 278.594 150.173 277.661 150.182 276.704C150.188 276.063 150.067 275.428 149.826 274.834C149.586 274.241 149.23 273.701 148.779 273.246C148.328 272.791 147.792 272.429 147.201 272.183C146.61 271.936 145.976 271.809 145.336 271.809Z" fill="#231F20"/>
<path d="M168.932 289.951H130.224C129.166 289.951 128.151 289.532 127.401 288.784C126.651 288.037 126.228 287.022 126.224 285.963C126.228 282.677 127.535 279.526 129.859 277.204C132.183 274.881 135.333 273.577 138.618 273.577C138.618 273.577 154.817 272.867 163.09 277.716C171.363 282.565 173.084 289.951 168.932 289.951Z" fill="white"/>
<path d="M168.932 290.707H130.224C128.966 290.707 127.758 290.207 126.867 289.318C125.976 288.429 125.473 287.223 125.469 285.963C125.473 282.477 126.86 279.134 129.325 276.67C131.791 274.206 135.133 272.821 138.618 272.821C139.252 272.821 155.104 272.172 163.482 277.051C169.642 280.661 172.54 285.797 171.74 288.682C171.585 289.297 171.219 289.837 170.705 290.207C170.191 290.577 169.564 290.754 168.932 290.707ZM140.701 274.287C139.448 274.287 138.678 274.287 138.648 274.287C137.118 274.281 135.601 274.577 134.186 275.159C132.77 275.741 131.483 276.597 130.399 277.677C129.315 278.758 128.455 280.042 127.868 281.456C127.281 282.871 126.978 284.387 126.978 285.918C126.982 286.777 127.326 287.599 127.934 288.205C128.543 288.811 129.366 289.151 130.224 289.151H168.932C169.929 289.151 170.17 288.637 170.276 288.244C170.819 286.25 168.494 281.688 162.727 278.32C156.447 274.695 145.291 274.287 140.701 274.287Z" fill="#231F20"/>
<path d="M132.398 284.03C132.323 284.045 132.246 284.045 132.172 284.03C131.981 283.968 131.824 283.833 131.733 283.654C131.643 283.476 131.627 283.269 131.688 283.078C133.216 278.753 136.278 275.14 140.294 272.927C140.472 272.838 140.678 272.822 140.868 272.885C141.057 272.947 141.215 273.082 141.305 273.26C141.351 273.348 141.38 273.444 141.388 273.543C141.396 273.642 141.385 273.742 141.354 273.836C141.323 273.931 141.273 274.018 141.208 274.093C141.142 274.168 141.062 274.228 140.973 274.272C137.333 276.326 134.549 279.616 133.123 283.547C133.067 283.692 132.967 283.817 132.837 283.903C132.707 283.99 132.554 284.034 132.398 284.03Z" fill="#231F20"/>
<path d="M144.657 290.707C144.503 290.705 144.353 290.657 144.228 290.568C144.102 290.479 144.007 290.354 143.955 290.209C143.902 290.065 143.895 289.908 143.934 289.759C143.973 289.61 144.057 289.477 144.173 289.377C144.173 289.377 148.944 285.253 149.11 280.51C149.237 279.288 149.021 278.055 148.488 276.948C147.955 275.841 147.125 274.904 146.091 274.241C146.001 274.198 145.921 274.137 145.856 274.062C145.791 273.988 145.741 273.9 145.71 273.806C145.679 273.711 145.667 273.612 145.676 273.513C145.684 273.414 145.712 273.317 145.759 273.229C145.849 273.051 146.006 272.917 146.196 272.854C146.385 272.792 146.592 272.807 146.77 272.897C148.069 273.684 149.119 274.821 149.8 276.179C150.481 277.536 150.765 279.059 150.62 280.571C150.439 285.978 145.366 290.344 145.14 290.525C145.006 290.642 144.834 290.706 144.657 290.707Z" fill="#231F20"/>
<path d="M302.855 27.0068H250.862V73.4568H302.855V27.0068Z" fill="#33BC84"/>
<path d="M302.855 74.2876H250.862C250.663 74.2838 250.474 74.2029 250.333 74.0621C250.192 73.9213 250.111 73.7314 250.107 73.5323V27.0069C250.111 26.8078 250.192 26.6179 250.333 26.4771C250.474 26.3363 250.663 26.2555 250.862 26.2516H302.855C303.056 26.2516 303.248 26.3312 303.389 26.4728C303.531 26.6144 303.61 26.8066 303.61 27.0069V73.4568C303.621 73.5621 303.609 73.6685 303.576 73.7691C303.543 73.8696 303.489 73.9621 303.418 74.0404C303.347 74.1187 303.26 74.1812 303.163 74.2238C303.066 74.2664 302.961 74.2882 302.855 74.2876ZM251.617 72.7771H302.101V27.7622H251.617V72.7771Z" fill="white"/>
<path d="M267.664 59.7862C267.481 59.788 267.305 59.7236 267.166 59.6049L258.153 51.6291C258.004 51.4918 257.912 51.3028 257.896 51.1004C257.889 50.9975 257.904 50.8941 257.94 50.7976C257.977 50.7011 258.034 50.6137 258.108 50.5415L267.166 40.9796C267.235 40.9093 267.317 40.8534 267.408 40.8152C267.498 40.7771 267.596 40.7574 267.694 40.7574C267.793 40.7574 267.89 40.7771 267.981 40.8152C268.071 40.8534 268.154 40.9093 268.223 40.9796C268.293 41.0498 268.349 41.1334 268.388 41.2254C268.426 41.3174 268.446 41.4162 268.446 41.5159C268.446 41.6156 268.426 41.7143 268.388 41.8063C268.349 41.8984 268.293 41.9819 268.223 42.0521L259.678 51.1155L268.177 58.6683C268.289 58.7703 268.368 58.9037 268.404 59.0512C268.439 59.1987 268.429 59.3534 268.375 59.4952C268.322 59.637 268.226 59.7593 268.102 59.8462C267.978 59.9331 267.831 59.9806 267.679 59.9825L267.664 59.7862Z" fill="white"/>
<path d="M284.271 59.7862C284.163 59.7852 284.057 59.7619 283.958 59.7177C283.859 59.6735 283.771 59.6094 283.698 59.5294C283.559 59.3882 283.482 59.1984 283.482 59.0007C283.482 58.803 283.559 58.6132 283.698 58.472L292.197 50.9191L283.652 41.8557C283.514 41.7095 283.44 41.5144 283.446 41.3132C283.451 41.1121 283.537 40.9215 283.683 40.7832C283.829 40.645 284.024 40.5706 284.225 40.5762C284.426 40.5819 284.616 40.6672 284.755 40.8135L293.813 50.3753C293.881 50.4505 293.934 50.5387 293.968 50.6347C294.001 50.7308 294.015 50.8327 294.009 50.9343C294.007 51.0343 293.985 51.1329 293.943 51.2239C293.902 51.3149 293.842 51.3963 293.767 51.463L284.709 59.4992C284.599 59.6404 284.445 59.7413 284.271 59.7862Z" fill="white"/>
<path d="M270.049 62.2937C269.928 62.2924 269.809 62.2613 269.702 62.203C269.526 62.1069 269.394 61.9458 269.335 61.7539C269.276 61.562 269.294 61.3546 269.385 61.1758L280.708 39.5445C280.801 39.3693 280.959 39.2377 281.149 39.1784C281.338 39.119 281.543 39.1366 281.719 39.2273C281.808 39.2734 281.887 39.3367 281.951 39.4135C282.015 39.4903 282.063 39.579 282.092 39.6746C282.122 39.7701 282.132 39.8706 282.122 39.9702C282.113 40.0697 282.084 40.1664 282.036 40.2545L270.729 61.9462C270.656 62.0582 270.554 62.1491 270.435 62.2101C270.316 62.271 270.183 62.2998 270.049 62.2937Z" fill="white"/>
<path d="M302.855 34.0158H250.862C250.663 34.0119 250.474 33.9311 250.333 33.7903C250.192 33.6495 250.111 33.4596 250.107 33.2605C250.107 33.0602 250.187 32.8681 250.329 32.7265C250.47 32.5848 250.662 32.5052 250.862 32.5052H302.855C303.056 32.5052 303.248 32.5848 303.389 32.7265C303.531 32.8681 303.61 33.0602 303.61 33.2605C303.61 33.4608 303.531 33.653 303.389 33.7946C303.248 33.9362 303.056 34.0158 302.855 34.0158Z" fill="white"/>
<path d="M99.747 177.755H47.7539V224.205H99.747V177.755Z" fill="#33BC84"/>
<path d="M99.748 225.036H47.7548C47.5559 225.032 47.3661 224.951 47.2254 224.811C47.0846 224.67 47.0039 224.48 47 224.281V177.755C47.0039 177.556 47.0846 177.366 47.2254 177.225C47.3661 177.085 47.5559 177.004 47.7548 177H99.748C99.9482 177 100.14 177.08 100.282 177.221C100.423 177.363 100.503 177.555 100.503 177.755V224.205C100.513 224.311 100.502 224.417 100.469 224.518C100.435 224.618 100.381 224.71 100.31 224.789C100.239 224.867 100.152 224.93 100.055 224.972C99.9585 225.015 99.8538 225.037 99.748 225.036ZM48.5097 223.525H98.9931V178.511H48.5097V223.525Z" fill="white"/>
<path d="M64.5566 210.535C64.3741 210.536 64.1971 210.472 64.0584 210.353L55.0456 202.378C54.8962 202.24 54.8044 202.051 54.789 201.849C54.7815 201.746 54.7965 201.643 54.833 201.546C54.8695 201.45 54.9266 201.362 55.0003 201.29L64.0584 191.728C64.1273 191.658 64.2095 191.602 64.3002 191.564C64.3909 191.526 64.4884 191.506 64.5868 191.506C64.6852 191.506 64.7826 191.526 64.8733 191.564C64.9641 191.602 65.0463 191.658 65.1152 191.728C65.1859 191.798 65.2421 191.882 65.2804 191.974C65.3187 192.066 65.3384 192.165 65.3384 192.264C65.3384 192.364 65.3187 192.463 65.2804 192.555C65.2421 192.647 65.1859 192.73 65.1152 192.801L56.5704 201.864L65.0699 209.417C65.182 209.519 65.2609 209.652 65.2963 209.8C65.3316 209.947 65.3217 210.102 65.268 210.244C65.2142 210.385 65.1191 210.508 64.9949 210.595C64.8707 210.682 64.7232 210.729 64.5717 210.731L64.5566 210.535Z" fill="white"/>
<path d="M81.164 210.534C81.0559 210.534 80.9491 210.51 80.8504 210.466C80.7517 210.422 80.6632 210.358 80.5904 210.278C80.4521 210.136 80.3746 209.947 80.3746 209.749C80.3746 209.551 80.4521 209.361 80.5904 209.22L89.0898 201.667L80.5451 192.604C80.4069 192.458 80.3325 192.263 80.3382 192.062C80.3439 191.86 80.4291 191.67 80.5753 191.532C80.7214 191.393 80.9164 191.319 81.1174 191.325C81.3185 191.33 81.509 191.416 81.6471 191.562L90.7052 201.124C90.7738 201.199 90.8266 201.287 90.8603 201.383C90.8941 201.479 90.908 201.581 90.9014 201.683C90.8998 201.783 90.8775 201.881 90.8359 201.972C90.7943 202.063 90.7344 202.145 90.6599 202.211L81.6018 210.247C81.4914 210.389 81.3375 210.49 81.164 210.534Z" fill="white"/>
<path d="M66.9421 213.042C66.8206 213.041 66.7014 213.01 66.5948 212.951C66.4186 212.855 66.2869 212.694 66.2276 212.502C66.1684 212.31 66.1864 212.103 66.2778 211.924L77.6004 190.293C77.6935 190.118 77.8518 189.986 78.0411 189.927C78.2304 189.867 78.4354 189.885 78.6119 189.976C78.7005 190.022 78.7792 190.085 78.8432 190.162C78.9073 190.239 78.9554 190.327 78.9849 190.423C79.0144 190.518 79.0247 190.619 79.015 190.718C79.0054 190.818 78.9761 190.915 78.9289 191.003L67.6214 212.695C67.5481 212.807 67.4469 212.897 67.3278 212.958C67.2086 213.019 67.0757 213.048 66.9421 213.042Z" fill="white"/>
<path d="M99.7479 184.764H47.7548C47.5559 184.76 47.3661 184.68 47.2254 184.539C47.0846 184.398 47.0039 184.208 47 184.009C47 183.809 47.0795 183.617 47.2211 183.475C47.3627 183.333 47.5546 183.254 47.7548 183.254H99.7479C99.9481 183.254 100.14 183.333 100.282 183.475C100.423 183.617 100.503 183.809 100.503 184.009C100.503 184.209 100.423 184.401 100.282 184.543C100.14 184.685 99.9481 184.764 99.7479 184.764Z" fill="white"/>
<path d="M497.044 41.1459H412.608V119.499H497.044V41.1459Z" fill="white"/>
<path d="M497.044 120.254H412.608C412.408 120.254 412.216 120.175 412.075 120.033C411.933 119.891 411.854 119.699 411.854 119.499V41.1458C411.854 40.9455 411.933 40.7534 412.075 40.6117C412.216 40.4701 412.408 40.3905 412.608 40.3905H497.044C497.244 40.3905 497.436 40.4701 497.578 40.6117C497.72 40.7534 497.799 40.9455 497.799 41.1458V119.499C497.799 119.699 497.72 119.891 497.578 120.033C497.436 120.175 497.244 120.254 497.044 120.254ZM413.363 118.744H496.289V41.9011H413.363V118.744Z" fill="#D1D3D4"/>
<path d="M497.044 49.6502H412.608C412.408 49.6502 412.216 49.5706 412.075 49.429C411.933 49.2874 411.854 49.0952 411.854 48.8949C411.854 48.6946 411.933 48.5025 412.075 48.3609C412.216 48.2192 412.408 48.1396 412.608 48.1396H497.044C497.243 48.1435 497.433 48.2243 497.574 48.3651C497.714 48.506 497.795 48.6958 497.799 48.8949C497.799 49.0952 497.72 49.2874 497.578 49.429C497.436 49.5706 497.244 49.6502 497.044 49.6502Z" fill="#D1D3D4"/>
<path d="M430.256 55.9191H419.945C419.745 55.9191 419.553 55.8396 419.411 55.6979C419.27 55.5563 419.19 55.3642 419.19 55.1638C419.19 54.9635 419.27 54.7714 419.411 54.6298C419.553 54.4881 419.745 54.4086 419.945 54.4086H430.256C430.457 54.4086 430.649 54.4881 430.79 54.6298C430.932 54.7714 431.011 54.9635 431.011 55.1638C431.011 55.3642 430.932 55.5563 430.79 55.6979C430.649 55.8396 430.457 55.9191 430.256 55.9191Z" fill="#D1D3D4"/>
<path d="M456.329 55.9191H435.752C435.552 55.9191 435.36 55.8396 435.218 55.6979C435.077 55.5563 434.997 55.3642 434.997 55.1638C434.997 54.9635 435.077 54.7714 435.218 54.6298C435.36 54.4881 435.552 54.4086 435.752 54.4086H456.329C456.529 54.4086 456.721 54.4881 456.862 54.6298C457.004 54.7714 457.083 54.9635 457.083 55.1638C457.083 55.3642 457.004 55.5563 456.862 55.6979C456.721 55.8396 456.529 55.9191 456.329 55.9191Z" fill="#D1D3D4"/>
<path d="M462.518 62.8979H441.941C441.741 62.8979 441.549 62.8183 441.408 62.6767C441.266 62.535 441.187 62.3429 441.187 62.1426C441.187 61.9423 441.266 61.7502 441.408 61.6085C441.549 61.4669 441.741 61.3873 441.941 61.3873H462.518C462.718 61.3873 462.91 61.4669 463.052 61.6085C463.194 61.7502 463.273 61.9423 463.273 62.1426C463.273 62.3429 463.194 62.535 463.052 62.6767C462.91 62.8183 462.718 62.8979 462.518 62.8979Z" fill="#D1D3D4"/>
<path d="M432.732 62.8979H422.421C422.222 62.894 422.032 62.8132 421.891 62.6724C421.751 62.5316 421.67 62.3417 421.666 62.1426C421.666 61.9423 421.746 61.7502 421.887 61.6085C422.029 61.4669 422.221 61.3873 422.421 61.3873H432.732C432.932 61.3873 433.124 61.4669 433.266 61.6085C433.407 61.7502 433.487 61.9423 433.487 62.1426C433.487 62.3429 433.407 62.535 433.266 62.6767C433.124 62.8183 432.932 62.8979 432.732 62.8979Z" fill="#D1D3D4"/>
<path d="M433.124 69.8616H424.852C424.651 69.8616 424.459 69.7821 424.318 69.6404C424.176 69.4988 424.097 69.3067 424.097 69.1064C424.097 68.906 424.176 68.7139 424.318 68.5723C424.459 68.4306 424.651 68.3511 424.852 68.3511H433.124C433.325 68.3511 433.517 68.4306 433.658 68.5723C433.8 68.7139 433.879 68.906 433.879 69.1064C433.879 69.3067 433.8 69.4988 433.658 69.6404C433.517 69.7821 433.325 69.8616 433.124 69.8616Z" fill="#D1D3D4"/>
<path d="M466.201 69.8616H440.446C440.246 69.8616 440.054 69.7821 439.913 69.6404C439.771 69.4988 439.691 69.3067 439.691 69.1064C439.691 68.906 439.771 68.7139 439.913 68.5723C440.054 68.4306 440.246 68.3511 440.446 68.3511H466.201C466.401 68.3511 466.593 68.4306 466.735 68.5723C466.877 68.7139 466.956 68.906 466.956 69.1064C466.956 69.3067 466.877 69.4988 466.735 69.6404C466.593 69.7821 466.401 69.8616 466.201 69.8616Z" fill="#D1D3D4"/>
<path d="M437.579 76.8405H427.237C427.037 76.8405 426.845 76.7609 426.704 76.6193C426.562 76.4777 426.482 76.2855 426.482 76.0852C426.482 75.8849 426.562 75.6928 426.704 75.5512C426.845 75.4095 427.037 75.33 427.237 75.33H437.548C437.749 75.33 437.941 75.4095 438.082 75.5512C438.224 75.6928 438.303 75.8849 438.303 76.0852C438.303 76.2804 438.228 76.4681 438.093 76.6089C437.958 76.7497 437.773 76.8327 437.579 76.8405Z" fill="#D1D3D4"/>
<path d="M471.531 76.8405H440.899C440.7 76.8367 440.511 76.7558 440.37 76.615C440.229 76.4742 440.148 76.2843 440.145 76.0852C440.145 75.8849 440.224 75.6928 440.366 75.5512C440.507 75.4095 440.699 75.33 440.899 75.33H471.531C471.731 75.33 471.923 75.4095 472.064 75.5512C472.206 75.6928 472.285 75.8849 472.285 76.0852C472.285 76.1844 472.266 76.2826 472.228 76.3743C472.19 76.4659 472.134 76.5492 472.064 76.6193C471.994 76.6894 471.911 76.7451 471.819 76.783C471.728 76.821 471.63 76.8405 471.531 76.8405Z" fill="#D1D3D4"/>
<path d="M434.785 83.8193H424.474C424.273 83.8193 424.081 83.7397 423.94 83.5981C423.798 83.4564 423.719 83.2643 423.719 83.064C423.719 82.8637 423.798 82.6716 423.94 82.5299C424.081 82.3883 424.273 82.3087 424.474 82.3087H434.785C434.985 82.3087 435.177 82.3883 435.318 82.5299C435.46 82.6716 435.539 82.8637 435.539 83.064C435.539 83.2643 435.46 83.4564 435.318 83.5981C435.177 83.7397 434.985 83.8193 434.785 83.8193Z" fill="#D1D3D4"/>
<path d="M455.407 83.8193H438.801C438.601 83.8193 438.409 83.7397 438.267 83.5981C438.125 83.4564 438.046 83.2643 438.046 83.064C438.046 82.8637 438.125 82.6716 438.267 82.5299C438.409 82.3883 438.601 82.3087 438.801 82.3087H455.407C455.607 82.3087 455.799 82.3883 455.941 82.5299C456.082 82.6716 456.162 82.8637 456.162 83.064C456.158 83.2631 456.077 83.453 455.937 83.5938C455.796 83.7346 455.606 83.8154 455.407 83.8193Z" fill="#D1D3D4"/>
<path d="M478.354 83.8193H461.748C461.548 83.8193 461.356 83.7397 461.214 83.5981C461.073 83.4564 460.993 83.2643 460.993 83.064C460.993 82.8637 461.073 82.6716 461.214 82.5299C461.356 82.3883 461.548 82.3087 461.748 82.3087H478.354C478.555 82.3087 478.747 82.3883 478.888 82.5299C479.03 82.6716 479.109 82.8637 479.109 83.064C479.109 83.2643 479.03 83.4564 478.888 83.5981C478.747 83.7397 478.555 83.8193 478.354 83.8193Z" fill="#D1D3D4"/>
<path d="M428.083 90.783H424.535C424.335 90.783 424.143 90.7035 424.001 90.5618C423.86 90.4202 423.78 90.2281 423.78 90.0277C423.78 89.8274 423.86 89.6353 424.001 89.4937C424.143 89.352 424.335 89.2725 424.535 89.2725H428.083C428.283 89.2725 428.475 89.352 428.617 89.4937C428.758 89.6353 428.838 89.8274 428.838 90.0277C428.838 90.2281 428.758 90.4202 428.617 90.5618C428.475 90.7035 428.283 90.783 428.083 90.783Z" fill="#D1D3D4"/>
<path d="M455.407 90.783H434.136C433.936 90.783 433.744 90.7035 433.602 90.5618C433.46 90.4202 433.381 90.2281 433.381 90.0277C433.385 89.8286 433.465 89.6388 433.606 89.498C433.747 89.3572 433.937 89.2763 434.136 89.2725H455.407C455.606 89.2763 455.796 89.3572 455.936 89.498C456.077 89.6388 456.158 89.8286 456.162 90.0277C456.162 90.2281 456.082 90.4202 455.941 90.5618C455.799 90.7035 455.607 90.783 455.407 90.783Z" fill="#D1D3D4"/>
<path d="M463.787 90.783H457.853C457.653 90.783 457.461 90.7035 457.32 90.5618C457.178 90.4202 457.099 90.2281 457.099 90.0277C457.099 89.8274 457.178 89.6353 457.32 89.4937C457.461 89.352 457.653 89.2725 457.853 89.2725H463.787C463.985 89.2763 464.175 89.3572 464.316 89.498C464.457 89.6388 464.537 89.8286 464.541 90.0277C464.541 90.2281 464.462 90.4202 464.32 90.5618C464.179 90.7035 463.987 90.783 463.787 90.783Z" fill="#D1D3D4"/>
<path d="M430.106 97.7618H424.535C424.335 97.7618 424.143 97.6822 424.001 97.5406C423.86 97.3989 423.78 97.2068 423.78 97.0065C423.78 96.8062 423.86 96.6141 424.001 96.4724C424.143 96.3308 424.335 96.2512 424.535 96.2512H430.106C430.306 96.2512 430.498 96.3308 430.64 96.4724C430.781 96.6141 430.861 96.8062 430.861 97.0065C430.861 97.2068 430.781 97.3989 430.64 97.5406C430.498 97.6822 430.306 97.7618 430.106 97.7618Z" fill="#D1D3D4"/>
<path d="M460.616 97.7618H435.374C435.174 97.7618 434.982 97.6822 434.84 97.5406C434.699 97.3989 434.619 97.2068 434.619 97.0065C434.619 96.8062 434.699 96.6141 434.84 96.4724C434.982 96.3308 435.174 96.2512 435.374 96.2512H460.616C460.816 96.2512 461.008 96.3308 461.149 96.4724C461.291 96.6141 461.371 96.8062 461.371 97.0065C461.371 97.2068 461.291 97.3989 461.149 97.5406C461.008 97.6822 460.816 97.7618 460.616 97.7618Z" fill="#D1D3D4"/>
<path d="M473.417 97.7618H463.106C462.906 97.7618 462.714 97.6822 462.573 97.5406C462.431 97.3989 462.352 97.2068 462.352 97.0065C462.352 96.8062 462.431 96.6141 462.573 96.4724C462.714 96.3308 462.906 96.2512 463.106 96.2512H473.417C473.618 96.2512 473.81 96.3308 473.951 96.4724C474.093 96.6141 474.172 96.8062 474.172 97.0065C474.172 97.2068 474.093 97.3989 473.951 97.5406C473.81 97.6822 473.618 97.7618 473.417 97.7618Z" fill="#D1D3D4"/>
<path d="M427.584 104.741H422.103C421.904 104.737 421.715 104.656 421.574 104.515C421.433 104.374 421.352 104.184 421.349 103.985C421.349 103.785 421.428 103.593 421.57 103.451C421.711 103.31 421.903 103.23 422.103 103.23H427.584C427.784 103.23 427.976 103.31 428.117 103.451C428.259 103.593 428.338 103.785 428.338 103.985C428.335 104.184 428.254 104.374 428.113 104.515C427.972 104.656 427.783 104.737 427.584 104.741Z" fill="#D1D3D4"/>
<path d="M457.853 104.741H433.955C433.755 104.741 433.563 104.661 433.421 104.519C433.28 104.378 433.2 104.186 433.2 103.985C433.2 103.785 433.28 103.593 433.421 103.451C433.563 103.31 433.755 103.23 433.955 103.23H457.853C458.053 103.23 458.245 103.31 458.387 103.451C458.528 103.593 458.608 103.785 458.608 103.985C458.604 104.184 458.523 104.374 458.383 104.515C458.242 104.656 458.052 104.737 457.853 104.741Z" fill="#D1D3D4"/>
<path d="M432.415 111.704H422.103C421.903 111.704 421.711 111.625 421.57 111.483C421.428 111.342 421.349 111.149 421.349 110.949C421.352 110.75 421.433 110.56 421.574 110.419C421.715 110.279 421.904 110.198 422.103 110.194H432.415C432.615 110.194 432.807 110.273 432.948 110.415C433.09 110.557 433.169 110.749 433.169 110.949C433.169 111.149 433.09 111.342 432.948 111.483C432.807 111.625 432.615 111.704 432.415 111.704Z" fill="#D1D3D4"/>
<path d="M489.647 76.8405H475.697C475.497 76.8405 475.305 76.7609 475.163 76.6193C475.022 76.4777 474.942 76.2856 474.942 76.0852C474.942 75.8849 475.022 75.6928 475.163 75.5512C475.305 75.4095 475.497 75.33 475.697 75.33H489.647C489.847 75.33 490.039 75.4095 490.18 75.5512C490.322 75.6928 490.401 75.8849 490.401 76.0852C490.398 76.2843 490.317 76.4742 490.176 76.615C490.035 76.7558 489.846 76.8367 489.647 76.8405Z" fill="#D1D3D4"/>
<path d="M468.768 55.9493C461.778 55.9493 461.642 55.9493 461.552 55.9493C461.36 55.8963 461.197 55.7698 461.098 55.5973C460.999 55.4247 460.972 55.2201 461.023 55.0279C461.067 54.8476 461.176 54.6901 461.33 54.5866C461.483 54.4831 461.67 54.4411 461.854 54.469C462.669 54.469 476.165 54.469 485.087 54.469C485.284 54.4798 485.47 54.5629 485.609 54.7022C485.748 54.8416 485.831 55.0275 485.842 55.2242C485.842 55.4246 485.763 55.6167 485.621 55.7583C485.48 55.9 485.288 55.9795 485.087 55.9795C477.403 55.9493 472.24 55.9493 468.768 55.9493Z" fill="#D1D3D4"/>
<path d="M471.018 104.741H460.586C460.386 104.741 460.194 104.661 460.052 104.519C459.911 104.378 459.831 104.186 459.831 103.985C459.831 103.785 459.911 103.593 460.052 103.451C460.194 103.31 460.386 103.23 460.586 103.23H471.018C471.218 103.23 471.41 103.31 471.551 103.451C471.693 103.593 471.773 103.785 471.773 103.985C471.773 104.186 471.693 104.378 471.551 104.519C471.41 104.661 471.218 104.741 471.018 104.741Z" fill="#D1D3D4"/>
<path d="M447.104 111.704H439.42C439.22 111.704 439.028 111.625 438.886 111.483C438.745 111.342 438.665 111.149 438.665 110.949C438.669 110.75 438.75 110.56 438.89 110.419C439.031 110.279 439.221 110.198 439.42 110.194H447.104C447.303 110.198 447.493 110.279 447.634 110.419C447.774 110.56 447.855 110.75 447.859 110.949C447.859 111.149 447.779 111.342 447.638 111.483C447.496 111.625 447.304 111.704 447.104 111.704Z" fill="#D1D3D4"/>
<path d="M468.254 111.704H450.018C449.817 111.704 449.625 111.625 449.484 111.483C449.342 111.342 449.263 111.149 449.263 110.949C449.263 110.749 449.342 110.557 449.484 110.415C449.625 110.273 449.817 110.194 450.018 110.194H468.254C468.455 110.194 468.647 110.273 468.788 110.415C468.93 110.557 469.009 110.749 469.009 110.949C469.009 111.149 468.93 111.342 468.788 111.483C468.647 111.625 468.455 111.704 468.254 111.704Z" fill="#D1D3D4"/>
</svg>
